%TF.GenerationSoftware,KiCad,Pcbnew,9.0.6*%
%TF.CreationDate,2026-02-02T16:13:02-05:00*%
%TF.ProjectId,tubeAmp,74756265-416d-4702-9e6b-696361645f70,rev?*%
%TF.SameCoordinates,Original*%
%TF.FileFunction,Soldermask,Top*%
%TF.FilePolarity,Negative*%
%FSLAX46Y46*%
G04 Gerber Fmt 4.6, Leading zero omitted, Abs format (unit mm)*
G04 Created by KiCad (PCBNEW 9.0.6) date 2026-02-02 16:13:02*
%MOMM*%
%LPD*%
G01*
G04 APERTURE LIST*
G04 Aperture macros list*
%AMRoundRect*
0 Rectangle with rounded corners*
0 $1 Rounding radius*
0 $2 $3 $4 $5 $6 $7 $8 $9 X,Y pos of 4 corners*
0 Add a 4 corners polygon primitive as box body*
4,1,4,$2,$3,$4,$5,$6,$7,$8,$9,$2,$3,0*
0 Add four circle primitives for the rounded corners*
1,1,$1+$1,$2,$3*
1,1,$1+$1,$4,$5*
1,1,$1+$1,$6,$7*
1,1,$1+$1,$8,$9*
0 Add four rect primitives between the rounded corners*
20,1,$1+$1,$2,$3,$4,$5,0*
20,1,$1+$1,$4,$5,$6,$7,0*
20,1,$1+$1,$6,$7,$8,$9,0*
20,1,$1+$1,$8,$9,$2,$3,0*%
G04 Aperture macros list end*
%ADD10C,5.600000*%
%ADD11R,1.676400X1.676400*%
%ADD12C,1.676400*%
%ADD13R,1.700000X1.700000*%
%ADD14C,1.700000*%
%ADD15C,1.500000*%
%ADD16RoundRect,0.249999X-0.850001X-0.850001X0.850001X-0.850001X0.850001X0.850001X-0.850001X0.850001X0*%
%ADD17C,2.200000*%
%ADD18C,1.600000*%
%ADD19RoundRect,0.250001X-0.949999X-0.949999X0.949999X-0.949999X0.949999X0.949999X-0.949999X0.949999X0*%
%ADD20C,2.400000*%
%ADD21RoundRect,0.250000X-0.550000X0.550000X-0.550000X-0.550000X0.550000X-0.550000X0.550000X0.550000X0*%
%ADD22RoundRect,0.249999X0.850001X0.850001X-0.850001X0.850001X-0.850001X-0.850001X0.850001X-0.850001X0*%
%ADD23C,6.654800*%
%ADD24C,5.080000*%
%ADD25RoundRect,0.250000X-0.550000X-0.550000X0.550000X-0.550000X0.550000X0.550000X-0.550000X0.550000X0*%
%ADD26C,2.154000*%
%ADD27R,2.540000X2.540000*%
%ADD28C,2.540000*%
%ADD29C,1.701800*%
G04 APERTURE END LIST*
D10*
%TO.C,H2*%
X259062500Y-32503680D03*
%TD*%
%TO.C,H4*%
X258062500Y-132103680D03*
%TD*%
D11*
%TO.C,Q1*%
X254893500Y-105625000D03*
D12*
X254893500Y-100545000D03*
X254893500Y-90385000D03*
X254893500Y-85305000D03*
X225937500Y-85305000D03*
X225937500Y-90385000D03*
X225937500Y-100545000D03*
X225937500Y-105625000D03*
%TD*%
D13*
%TO.C,RV3*%
X188817900Y-123625000D03*
D14*
X191357900Y-123625000D03*
X193897900Y-123625000D03*
%TD*%
D15*
%TO.C,TP8*%
X174662500Y-38103680D03*
%TD*%
D10*
%TO.C,H3*%
X116662500Y-132103680D03*
%TD*%
D16*
%TO.C,D1*%
X238857500Y-39625000D03*
D17*
X249017500Y-39625000D03*
%TD*%
D15*
%TO.C,TP1*%
X138737500Y-51225000D03*
%TD*%
D18*
%TO.C,R2*%
X134737500Y-56145000D03*
X134737500Y-66305000D03*
%TD*%
D19*
%TO.C,C8*%
X248437500Y-59125000D03*
D20*
X255937500Y-59125000D03*
%TD*%
D18*
%TO.C,R15*%
X129537500Y-91305000D03*
X129537500Y-81145000D03*
%TD*%
D21*
%TO.C,C3*%
X212337500Y-47469888D03*
D18*
X212337500Y-49469888D03*
%TD*%
D15*
%TO.C,TP6*%
X243862500Y-125503680D03*
%TD*%
D18*
%TO.C,R14*%
X205057500Y-88425000D03*
X215217500Y-88425000D03*
%TD*%
D22*
%TO.C,D3*%
X233937500Y-44625000D03*
D17*
X223777500Y-44625000D03*
%TD*%
D18*
%TO.C,R10*%
X205057500Y-83825000D03*
X215217500Y-83825000D03*
%TD*%
D19*
%TO.C,C7*%
X225959720Y-59125000D03*
D20*
X233459720Y-59125000D03*
%TD*%
D18*
%TO.C,R9*%
X215217500Y-74425000D03*
X205057500Y-74425000D03*
%TD*%
D13*
%TO.C,RV4*%
X217304900Y-123625000D03*
D14*
X219844900Y-123625000D03*
X222384900Y-123625000D03*
%TD*%
D15*
%TO.C,TP7*%
X238862500Y-34903680D03*
%TD*%
D22*
%TO.C,D2*%
X233937500Y-39625000D03*
D17*
X223777500Y-39625000D03*
%TD*%
D18*
%TO.C,C5*%
X177562500Y-120903680D03*
X182562500Y-120903680D03*
%TD*%
D15*
%TO.C,TP9*%
X174662500Y-45703680D03*
%TD*%
D21*
%TO.C,C2*%
X206137500Y-47669888D03*
D18*
X206137500Y-49669888D03*
%TD*%
D13*
%TO.C,RV2*%
X160330900Y-123625000D03*
D14*
X162870900Y-123625000D03*
X165410900Y-123625000D03*
%TD*%
D18*
%TO.C,R7*%
X190417500Y-69025000D03*
X180257500Y-69025000D03*
%TD*%
D15*
%TO.C,TP4*%
X129537500Y-95425000D03*
%TD*%
D18*
%TO.C,R8*%
X203817500Y-69025000D03*
X193657500Y-69025000D03*
%TD*%
D15*
%TO.C,TP3*%
X174062500Y-121703680D03*
%TD*%
D18*
%TO.C,C4*%
X208537500Y-59925000D03*
X208537500Y-54925000D03*
%TD*%
%TO.C,R6*%
X176937500Y-65105000D03*
X176937500Y-54945000D03*
%TD*%
%TO.C,R13*%
X215217500Y-79225000D03*
X205057500Y-79225000D03*
%TD*%
%TO.C,R5*%
X171937500Y-54945000D03*
X171937500Y-65105000D03*
%TD*%
D23*
%TO.C,U3*%
X163427500Y-98315000D03*
X167237500Y-89425000D03*
X163427500Y-80535000D03*
X154537500Y-76725000D03*
X145647500Y-80535000D03*
X141837500Y-89425000D03*
X145647500Y-98315000D03*
X154537500Y-102125000D03*
D24*
X154537500Y-89425000D03*
%TD*%
D22*
%TO.C,D4*%
X249017500Y-44625000D03*
D17*
X238857500Y-44625000D03*
%TD*%
D15*
%TO.C,TP5*%
X239662500Y-125503680D03*
%TD*%
D25*
%TO.C,C1*%
X168937500Y-48625000D03*
D18*
X170937500Y-48625000D03*
%TD*%
D15*
%TO.C,TP2*%
X213062500Y-70303680D03*
%TD*%
D10*
%TO.C,H1*%
X116662500Y-32503680D03*
%TD*%
D13*
%TO.C,RV1*%
X131724200Y-123625000D03*
D14*
X134264200Y-123625000D03*
X136804200Y-123625000D03*
%TD*%
D18*
%TO.C,R16*%
X135137500Y-81075000D03*
X135137500Y-93775000D03*
%TD*%
%TO.C,R11*%
X157582500Y-113903680D03*
X167742500Y-113903680D03*
%TD*%
D26*
%TO.C,J1*%
X253037500Y-124225000D03*
X258037500Y-124225000D03*
%TD*%
D27*
%TO.C,U2*%
X198557500Y-60105000D03*
D28*
X198557500Y-55025000D03*
X198557500Y-49945000D03*
X193477500Y-47405000D03*
X188397500Y-47405000D03*
X183317500Y-49945000D03*
X183317500Y-55025000D03*
X183317500Y-60105000D03*
X188397500Y-62645000D03*
%TD*%
D18*
%TO.C,C6*%
X199337500Y-74325000D03*
X199337500Y-79325000D03*
%TD*%
%TO.C,R1*%
X169417500Y-68825000D03*
X159257500Y-68825000D03*
%TD*%
%TO.C,R3*%
X156617500Y-68825000D03*
X146457500Y-68825000D03*
%TD*%
%TO.C,R4*%
X139537500Y-66305000D03*
X139537500Y-56145000D03*
%TD*%
%TO.C,R12*%
X216537500Y-118505000D03*
X216537500Y-108345000D03*
%TD*%
D27*
%TO.C,U1*%
X162157500Y-60105000D03*
D28*
X162157500Y-55025000D03*
X162157500Y-49945000D03*
X157077500Y-47405000D03*
X151997500Y-47405000D03*
X146917500Y-49945000D03*
X146917500Y-55025000D03*
X146917500Y-60105000D03*
X151997500Y-62645000D03*
%TD*%
D26*
%TO.C,J3*%
X259437500Y-41625000D03*
X254437500Y-41625000D03*
%TD*%
D29*
%TO.C,J2*%
X124387550Y-58605000D03*
X124387550Y-56065000D03*
X124387550Y-53525000D03*
X124387550Y-50985000D03*
X124387550Y-48445000D03*
X121847550Y-58605000D03*
X121847550Y-56065000D03*
X121847550Y-53525000D03*
X121847550Y-50985000D03*
X121847550Y-48445000D03*
%TD*%
M02*
