M48
; DRILL file {KiCad 9.0.6} date 2026-02-02T16:13:06-0500
; FORMAT={-:-/ absolute / metric / decimal}
; #@! TF.CreationDate,2026-02-02T16:13:06-05:00
; #@! TF.GenerationSoftware,Kicad,Pcbnew,9.0.6
; #@! TF.FileFunction,Plated,1,2,PTH
FMAT,2
METRIC
; #@! TA.AperFunction,Plated,PTH,ViaDrill
T1C0.300
; #@! TA.AperFunction,Plated,PTH,ComponentDrill
T2C0.800
; #@! TA.AperFunction,Plated,PTH,ComponentDrill
T3C1.000
; #@! TA.AperFunction,Plated,PTH,ComponentDrill
T4C1.100
; #@! TA.AperFunction,Plated,PTH,ComponentDrill
T5C1.168
; #@! TA.AperFunction,Plated,PTH,ComponentDrill
T6C1.194
; #@! TA.AperFunction,Plated,PTH,ComponentDrill
T7C1.200
; #@! TA.AperFunction,Plated,PTH,ComponentDrill
T8C1.300
; #@! TA.AperFunction,Plated,PTH,ComponentDrill
T9C2.540
; #@! TA.AperFunction,Plated,PTH,ComponentDrill
T10C3.200
; #@! TA.AperFunction,Plated,PTH,ComponentDrill
T11C5.080
%
G90
G05
T1
X127.462Y-107.104
T2
X129.537Y-81.145
X129.537Y-91.305
X134.737Y-56.145
X134.737Y-66.305
X135.137Y-81.075
X135.137Y-93.775
X139.537Y-56.145
X139.537Y-66.305
X146.457Y-68.825
X156.618Y-68.825
X157.582Y-113.904
X159.257Y-68.825
X167.742Y-113.904
X168.938Y-48.625
X169.417Y-68.825
X170.938Y-48.625
X171.938Y-54.945
X171.938Y-65.105
X176.938Y-54.945
X176.938Y-65.105
X177.562Y-120.904
X180.257Y-69.025
X182.562Y-120.904
X190.417Y-69.025
X193.657Y-69.025
X199.337Y-74.325
X199.337Y-79.325
X203.817Y-69.025
X205.058Y-74.425
X205.058Y-79.225
X205.058Y-83.825
X205.058Y-88.425
X206.137Y-47.67
X206.137Y-49.67
X208.537Y-54.925
X208.537Y-59.925
X212.337Y-47.47
X212.337Y-49.47
X215.218Y-74.425
X215.218Y-79.225
X215.218Y-83.825
X215.218Y-88.425
X216.537Y-108.345
X216.537Y-118.505
T3
X131.724Y-123.625
X134.264Y-123.625
X136.804Y-123.625
X146.917Y-49.945
X146.917Y-55.025
X146.917Y-60.105
X151.998Y-47.405
X151.998Y-62.645
X157.077Y-47.405
X160.331Y-123.625
X162.157Y-49.945
X162.157Y-55.025
X162.157Y-60.105
X162.871Y-123.625
X165.411Y-123.625
X183.317Y-49.945
X183.317Y-55.025
X183.317Y-60.105
X188.397Y-47.405
X188.397Y-62.645
X188.818Y-123.625
X191.358Y-123.625
X193.477Y-47.405
X193.898Y-123.625
X198.558Y-49.945
X198.558Y-55.025
X198.558Y-60.105
X217.305Y-123.625
X219.845Y-123.625
X222.385Y-123.625
T4
X223.778Y-39.625
X223.778Y-44.625
X233.938Y-39.625
X233.938Y-44.625
X238.857Y-39.625
X238.857Y-44.625
X249.017Y-39.625
X249.017Y-44.625
T5
X225.938Y-85.305
X225.938Y-90.385
X225.938Y-100.545
X225.938Y-105.625
X254.893Y-85.305
X254.893Y-90.385
X254.893Y-100.545
X254.893Y-105.625
T6
X121.848Y-48.445
X121.848Y-50.985
X121.848Y-53.525
X121.848Y-56.065
X121.848Y-58.605
X124.388Y-48.445
X124.388Y-50.985
X124.388Y-53.525
X124.388Y-56.065
X124.388Y-58.605
T7
X225.96Y-59.125
X233.46Y-59.125
X248.438Y-59.125
X255.938Y-59.125
T8
X253.037Y-124.225
X254.438Y-41.625
X258.037Y-124.225
X259.438Y-41.625
T9
X141.838Y-89.425
X145.647Y-80.535
X145.647Y-98.315
X154.537Y-76.725
X154.537Y-102.125
X163.427Y-80.535
X163.427Y-98.315
X167.237Y-89.425
T10
X116.662Y-32.504
X116.662Y-132.104
X258.062Y-132.104
X259.062Y-32.504
T11
X154.537Y-89.425
M30
