%TF.GenerationSoftware,KiCad,Pcbnew,9.0.6*%
%TF.CreationDate,2026-02-02T16:13:02-05:00*%
%TF.ProjectId,tubeAmp,74756265-416d-4702-9e6b-696361645f70,rev?*%
%TF.SameCoordinates,Original*%
%TF.FileFunction,Copper,L1,Top*%
%TF.FilePolarity,Positive*%
%FSLAX46Y46*%
G04 Gerber Fmt 4.6, Leading zero omitted, Abs format (unit mm)*
G04 Created by KiCad (PCBNEW 9.0.6) date 2026-02-02 16:13:02*
%MOMM*%
%LPD*%
G01*
G04 APERTURE LIST*
G04 Aperture macros list*
%AMRoundRect*
0 Rectangle with rounded corners*
0 $1 Rounding radius*
0 $2 $3 $4 $5 $6 $7 $8 $9 X,Y pos of 4 corners*
0 Add a 4 corners polygon primitive as box body*
4,1,4,$2,$3,$4,$5,$6,$7,$8,$9,$2,$3,0*
0 Add four circle primitives for the rounded corners*
1,1,$1+$1,$2,$3*
1,1,$1+$1,$4,$5*
1,1,$1+$1,$6,$7*
1,1,$1+$1,$8,$9*
0 Add four rect primitives between the rounded corners*
20,1,$1+$1,$2,$3,$4,$5,0*
20,1,$1+$1,$4,$5,$6,$7,0*
20,1,$1+$1,$6,$7,$8,$9,0*
20,1,$1+$1,$8,$9,$2,$3,0*%
G04 Aperture macros list end*
%TA.AperFunction,ComponentPad*%
%ADD10C,5.600000*%
%TD*%
%TA.AperFunction,ComponentPad*%
%ADD11R,1.676400X1.676400*%
%TD*%
%TA.AperFunction,ComponentPad*%
%ADD12C,1.676400*%
%TD*%
%TA.AperFunction,ComponentPad*%
%ADD13R,1.700000X1.700000*%
%TD*%
%TA.AperFunction,ComponentPad*%
%ADD14C,1.700000*%
%TD*%
%TA.AperFunction,SMDPad,CuDef*%
%ADD15C,1.500000*%
%TD*%
%TA.AperFunction,ComponentPad*%
%ADD16RoundRect,0.249999X-0.850001X-0.850001X0.850001X-0.850001X0.850001X0.850001X-0.850001X0.850001X0*%
%TD*%
%TA.AperFunction,ComponentPad*%
%ADD17C,2.200000*%
%TD*%
%TA.AperFunction,ComponentPad*%
%ADD18C,1.600000*%
%TD*%
%TA.AperFunction,ComponentPad*%
%ADD19RoundRect,0.250001X-0.949999X-0.949999X0.949999X-0.949999X0.949999X0.949999X-0.949999X0.949999X0*%
%TD*%
%TA.AperFunction,ComponentPad*%
%ADD20C,2.400000*%
%TD*%
%TA.AperFunction,ComponentPad*%
%ADD21RoundRect,0.250000X-0.550000X0.550000X-0.550000X-0.550000X0.550000X-0.550000X0.550000X0.550000X0*%
%TD*%
%TA.AperFunction,ComponentPad*%
%ADD22RoundRect,0.249999X0.850001X0.850001X-0.850001X0.850001X-0.850001X-0.850001X0.850001X-0.850001X0*%
%TD*%
%TA.AperFunction,ComponentPad*%
%ADD23C,6.451600*%
%TD*%
%TA.AperFunction,ComponentPad*%
%ADD24C,5.080000*%
%TD*%
%TA.AperFunction,ComponentPad*%
%ADD25RoundRect,0.250000X-0.550000X-0.550000X0.550000X-0.550000X0.550000X0.550000X-0.550000X0.550000X0*%
%TD*%
%TA.AperFunction,ComponentPad*%
%ADD26C,1.950000*%
%TD*%
%TA.AperFunction,ComponentPad*%
%ADD27R,2.540000X2.540000*%
%TD*%
%TA.AperFunction,ComponentPad*%
%ADD28C,2.540000*%
%TD*%
%TA.AperFunction,ComponentPad*%
%ADD29C,1.701800*%
%TD*%
%TA.AperFunction,ViaPad*%
%ADD30C,0.600000*%
%TD*%
%TA.AperFunction,Conductor*%
%ADD31C,0.733882*%
%TD*%
%TA.AperFunction,Conductor*%
%ADD32C,0.200000*%
%TD*%
G04 APERTURE END LIST*
D10*
%TO.P,H2,1*%
%TO.N,N/C*%
X259062500Y-32503680D03*
%TD*%
%TO.P,H4,1*%
%TO.N,GND*%
X258062500Y-132103680D03*
%TD*%
D11*
%TO.P,Q1,1,1*%
%TO.N,AC+*%
X254893500Y-105625000D03*
D12*
%TO.P,Q1,2,3*%
%TO.N,AC-*%
X254893500Y-100545000D03*
%TO.P,Q1,3,4*%
%TO.N,AC+*%
X254893500Y-90385000D03*
%TO.P,Q1,4,6*%
%TO.N,AC-*%
X254893500Y-85305000D03*
%TO.P,Q1,5,7*%
%TO.N,Filament-*%
X225937500Y-85305000D03*
%TO.P,Q1,6,9*%
%TO.N,Filament+*%
X225937500Y-90385000D03*
%TO.P,Q1,7,10*%
%TO.N,Filament-*%
X225937500Y-100545000D03*
%TO.P,Q1,8,12*%
%TO.N,Filament+*%
X225937500Y-105625000D03*
%TD*%
D13*
%TO.P,RV3,1,1*%
%TO.N,Net-(R14-Pad1)*%
X188817900Y-123625000D03*
D14*
%TO.P,RV3,2,2*%
%TO.N,Net-(C5-Pad2)*%
X191357900Y-123625000D03*
%TO.P,RV3,3,3*%
%TO.N,Net-(R13-Pad2)*%
X193897900Y-123625000D03*
%TD*%
D15*
%TO.P,TP8,1,1*%
%TO.N,Filament+*%
X174662500Y-38103680D03*
%TD*%
D10*
%TO.P,H3,1*%
%TO.N,GND*%
X116662500Y-132103680D03*
%TD*%
D16*
%TO.P,D1,1,K*%
%TO.N,xfmr+*%
X238857500Y-39625000D03*
D17*
%TO.P,D1,2,A*%
%TO.N,AC+*%
X249017500Y-39625000D03*
%TD*%
D15*
%TO.P,TP1,1,1*%
%TO.N,Aux_in*%
X138737500Y-51225000D03*
%TD*%
D18*
%TO.P,R2,1*%
%TO.N,Aux_in*%
X134737500Y-56145000D03*
%TO.P,R2,2*%
%TO.N,Net-(U1B-G)*%
X134737500Y-66305000D03*
%TD*%
D19*
%TO.P,C8,1*%
%TO.N,xfmr+*%
X248437500Y-59125000D03*
D20*
%TO.P,C8,2*%
%TO.N,GND*%
X255937500Y-59125000D03*
%TD*%
D18*
%TO.P,R15,1*%
%TO.N,Vol_out*%
X129537500Y-91305000D03*
%TO.P,R15,2*%
%TO.N,GND*%
X129537500Y-81145000D03*
%TD*%
D21*
%TO.P,C3,1*%
%TO.N,Net-(C2-Pad2)*%
X212337500Y-47469888D03*
D18*
%TO.P,C3,2*%
%TO.N,Line_out*%
X212337500Y-49469888D03*
%TD*%
D15*
%TO.P,TP6,1,1*%
%TO.N,xfmr-*%
X243862500Y-125503680D03*
%TD*%
D18*
%TO.P,R14,1*%
%TO.N,Net-(R14-Pad1)*%
X205057500Y-88425000D03*
%TO.P,R14,2*%
%TO.N,GND*%
X215217500Y-88425000D03*
%TD*%
D22*
%TO.P,D3,1,K*%
%TO.N,AC-*%
X233937500Y-44625000D03*
D17*
%TO.P,D3,2,A*%
%TO.N,GND*%
X223777500Y-44625000D03*
%TD*%
D18*
%TO.P,R10,1*%
%TO.N,Net-(C6-Pad2)*%
X205057500Y-83825000D03*
%TO.P,R10,2*%
%TO.N,GND*%
X215217500Y-83825000D03*
%TD*%
D19*
%TO.P,C7,1*%
%TO.N,xfmr+*%
X225959720Y-59125000D03*
D20*
%TO.P,C7,2*%
%TO.N,GND*%
X233459720Y-59125000D03*
%TD*%
D18*
%TO.P,R9,1*%
%TO.N,Line_out*%
X215217500Y-74425000D03*
%TO.P,R9,2*%
%TO.N,Net-(C6-Pad1)*%
X205057500Y-74425000D03*
%TD*%
D13*
%TO.P,RV4,1,1*%
%TO.N,Tone_out*%
X217304900Y-123625000D03*
D14*
%TO.P,RV4,2,2*%
%TO.N,Vol_out*%
X219844900Y-123625000D03*
%TO.P,RV4,3,3*%
%TO.N,GND*%
X222384900Y-123625000D03*
%TD*%
D15*
%TO.P,TP7,1,1*%
%TO.N,xfmr+*%
X238862500Y-34903680D03*
%TD*%
D22*
%TO.P,D2,1,K*%
%TO.N,xfmr+*%
X233937500Y-39625000D03*
D17*
%TO.P,D2,2,A*%
%TO.N,AC-*%
X223777500Y-39625000D03*
%TD*%
D18*
%TO.P,C5,1*%
%TO.N,Tone_out*%
X177562500Y-120903680D03*
%TO.P,C5,2*%
%TO.N,Net-(C5-Pad2)*%
X182562500Y-120903680D03*
%TD*%
D15*
%TO.P,TP9,1,1*%
%TO.N,Filament-*%
X174662500Y-45703680D03*
%TD*%
D21*
%TO.P,C2,1*%
%TO.N,Net-(U2A-K)*%
X206137500Y-47669888D03*
D18*
%TO.P,C2,2*%
%TO.N,Net-(C2-Pad2)*%
X206137500Y-49669888D03*
%TD*%
D13*
%TO.P,RV2,1,1*%
%TO.N,Net-(C6-Pad1)*%
X160330900Y-123625000D03*
D14*
%TO.P,RV2,2,2*%
%TO.N,Net-(R11-Pad1)*%
X162870900Y-123625000D03*
%TO.P,RV2,3,3*%
%TO.N,Net-(C6-Pad2)*%
X165410900Y-123625000D03*
%TD*%
D18*
%TO.P,R7,1*%
%TO.N,GND*%
X190417500Y-69025000D03*
%TO.P,R7,2*%
%TO.N,Net-(U2B-K)*%
X180257500Y-69025000D03*
%TD*%
D15*
%TO.P,TP4,1,1*%
%TO.N,Vol_out*%
X129537500Y-95425000D03*
%TD*%
D18*
%TO.P,R8,1*%
%TO.N,Net-(U2A-K)*%
X203817500Y-69025000D03*
%TO.P,R8,2*%
%TO.N,Net-(U2A-G)*%
X193657500Y-69025000D03*
%TD*%
D15*
%TO.P,TP3,1,1*%
%TO.N,Tone_out*%
X174062500Y-121703680D03*
%TD*%
D18*
%TO.P,C4,1*%
%TO.N,Net-(U1B-K)*%
X208537500Y-59925000D03*
%TO.P,C4,2*%
%TO.N,Net-(C2-Pad2)*%
X208537500Y-54925000D03*
%TD*%
%TO.P,R6,1*%
%TO.N,Net-(C1-Pad2)*%
X176937500Y-65105000D03*
%TO.P,R6,2*%
%TO.N,Net-(U2B-G)*%
X176937500Y-54945000D03*
%TD*%
%TO.P,R13,1*%
%TO.N,Line_out*%
X215217500Y-79225000D03*
%TO.P,R13,2*%
%TO.N,Net-(R13-Pad2)*%
X205057500Y-79225000D03*
%TD*%
%TO.P,R5,1*%
%TO.N,GND*%
X171937500Y-54945000D03*
%TO.P,R5,2*%
%TO.N,Net-(C1-Pad2)*%
X171937500Y-65105000D03*
%TD*%
D23*
%TO.P,U3,1*%
%TO.N,N/C*%
X163427500Y-98315000D03*
%TO.P,U3,2,F1*%
%TO.N,Filament+*%
X167237500Y-89425000D03*
%TO.P,U3,3,A*%
%TO.N,xfmr-*%
X163427500Y-80535000D03*
%TO.P,U3,4,G2*%
X154537500Y-76725000D03*
%TO.P,U3,5,F1*%
%TO.N,Net-(U3A-F1)*%
X145647500Y-80535000D03*
%TO.P,U3,6,G1*%
%TO.N,Vol_out*%
X141837500Y-89425000D03*
%TO.P,U3,7,F2*%
%TO.N,Filament-*%
X145647500Y-98315000D03*
%TO.P,U3,8*%
%TO.N,N/C*%
X154537500Y-102125000D03*
D24*
%TO.P,U3,9*%
X154537500Y-89425000D03*
%TD*%
D22*
%TO.P,D4,1,K*%
%TO.N,AC+*%
X249017500Y-44625000D03*
D17*
%TO.P,D4,2,A*%
%TO.N,GND*%
X238857500Y-44625000D03*
%TD*%
D15*
%TO.P,TP5,1,1*%
%TO.N,xfmr+*%
X239662500Y-125503680D03*
%TD*%
D25*
%TO.P,C1,1*%
%TO.N,Net-(U1A-K)*%
X168937500Y-48625000D03*
D18*
%TO.P,C1,2*%
%TO.N,Net-(C1-Pad2)*%
X170937500Y-48625000D03*
%TD*%
D15*
%TO.P,TP2,1,1*%
%TO.N,Line_out*%
X213062500Y-70303680D03*
%TD*%
D10*
%TO.P,H1,1*%
%TO.N,N/C*%
X116662500Y-32503680D03*
%TD*%
D13*
%TO.P,RV1,1,1*%
%TO.N,Net-(C2-Pad2)*%
X131724200Y-123625000D03*
D14*
%TO.P,RV1,2,2*%
X134264200Y-123625000D03*
%TO.P,RV1,3,3*%
%TO.N,Net-(U1B-K)*%
X136804200Y-123625000D03*
%TD*%
D18*
%TO.P,R16,1*%
%TO.N,Net-(U3A-F1)*%
X135137500Y-81075000D03*
%TO.P,R16,2*%
%TO.N,GND*%
X135137500Y-93775000D03*
%TD*%
%TO.P,R11,1*%
%TO.N,Net-(R11-Pad1)*%
X157582500Y-113903680D03*
%TO.P,R11,2*%
%TO.N,Tone_out*%
X167742500Y-113903680D03*
%TD*%
D26*
%TO.P,J1,1*%
%TO.N,xfmr+*%
X253037500Y-124225000D03*
%TO.P,J1,2*%
%TO.N,xfmr-*%
X258037500Y-124225000D03*
%TD*%
D27*
%TO.P,U2,1,A*%
%TO.N,xfmr+*%
X198557500Y-60105000D03*
D28*
%TO.P,U2,2,G*%
%TO.N,Net-(U2A-G)*%
X198557500Y-55025000D03*
%TO.P,U2,3,K*%
%TO.N,Net-(U2A-K)*%
X198557500Y-49945000D03*
%TO.P,U2,4,F1*%
%TO.N,Filament+*%
X193477500Y-47405000D03*
%TO.P,U2,5,F2*%
%TO.N,Filament-*%
X188397500Y-47405000D03*
%TO.P,U2,6,A*%
%TO.N,Net-(U2A-G)*%
X183317500Y-49945000D03*
%TO.P,U2,7,G*%
%TO.N,Net-(U2B-G)*%
X183317500Y-55025000D03*
%TO.P,U2,8,K*%
%TO.N,Net-(U2B-K)*%
X183317500Y-60105000D03*
%TO.P,U2,9*%
%TO.N,N/C*%
X188397500Y-62645000D03*
%TD*%
D18*
%TO.P,C6,1*%
%TO.N,Net-(C6-Pad1)*%
X199337500Y-74325000D03*
%TO.P,C6,2*%
%TO.N,Net-(C6-Pad2)*%
X199337500Y-79325000D03*
%TD*%
%TO.P,R1,1*%
%TO.N,Net-(U1A-K)*%
X169417500Y-68825000D03*
%TO.P,R1,2*%
%TO.N,Net-(U1A-G)*%
X159257500Y-68825000D03*
%TD*%
%TO.P,R3,1*%
%TO.N,GND*%
X156617500Y-68825000D03*
%TO.P,R3,2*%
%TO.N,Net-(U1B-K)*%
X146457500Y-68825000D03*
%TD*%
%TO.P,R4,1*%
%TO.N,GND*%
X139537500Y-66305000D03*
%TO.P,R4,2*%
%TO.N,Aux_in*%
X139537500Y-56145000D03*
%TD*%
%TO.P,R12,1*%
%TO.N,Tone_out*%
X216537500Y-118505000D03*
%TO.P,R12,2*%
%TO.N,GND*%
X216537500Y-108345000D03*
%TD*%
D27*
%TO.P,U1,1,A*%
%TO.N,xfmr+*%
X162157500Y-60105000D03*
D28*
%TO.P,U1,2,G*%
%TO.N,Net-(U1A-G)*%
X162157500Y-55025000D03*
%TO.P,U1,3,K*%
%TO.N,Net-(U1A-K)*%
X162157500Y-49945000D03*
%TO.P,U1,4,F1*%
%TO.N,Filament+*%
X157077500Y-47405000D03*
%TO.P,U1,5,F2*%
%TO.N,Filament-*%
X151997500Y-47405000D03*
%TO.P,U1,6,A*%
%TO.N,Net-(U1A-G)*%
X146917500Y-49945000D03*
%TO.P,U1,7,G*%
%TO.N,Net-(U1B-G)*%
X146917500Y-55025000D03*
%TO.P,U1,8,K*%
%TO.N,Net-(U1B-K)*%
X146917500Y-60105000D03*
%TO.P,U1,9*%
%TO.N,N/C*%
X151997500Y-62645000D03*
%TD*%
D26*
%TO.P,J3,1*%
%TO.N,AC+*%
X259437500Y-41625000D03*
%TO.P,J3,2*%
%TO.N,AC-*%
X254437500Y-41625000D03*
%TD*%
D29*
%TO.P,J2,1,1*%
%TO.N,xfmr+*%
X124387550Y-58605000D03*
%TO.P,J2,2,2*%
%TO.N,GND*%
X124387550Y-56065000D03*
%TO.P,J2,3,3*%
%TO.N,Filament-*%
X124387550Y-53525000D03*
%TO.P,J2,4,4*%
%TO.N,Filament+*%
X124387550Y-50985000D03*
%TO.P,J2,5,5*%
%TO.N,Aux_in*%
X124387550Y-48445000D03*
%TO.P,J2,6,6*%
%TO.N,xfmr+*%
X121847550Y-58605000D03*
%TO.P,J2,7,7*%
%TO.N,GND*%
X121847550Y-56065000D03*
%TO.P,J2,8,8*%
%TO.N,Filament-*%
X121847550Y-53525000D03*
%TO.P,J2,9,9*%
%TO.N,Filament+*%
X121847550Y-50985000D03*
%TO.P,J2,10,10*%
%TO.N,Aux_in*%
X121847550Y-48445000D03*
%TD*%
D30*
%TO.N,Vol_out*%
X127462500Y-107103680D03*
%TD*%
D31*
%TO.N,Filament+*%
X121847550Y-50985000D02*
X124387550Y-50985000D01*
%TO.N,Filament-*%
X121847550Y-53525000D02*
X124387550Y-53525000D01*
D32*
%TO.N,Aux_in*%
X121847550Y-48445000D02*
X124387550Y-48445000D01*
%TO.N,xfmr+*%
X121847550Y-58605000D02*
X124387550Y-58605000D01*
D31*
%TO.N,Filament+*%
X150097500Y-40425000D02*
X137258820Y-40425000D01*
X137258820Y-40425000D02*
X126698820Y-50985000D01*
X126698820Y-50985000D02*
X124387550Y-50985000D01*
%TO.N,Filament-*%
X151997500Y-47405000D02*
X146817500Y-42225000D01*
X146817500Y-42225000D02*
X137858820Y-42225000D01*
X137858820Y-42225000D02*
X126558820Y-53525000D01*
X126558820Y-53525000D02*
X124387550Y-53525000D01*
%TO.N,Filament+*%
X114137500Y-88825000D02*
X114137500Y-58695050D01*
X114137500Y-58695050D02*
X121847550Y-50985000D01*
%TO.N,Filament-*%
X116137500Y-87825000D02*
X116137500Y-59235050D01*
X116137500Y-59235050D02*
X121847550Y-53525000D01*
%TO.N,Filament+*%
X167237500Y-89425000D02*
X172937500Y-95125000D01*
X172937500Y-95125000D02*
X172937500Y-105625000D01*
X172937500Y-105625000D02*
X170137500Y-108425000D01*
X170137500Y-108425000D02*
X133737500Y-108425000D01*
X133737500Y-108425000D02*
X114137500Y-88825000D01*
%TO.N,Filament-*%
X145647500Y-98315000D02*
X126627500Y-98315000D01*
X126627500Y-98315000D02*
X116137500Y-87825000D01*
D32*
%TO.N,Net-(U1A-K)*%
X167617500Y-49945000D02*
X168937500Y-48625000D01*
X167537500Y-55325000D02*
X167537500Y-66945000D01*
X162157500Y-49945000D02*
X167617500Y-49945000D01*
X162157500Y-49945000D02*
X167537500Y-55325000D01*
X167537500Y-66945000D02*
X169417500Y-68825000D01*
%TO.N,Net-(C1-Pad2)*%
X168337500Y-51225000D02*
X168337500Y-63025000D01*
X170937500Y-48625000D02*
X168337500Y-51225000D01*
X170417500Y-65105000D02*
X171937500Y-65105000D01*
X171937500Y-65105000D02*
X176937500Y-65105000D01*
X168337500Y-63025000D02*
X170417500Y-65105000D01*
%TO.N,Net-(U2A-K)*%
X200832612Y-47669888D02*
X198557500Y-49945000D01*
X203817500Y-55205000D02*
X198557500Y-49945000D01*
X206137500Y-47669888D02*
X200832612Y-47669888D01*
X203817500Y-69025000D02*
X203817500Y-55205000D01*
%TO.N,Net-(C2-Pad2)*%
X205262500Y-71103680D02*
X206662500Y-69703680D01*
X134264200Y-123625000D02*
X138785520Y-119103680D01*
X193262500Y-71103680D02*
X205262500Y-71103680D01*
X206137500Y-52525000D02*
X208537500Y-54925000D01*
X166662500Y-119103680D02*
X190062500Y-95703680D01*
X190062500Y-74303680D02*
X193262500Y-71103680D01*
X206137500Y-49669888D02*
X206137500Y-52525000D01*
X206137500Y-49669888D02*
X207292612Y-49669888D01*
X206662500Y-69703680D02*
X206662500Y-56800000D01*
X206662500Y-56800000D02*
X208537500Y-54925000D01*
X209492612Y-47469888D02*
X212337500Y-47469888D01*
X190062500Y-95703680D02*
X190062500Y-74303680D01*
X138785520Y-119103680D02*
X166662500Y-119103680D01*
X207292612Y-49669888D02*
X209492612Y-47469888D01*
%TO.N,Line_out*%
X215217500Y-74425000D02*
X215217500Y-79225000D01*
X215217500Y-74425000D02*
X215217500Y-72458680D01*
X215217500Y-52349888D02*
X212337500Y-49469888D01*
X215217500Y-74425000D02*
X215217500Y-52349888D01*
X215217500Y-72458680D02*
X213062500Y-70303680D01*
%TO.N,Net-(U1B-K)*%
X146457500Y-68825000D02*
X146457500Y-60565000D01*
X167262500Y-120103680D02*
X140325520Y-120103680D01*
X209062500Y-60450000D02*
X209062500Y-68303680D01*
X140325520Y-120103680D02*
X136804200Y-123625000D01*
X191862500Y-74903680D02*
X191862500Y-95503680D01*
X146457500Y-60565000D02*
X146917500Y-60105000D01*
X191862500Y-95503680D02*
X167262500Y-120103680D01*
X194662500Y-72103680D02*
X191862500Y-74903680D01*
X205262500Y-72103680D02*
X194662500Y-72103680D01*
X208537500Y-59925000D02*
X209062500Y-60450000D01*
X209062500Y-68303680D02*
X205262500Y-72103680D01*
%TO.N,Net-(C5-Pad2)*%
X188636580Y-120903680D02*
X191357900Y-123625000D01*
X182562500Y-120903680D02*
X188636580Y-120903680D01*
%TO.N,Tone_out*%
X179961180Y-118505000D02*
X177562500Y-120903680D01*
X216537500Y-118505000D02*
X179961180Y-118505000D01*
X174862500Y-120903680D02*
X174062500Y-121703680D01*
X217304900Y-119272400D02*
X216537500Y-118505000D01*
X217304900Y-123625000D02*
X217304900Y-119272400D01*
X177562500Y-120903680D02*
X174862500Y-120903680D01*
%TO.N,Net-(C6-Pad2)*%
X205057500Y-85908680D02*
X205057500Y-83825000D01*
X203837500Y-83825000D02*
X205057500Y-83825000D01*
X167341180Y-123625000D02*
X205057500Y-85908680D01*
X165410900Y-123625000D02*
X167341180Y-123625000D01*
X203837500Y-83825000D02*
X199337500Y-79325000D01*
%TO.N,Net-(C6-Pad1)*%
X193537500Y-95828680D02*
X168262500Y-121103680D01*
X160330900Y-122235280D02*
X160330900Y-123625000D01*
X197037500Y-74325000D02*
X193537500Y-77825000D01*
X199437500Y-74425000D02*
X199337500Y-74325000D01*
X199337500Y-74325000D02*
X197037500Y-74325000D01*
X168262500Y-121103680D02*
X161462500Y-121103680D01*
X205057500Y-74425000D02*
X199437500Y-74425000D01*
X161462500Y-121103680D02*
X160330900Y-122235280D01*
X193537500Y-77825000D02*
X193537500Y-95828680D01*
%TO.N,xfmr+*%
X246937500Y-59125000D02*
X248437500Y-59125000D01*
X253037500Y-124225000D02*
X248558820Y-128703680D01*
X238857500Y-34908680D02*
X238862500Y-34903680D01*
X233937500Y-39625000D02*
X236437500Y-42125000D01*
X236437500Y-48647220D02*
X225959720Y-59125000D01*
X236437500Y-42125000D02*
X236437500Y-48625000D01*
X238857500Y-39625000D02*
X238857500Y-34908680D01*
X236437500Y-48625000D02*
X246937500Y-59125000D01*
X236437500Y-48625000D02*
X236437500Y-48647220D01*
X248558820Y-128703680D02*
X242862500Y-128703680D01*
X242862500Y-128703680D02*
X239662500Y-125503680D01*
X238857500Y-39625000D02*
X233937500Y-39625000D01*
%TO.N,AC+*%
X256813500Y-103705000D02*
X254893500Y-105625000D01*
X259437500Y-41625000D02*
X260437500Y-42625000D01*
X257437500Y-39625000D02*
X249017500Y-39625000D01*
X260437500Y-84841000D02*
X254893500Y-90385000D01*
X254893500Y-90385000D02*
X256813500Y-92305000D01*
X259437500Y-41625000D02*
X257437500Y-39625000D01*
X249017500Y-39625000D02*
X249017500Y-44625000D01*
X256813500Y-92305000D02*
X256813500Y-103705000D01*
X260437500Y-42625000D02*
X260437500Y-84841000D01*
%TO.N,AC-*%
X254893500Y-85305000D02*
X252893500Y-87305000D01*
X226277500Y-42125000D02*
X231437500Y-42125000D01*
X252893500Y-87305000D02*
X252893500Y-98545000D01*
X231437500Y-42125000D02*
X233937500Y-44625000D01*
X254437500Y-49625000D02*
X252437500Y-51625000D01*
X223777500Y-39625000D02*
X226277500Y-42125000D01*
X254437500Y-41625000D02*
X254437500Y-49625000D01*
X252437500Y-51625000D02*
X252437500Y-82849000D01*
X252437500Y-82849000D02*
X254893500Y-85305000D01*
X252893500Y-98545000D02*
X254893500Y-100545000D01*
%TO.N,xfmr-*%
X243862500Y-124303680D02*
X243862500Y-125503680D01*
X256316180Y-122503680D02*
X245662500Y-122503680D01*
X258037500Y-124225000D02*
X256316180Y-122503680D01*
X245662500Y-122503680D02*
X243862500Y-124303680D01*
%TO.N,Aux_in*%
X139537500Y-52025000D02*
X138737500Y-51225000D01*
X139537500Y-56145000D02*
X139537500Y-52025000D01*
D31*
%TO.N,Filament-*%
X217537500Y-45425000D02*
X217537500Y-89825000D01*
X151997500Y-47405000D02*
X154696180Y-50103680D01*
X217537500Y-89825000D02*
X221537500Y-93825000D01*
X171462500Y-42025000D02*
X183017500Y-42025000D01*
X221537500Y-93825000D02*
X226737500Y-93825000D01*
X188397500Y-47405000D02*
X190235441Y-49242941D01*
X173062500Y-45703680D02*
X169383820Y-42025000D01*
X225937500Y-100545000D02*
X225937500Y-94625000D01*
X226737500Y-93825000D02*
X230537500Y-90025000D01*
X215737500Y-43625000D02*
X217537500Y-45425000D01*
X200537500Y-43625000D02*
X215737500Y-43625000D01*
X166137500Y-42025000D02*
X169383820Y-42025000D01*
X158737500Y-49425000D02*
X166137500Y-42025000D01*
X174662500Y-45703680D02*
X173062500Y-45703680D01*
X230537500Y-90025000D02*
X230537500Y-87225000D01*
X169383820Y-42025000D02*
X171462500Y-42025000D01*
X228617500Y-85305000D02*
X225937500Y-85305000D01*
X225937500Y-94625000D02*
X226737500Y-93825000D01*
X183017500Y-42025000D02*
X188397500Y-47405000D01*
X194919559Y-49242941D02*
X200537500Y-43625000D01*
X154696180Y-50103680D02*
X158062500Y-50103680D01*
X158737500Y-49428680D02*
X158737500Y-49425000D01*
X190235441Y-49242941D02*
X194919559Y-49242941D01*
X230537500Y-87225000D02*
X228617500Y-85305000D01*
X158062500Y-50103680D02*
X158737500Y-49428680D01*
%TO.N,Filament+*%
X225937500Y-105625000D02*
X232537500Y-99025000D01*
X150097500Y-40425000D02*
X157077500Y-47405000D01*
X232537500Y-99025000D02*
X232537500Y-86425000D01*
X221737500Y-81225000D02*
X219337500Y-78825000D01*
X186497500Y-40425000D02*
X193477500Y-47405000D01*
X219337500Y-83785000D02*
X225937500Y-90385000D01*
X193477500Y-47405000D02*
X198857500Y-42025000D01*
X227337500Y-81225000D02*
X221737500Y-81225000D01*
X169462500Y-40425000D02*
X172341180Y-40425000D01*
X172341180Y-40425000D02*
X174662500Y-38103680D01*
X219337500Y-44425000D02*
X219337500Y-78825000D01*
X216937500Y-42025000D02*
X219337500Y-44425000D01*
X232537500Y-86425000D02*
X227337500Y-81225000D01*
X219337500Y-78825000D02*
X219337500Y-83785000D01*
X169462500Y-40425000D02*
X186497500Y-40425000D01*
X198857500Y-42025000D02*
X216937500Y-42025000D01*
X150097500Y-40425000D02*
X169462500Y-40425000D01*
D32*
%TO.N,Net-(U1A-G)*%
X146917500Y-49945000D02*
X151997500Y-55025000D01*
X159257500Y-68825000D02*
X159257500Y-57925000D01*
X151997500Y-55025000D02*
X162157500Y-55025000D01*
X159257500Y-57925000D02*
X162157500Y-55025000D01*
%TO.N,Net-(U1B-G)*%
X134737500Y-65625000D02*
X145337500Y-55025000D01*
X145337500Y-55025000D02*
X146917500Y-55025000D01*
X134737500Y-66305000D02*
X134737500Y-65625000D01*
%TO.N,Net-(U2B-G)*%
X176937500Y-54945000D02*
X183237500Y-54945000D01*
X183237500Y-54945000D02*
X183317500Y-55025000D01*
%TO.N,Net-(U2B-K)*%
X180257500Y-63165000D02*
X183317500Y-60105000D01*
X180257500Y-69025000D02*
X180257500Y-63165000D01*
%TO.N,Net-(U2A-G)*%
X193657500Y-59925000D02*
X198557500Y-55025000D01*
X189257500Y-49945000D02*
X189737500Y-50425000D01*
X189737500Y-50425000D02*
X193957500Y-50425000D01*
X193957500Y-50425000D02*
X198557500Y-55025000D01*
X183317500Y-49945000D02*
X189257500Y-49945000D01*
X193657500Y-69025000D02*
X193657500Y-59925000D01*
%TO.N,Vol_out*%
X128862500Y-128103680D02*
X126662500Y-125903680D01*
X215366220Y-128103680D02*
X128862500Y-128103680D01*
X126662500Y-125903680D02*
X126662500Y-107903680D01*
X141837500Y-89425000D02*
X131417500Y-89425000D01*
X129537500Y-91305000D02*
X129537500Y-95425000D01*
X131417500Y-89425000D02*
X129537500Y-91305000D01*
X126662500Y-107903680D02*
X127462500Y-107103680D01*
X219844900Y-123625000D02*
X215366220Y-128103680D01*
%TO.N,Net-(U3A-F1)*%
X135137500Y-81075000D02*
X145107500Y-81075000D01*
X145107500Y-81075000D02*
X145647500Y-80535000D01*
%TD*%
M02*
