%TF.GenerationSoftware,KiCad,Pcbnew,9.0.6*%
%TF.CreationDate,2026-02-02T16:13:02-05:00*%
%TF.ProjectId,tubeAmp,74756265-416d-4702-9e6b-696361645f70,rev?*%
%TF.SameCoordinates,Original*%
%TF.FileFunction,Legend,Top*%
%TF.FilePolarity,Positive*%
%FSLAX46Y46*%
G04 Gerber Fmt 4.6, Leading zero omitted, Abs format (unit mm)*
G04 Created by KiCad (PCBNEW 9.0.6) date 2026-02-02 16:13:02*
%MOMM*%
%LPD*%
G01*
G04 APERTURE LIST*
%ADD10C,0.150000*%
%ADD11C,0.142240*%
%ADD12C,0.101600*%
%ADD13C,0.152400*%
%ADD14C,0.120000*%
%ADD15C,0.812800*%
%ADD16C,0.609600*%
%ADD17C,0.200000*%
%ADD18C,0.400000*%
%ADD19C,0.508000*%
G04 APERTURE END LIST*
D10*
X240320261Y-122175057D02*
X240225023Y-122127438D01*
X240225023Y-122127438D02*
X240129785Y-122032200D01*
X240129785Y-122032200D02*
X239986928Y-121889342D01*
X239986928Y-121889342D02*
X239891690Y-121841723D01*
X239891690Y-121841723D02*
X239796452Y-121841723D01*
X239844071Y-122079819D02*
X239748833Y-122032200D01*
X239748833Y-122032200D02*
X239653595Y-121936961D01*
X239653595Y-121936961D02*
X239605976Y-121746485D01*
X239605976Y-121746485D02*
X239605976Y-121413152D01*
X239605976Y-121413152D02*
X239653595Y-121222676D01*
X239653595Y-121222676D02*
X239748833Y-121127438D01*
X239748833Y-121127438D02*
X239844071Y-121079819D01*
X239844071Y-121079819D02*
X240034547Y-121079819D01*
X240034547Y-121079819D02*
X240129785Y-121127438D01*
X240129785Y-121127438D02*
X240225023Y-121222676D01*
X240225023Y-121222676D02*
X240272642Y-121413152D01*
X240272642Y-121413152D02*
X240272642Y-121746485D01*
X240272642Y-121746485D02*
X240225023Y-121936961D01*
X240225023Y-121936961D02*
X240129785Y-122032200D01*
X240129785Y-122032200D02*
X240034547Y-122079819D01*
X240034547Y-122079819D02*
X239844071Y-122079819D01*
X241225023Y-122079819D02*
X240653595Y-122079819D01*
X240939309Y-122079819D02*
X240939309Y-121079819D01*
X240939309Y-121079819D02*
X240844071Y-121222676D01*
X240844071Y-121222676D02*
X240748833Y-121317914D01*
X240748833Y-121317914D02*
X240653595Y-121365533D01*
X254893500Y-106680019D02*
X254893500Y-106918114D01*
X254655405Y-106822876D02*
X254893500Y-106918114D01*
X254893500Y-106918114D02*
X255131595Y-106822876D01*
X254750643Y-107108590D02*
X254893500Y-106918114D01*
X254893500Y-106918114D02*
X255036357Y-107108590D01*
X254893499Y-107770380D02*
X254893499Y-107532285D01*
X255131594Y-107627523D02*
X254893499Y-107532285D01*
X254893499Y-107532285D02*
X254655404Y-107627523D01*
X255036356Y-107341809D02*
X254893499Y-107532285D01*
X254893499Y-107532285D02*
X254750642Y-107341809D01*
X186892719Y-124220238D02*
X186416528Y-124553571D01*
X186892719Y-124791666D02*
X185892719Y-124791666D01*
X185892719Y-124791666D02*
X185892719Y-124410714D01*
X185892719Y-124410714D02*
X185940338Y-124315476D01*
X185940338Y-124315476D02*
X185987957Y-124267857D01*
X185987957Y-124267857D02*
X186083195Y-124220238D01*
X186083195Y-124220238D02*
X186226052Y-124220238D01*
X186226052Y-124220238D02*
X186321290Y-124267857D01*
X186321290Y-124267857D02*
X186368909Y-124315476D01*
X186368909Y-124315476D02*
X186416528Y-124410714D01*
X186416528Y-124410714D02*
X186416528Y-124791666D01*
X185892719Y-123934523D02*
X186892719Y-123601190D01*
X186892719Y-123601190D02*
X185892719Y-123267857D01*
X185892719Y-123029761D02*
X185892719Y-122410714D01*
X185892719Y-122410714D02*
X186273671Y-122744047D01*
X186273671Y-122744047D02*
X186273671Y-122601190D01*
X186273671Y-122601190D02*
X186321290Y-122505952D01*
X186321290Y-122505952D02*
X186368909Y-122458333D01*
X186368909Y-122458333D02*
X186464147Y-122410714D01*
X186464147Y-122410714D02*
X186702242Y-122410714D01*
X186702242Y-122410714D02*
X186797480Y-122458333D01*
X186797480Y-122458333D02*
X186845100Y-122505952D01*
X186845100Y-122505952D02*
X186892719Y-122601190D01*
X186892719Y-122601190D02*
X186892719Y-122886904D01*
X186892719Y-122886904D02*
X186845100Y-122982142D01*
X186845100Y-122982142D02*
X186797480Y-123029761D01*
X173400595Y-35910499D02*
X173972023Y-35910499D01*
X173686309Y-36910499D02*
X173686309Y-35910499D01*
X174305357Y-36910499D02*
X174305357Y-35910499D01*
X174305357Y-35910499D02*
X174686309Y-35910499D01*
X174686309Y-35910499D02*
X174781547Y-35958118D01*
X174781547Y-35958118D02*
X174829166Y-36005737D01*
X174829166Y-36005737D02*
X174876785Y-36100975D01*
X174876785Y-36100975D02*
X174876785Y-36243832D01*
X174876785Y-36243832D02*
X174829166Y-36339070D01*
X174829166Y-36339070D02*
X174781547Y-36386689D01*
X174781547Y-36386689D02*
X174686309Y-36434308D01*
X174686309Y-36434308D02*
X174305357Y-36434308D01*
X175448214Y-36339070D02*
X175352976Y-36291451D01*
X175352976Y-36291451D02*
X175305357Y-36243832D01*
X175305357Y-36243832D02*
X175257738Y-36148594D01*
X175257738Y-36148594D02*
X175257738Y-36100975D01*
X175257738Y-36100975D02*
X175305357Y-36005737D01*
X175305357Y-36005737D02*
X175352976Y-35958118D01*
X175352976Y-35958118D02*
X175448214Y-35910499D01*
X175448214Y-35910499D02*
X175638690Y-35910499D01*
X175638690Y-35910499D02*
X175733928Y-35958118D01*
X175733928Y-35958118D02*
X175781547Y-36005737D01*
X175781547Y-36005737D02*
X175829166Y-36100975D01*
X175829166Y-36100975D02*
X175829166Y-36148594D01*
X175829166Y-36148594D02*
X175781547Y-36243832D01*
X175781547Y-36243832D02*
X175733928Y-36291451D01*
X175733928Y-36291451D02*
X175638690Y-36339070D01*
X175638690Y-36339070D02*
X175448214Y-36339070D01*
X175448214Y-36339070D02*
X175352976Y-36386689D01*
X175352976Y-36386689D02*
X175305357Y-36434308D01*
X175305357Y-36434308D02*
X175257738Y-36529546D01*
X175257738Y-36529546D02*
X175257738Y-36720022D01*
X175257738Y-36720022D02*
X175305357Y-36815260D01*
X175305357Y-36815260D02*
X175352976Y-36862880D01*
X175352976Y-36862880D02*
X175448214Y-36910499D01*
X175448214Y-36910499D02*
X175638690Y-36910499D01*
X175638690Y-36910499D02*
X175733928Y-36862880D01*
X175733928Y-36862880D02*
X175781547Y-36815260D01*
X175781547Y-36815260D02*
X175829166Y-36720022D01*
X175829166Y-36720022D02*
X175829166Y-36529546D01*
X175829166Y-36529546D02*
X175781547Y-36434308D01*
X175781547Y-36434308D02*
X175733928Y-36386689D01*
X175733928Y-36386689D02*
X175638690Y-36339070D01*
X243199405Y-37579819D02*
X243199405Y-36579819D01*
X243199405Y-36579819D02*
X243437500Y-36579819D01*
X243437500Y-36579819D02*
X243580357Y-36627438D01*
X243580357Y-36627438D02*
X243675595Y-36722676D01*
X243675595Y-36722676D02*
X243723214Y-36817914D01*
X243723214Y-36817914D02*
X243770833Y-37008390D01*
X243770833Y-37008390D02*
X243770833Y-37151247D01*
X243770833Y-37151247D02*
X243723214Y-37341723D01*
X243723214Y-37341723D02*
X243675595Y-37436961D01*
X243675595Y-37436961D02*
X243580357Y-37532200D01*
X243580357Y-37532200D02*
X243437500Y-37579819D01*
X243437500Y-37579819D02*
X243199405Y-37579819D01*
X244723214Y-37579819D02*
X244151786Y-37579819D01*
X244437500Y-37579819D02*
X244437500Y-36579819D01*
X244437500Y-36579819D02*
X244342262Y-36722676D01*
X244342262Y-36722676D02*
X244247024Y-36817914D01*
X244247024Y-36817914D02*
X244151786Y-36865533D01*
X137475595Y-49031819D02*
X138047023Y-49031819D01*
X137761309Y-50031819D02*
X137761309Y-49031819D01*
X138380357Y-50031819D02*
X138380357Y-49031819D01*
X138380357Y-49031819D02*
X138761309Y-49031819D01*
X138761309Y-49031819D02*
X138856547Y-49079438D01*
X138856547Y-49079438D02*
X138904166Y-49127057D01*
X138904166Y-49127057D02*
X138951785Y-49222295D01*
X138951785Y-49222295D02*
X138951785Y-49365152D01*
X138951785Y-49365152D02*
X138904166Y-49460390D01*
X138904166Y-49460390D02*
X138856547Y-49508009D01*
X138856547Y-49508009D02*
X138761309Y-49555628D01*
X138761309Y-49555628D02*
X138380357Y-49555628D01*
X139904166Y-50031819D02*
X139332738Y-50031819D01*
X139618452Y-50031819D02*
X139618452Y-49031819D01*
X139618452Y-49031819D02*
X139523214Y-49174676D01*
X139523214Y-49174676D02*
X139427976Y-49269914D01*
X139427976Y-49269914D02*
X139332738Y-49317533D01*
X132792319Y-61391666D02*
X132316128Y-61724999D01*
X132792319Y-61963094D02*
X131792319Y-61963094D01*
X131792319Y-61963094D02*
X131792319Y-61582142D01*
X131792319Y-61582142D02*
X131839938Y-61486904D01*
X131839938Y-61486904D02*
X131887557Y-61439285D01*
X131887557Y-61439285D02*
X131982795Y-61391666D01*
X131982795Y-61391666D02*
X132125652Y-61391666D01*
X132125652Y-61391666D02*
X132220890Y-61439285D01*
X132220890Y-61439285D02*
X132268509Y-61486904D01*
X132268509Y-61486904D02*
X132316128Y-61582142D01*
X132316128Y-61582142D02*
X132316128Y-61963094D01*
X131887557Y-61010713D02*
X131839938Y-60963094D01*
X131839938Y-60963094D02*
X131792319Y-60867856D01*
X131792319Y-60867856D02*
X131792319Y-60629761D01*
X131792319Y-60629761D02*
X131839938Y-60534523D01*
X131839938Y-60534523D02*
X131887557Y-60486904D01*
X131887557Y-60486904D02*
X131982795Y-60439285D01*
X131982795Y-60439285D02*
X132078033Y-60439285D01*
X132078033Y-60439285D02*
X132220890Y-60486904D01*
X132220890Y-60486904D02*
X132792319Y-61058332D01*
X132792319Y-61058332D02*
X132792319Y-60439285D01*
X252020833Y-49234580D02*
X251973214Y-49282200D01*
X251973214Y-49282200D02*
X251830357Y-49329819D01*
X251830357Y-49329819D02*
X251735119Y-49329819D01*
X251735119Y-49329819D02*
X251592262Y-49282200D01*
X251592262Y-49282200D02*
X251497024Y-49186961D01*
X251497024Y-49186961D02*
X251449405Y-49091723D01*
X251449405Y-49091723D02*
X251401786Y-48901247D01*
X251401786Y-48901247D02*
X251401786Y-48758390D01*
X251401786Y-48758390D02*
X251449405Y-48567914D01*
X251449405Y-48567914D02*
X251497024Y-48472676D01*
X251497024Y-48472676D02*
X251592262Y-48377438D01*
X251592262Y-48377438D02*
X251735119Y-48329819D01*
X251735119Y-48329819D02*
X251830357Y-48329819D01*
X251830357Y-48329819D02*
X251973214Y-48377438D01*
X251973214Y-48377438D02*
X252020833Y-48425057D01*
X252592262Y-48758390D02*
X252497024Y-48710771D01*
X252497024Y-48710771D02*
X252449405Y-48663152D01*
X252449405Y-48663152D02*
X252401786Y-48567914D01*
X252401786Y-48567914D02*
X252401786Y-48520295D01*
X252401786Y-48520295D02*
X252449405Y-48425057D01*
X252449405Y-48425057D02*
X252497024Y-48377438D01*
X252497024Y-48377438D02*
X252592262Y-48329819D01*
X252592262Y-48329819D02*
X252782738Y-48329819D01*
X252782738Y-48329819D02*
X252877976Y-48377438D01*
X252877976Y-48377438D02*
X252925595Y-48425057D01*
X252925595Y-48425057D02*
X252973214Y-48520295D01*
X252973214Y-48520295D02*
X252973214Y-48567914D01*
X252973214Y-48567914D02*
X252925595Y-48663152D01*
X252925595Y-48663152D02*
X252877976Y-48710771D01*
X252877976Y-48710771D02*
X252782738Y-48758390D01*
X252782738Y-48758390D02*
X252592262Y-48758390D01*
X252592262Y-48758390D02*
X252497024Y-48806009D01*
X252497024Y-48806009D02*
X252449405Y-48853628D01*
X252449405Y-48853628D02*
X252401786Y-48948866D01*
X252401786Y-48948866D02*
X252401786Y-49139342D01*
X252401786Y-49139342D02*
X252449405Y-49234580D01*
X252449405Y-49234580D02*
X252497024Y-49282200D01*
X252497024Y-49282200D02*
X252592262Y-49329819D01*
X252592262Y-49329819D02*
X252782738Y-49329819D01*
X252782738Y-49329819D02*
X252877976Y-49282200D01*
X252877976Y-49282200D02*
X252925595Y-49234580D01*
X252925595Y-49234580D02*
X252973214Y-49139342D01*
X252973214Y-49139342D02*
X252973214Y-48948866D01*
X252973214Y-48948866D02*
X252925595Y-48853628D01*
X252925595Y-48853628D02*
X252877976Y-48806009D01*
X252877976Y-48806009D02*
X252782738Y-48758390D01*
X127622319Y-86867857D02*
X127146128Y-87201190D01*
X127622319Y-87439285D02*
X126622319Y-87439285D01*
X126622319Y-87439285D02*
X126622319Y-87058333D01*
X126622319Y-87058333D02*
X126669938Y-86963095D01*
X126669938Y-86963095D02*
X126717557Y-86915476D01*
X126717557Y-86915476D02*
X126812795Y-86867857D01*
X126812795Y-86867857D02*
X126955652Y-86867857D01*
X126955652Y-86867857D02*
X127050890Y-86915476D01*
X127050890Y-86915476D02*
X127098509Y-86963095D01*
X127098509Y-86963095D02*
X127146128Y-87058333D01*
X127146128Y-87058333D02*
X127146128Y-87439285D01*
X127622319Y-85915476D02*
X127622319Y-86486904D01*
X127622319Y-86201190D02*
X126622319Y-86201190D01*
X126622319Y-86201190D02*
X126765176Y-86296428D01*
X126765176Y-86296428D02*
X126860414Y-86391666D01*
X126860414Y-86391666D02*
X126908033Y-86486904D01*
X126622319Y-85010714D02*
X126622319Y-85486904D01*
X126622319Y-85486904D02*
X127098509Y-85534523D01*
X127098509Y-85534523D02*
X127050890Y-85486904D01*
X127050890Y-85486904D02*
X127003271Y-85391666D01*
X127003271Y-85391666D02*
X127003271Y-85153571D01*
X127003271Y-85153571D02*
X127050890Y-85058333D01*
X127050890Y-85058333D02*
X127098509Y-85010714D01*
X127098509Y-85010714D02*
X127193747Y-84963095D01*
X127193747Y-84963095D02*
X127431842Y-84963095D01*
X127431842Y-84963095D02*
X127527080Y-85010714D01*
X127527080Y-85010714D02*
X127574700Y-85058333D01*
X127574700Y-85058333D02*
X127622319Y-85153571D01*
X127622319Y-85153571D02*
X127622319Y-85391666D01*
X127622319Y-85391666D02*
X127574700Y-85486904D01*
X127574700Y-85486904D02*
X127527080Y-85534523D01*
X212170833Y-52584580D02*
X212123214Y-52632200D01*
X212123214Y-52632200D02*
X211980357Y-52679819D01*
X211980357Y-52679819D02*
X211885119Y-52679819D01*
X211885119Y-52679819D02*
X211742262Y-52632200D01*
X211742262Y-52632200D02*
X211647024Y-52536961D01*
X211647024Y-52536961D02*
X211599405Y-52441723D01*
X211599405Y-52441723D02*
X211551786Y-52251247D01*
X211551786Y-52251247D02*
X211551786Y-52108390D01*
X211551786Y-52108390D02*
X211599405Y-51917914D01*
X211599405Y-51917914D02*
X211647024Y-51822676D01*
X211647024Y-51822676D02*
X211742262Y-51727438D01*
X211742262Y-51727438D02*
X211885119Y-51679819D01*
X211885119Y-51679819D02*
X211980357Y-51679819D01*
X211980357Y-51679819D02*
X212123214Y-51727438D01*
X212123214Y-51727438D02*
X212170833Y-51775057D01*
X212504167Y-51679819D02*
X213123214Y-51679819D01*
X213123214Y-51679819D02*
X212789881Y-52060771D01*
X212789881Y-52060771D02*
X212932738Y-52060771D01*
X212932738Y-52060771D02*
X213027976Y-52108390D01*
X213027976Y-52108390D02*
X213075595Y-52156009D01*
X213075595Y-52156009D02*
X213123214Y-52251247D01*
X213123214Y-52251247D02*
X213123214Y-52489342D01*
X213123214Y-52489342D02*
X213075595Y-52584580D01*
X213075595Y-52584580D02*
X213027976Y-52632200D01*
X213027976Y-52632200D02*
X212932738Y-52679819D01*
X212932738Y-52679819D02*
X212647024Y-52679819D01*
X212647024Y-52679819D02*
X212551786Y-52632200D01*
X212551786Y-52632200D02*
X212504167Y-52584580D01*
X242600595Y-123310499D02*
X243172023Y-123310499D01*
X242886309Y-124310499D02*
X242886309Y-123310499D01*
X243505357Y-124310499D02*
X243505357Y-123310499D01*
X243505357Y-123310499D02*
X243886309Y-123310499D01*
X243886309Y-123310499D02*
X243981547Y-123358118D01*
X243981547Y-123358118D02*
X244029166Y-123405737D01*
X244029166Y-123405737D02*
X244076785Y-123500975D01*
X244076785Y-123500975D02*
X244076785Y-123643832D01*
X244076785Y-123643832D02*
X244029166Y-123739070D01*
X244029166Y-123739070D02*
X243981547Y-123786689D01*
X243981547Y-123786689D02*
X243886309Y-123834308D01*
X243886309Y-123834308D02*
X243505357Y-123834308D01*
X244933928Y-123310499D02*
X244743452Y-123310499D01*
X244743452Y-123310499D02*
X244648214Y-123358118D01*
X244648214Y-123358118D02*
X244600595Y-123405737D01*
X244600595Y-123405737D02*
X244505357Y-123548594D01*
X244505357Y-123548594D02*
X244457738Y-123739070D01*
X244457738Y-123739070D02*
X244457738Y-124120022D01*
X244457738Y-124120022D02*
X244505357Y-124215260D01*
X244505357Y-124215260D02*
X244552976Y-124262880D01*
X244552976Y-124262880D02*
X244648214Y-124310499D01*
X244648214Y-124310499D02*
X244838690Y-124310499D01*
X244838690Y-124310499D02*
X244933928Y-124262880D01*
X244933928Y-124262880D02*
X244981547Y-124215260D01*
X244981547Y-124215260D02*
X245029166Y-124120022D01*
X245029166Y-124120022D02*
X245029166Y-123881927D01*
X245029166Y-123881927D02*
X244981547Y-123786689D01*
X244981547Y-123786689D02*
X244933928Y-123739070D01*
X244933928Y-123739070D02*
X244838690Y-123691451D01*
X244838690Y-123691451D02*
X244648214Y-123691451D01*
X244648214Y-123691451D02*
X244552976Y-123739070D01*
X244552976Y-123739070D02*
X244505357Y-123786689D01*
X244505357Y-123786689D02*
X244457738Y-123881927D01*
X209494642Y-86509819D02*
X209161309Y-86033628D01*
X208923214Y-86509819D02*
X208923214Y-85509819D01*
X208923214Y-85509819D02*
X209304166Y-85509819D01*
X209304166Y-85509819D02*
X209399404Y-85557438D01*
X209399404Y-85557438D02*
X209447023Y-85605057D01*
X209447023Y-85605057D02*
X209494642Y-85700295D01*
X209494642Y-85700295D02*
X209494642Y-85843152D01*
X209494642Y-85843152D02*
X209447023Y-85938390D01*
X209447023Y-85938390D02*
X209399404Y-85986009D01*
X209399404Y-85986009D02*
X209304166Y-86033628D01*
X209304166Y-86033628D02*
X208923214Y-86033628D01*
X210447023Y-86509819D02*
X209875595Y-86509819D01*
X210161309Y-86509819D02*
X210161309Y-85509819D01*
X210161309Y-85509819D02*
X210066071Y-85652676D01*
X210066071Y-85652676D02*
X209970833Y-85747914D01*
X209970833Y-85747914D02*
X209875595Y-85795533D01*
X211304166Y-85843152D02*
X211304166Y-86509819D01*
X211066071Y-85462200D02*
X210827976Y-86176485D01*
X210827976Y-86176485D02*
X211447023Y-86176485D01*
X228119405Y-47549819D02*
X228119405Y-46549819D01*
X228119405Y-46549819D02*
X228357500Y-46549819D01*
X228357500Y-46549819D02*
X228500357Y-46597438D01*
X228500357Y-46597438D02*
X228595595Y-46692676D01*
X228595595Y-46692676D02*
X228643214Y-46787914D01*
X228643214Y-46787914D02*
X228690833Y-46978390D01*
X228690833Y-46978390D02*
X228690833Y-47121247D01*
X228690833Y-47121247D02*
X228643214Y-47311723D01*
X228643214Y-47311723D02*
X228595595Y-47406961D01*
X228595595Y-47406961D02*
X228500357Y-47502200D01*
X228500357Y-47502200D02*
X228357500Y-47549819D01*
X228357500Y-47549819D02*
X228119405Y-47549819D01*
X229024167Y-46549819D02*
X229643214Y-46549819D01*
X229643214Y-46549819D02*
X229309881Y-46930771D01*
X229309881Y-46930771D02*
X229452738Y-46930771D01*
X229452738Y-46930771D02*
X229547976Y-46978390D01*
X229547976Y-46978390D02*
X229595595Y-47026009D01*
X229595595Y-47026009D02*
X229643214Y-47121247D01*
X229643214Y-47121247D02*
X229643214Y-47359342D01*
X229643214Y-47359342D02*
X229595595Y-47454580D01*
X229595595Y-47454580D02*
X229547976Y-47502200D01*
X229547976Y-47502200D02*
X229452738Y-47549819D01*
X229452738Y-47549819D02*
X229167024Y-47549819D01*
X229167024Y-47549819D02*
X229071786Y-47502200D01*
X229071786Y-47502200D02*
X229024167Y-47454580D01*
X209494642Y-82079819D02*
X209161309Y-81603628D01*
X208923214Y-82079819D02*
X208923214Y-81079819D01*
X208923214Y-81079819D02*
X209304166Y-81079819D01*
X209304166Y-81079819D02*
X209399404Y-81127438D01*
X209399404Y-81127438D02*
X209447023Y-81175057D01*
X209447023Y-81175057D02*
X209494642Y-81270295D01*
X209494642Y-81270295D02*
X209494642Y-81413152D01*
X209494642Y-81413152D02*
X209447023Y-81508390D01*
X209447023Y-81508390D02*
X209399404Y-81556009D01*
X209399404Y-81556009D02*
X209304166Y-81603628D01*
X209304166Y-81603628D02*
X208923214Y-81603628D01*
X210447023Y-82079819D02*
X209875595Y-82079819D01*
X210161309Y-82079819D02*
X210161309Y-81079819D01*
X210161309Y-81079819D02*
X210066071Y-81222676D01*
X210066071Y-81222676D02*
X209970833Y-81317914D01*
X209970833Y-81317914D02*
X209875595Y-81365533D01*
X211066071Y-81079819D02*
X211161309Y-81079819D01*
X211161309Y-81079819D02*
X211256547Y-81127438D01*
X211256547Y-81127438D02*
X211304166Y-81175057D01*
X211304166Y-81175057D02*
X211351785Y-81270295D01*
X211351785Y-81270295D02*
X211399404Y-81460771D01*
X211399404Y-81460771D02*
X211399404Y-81698866D01*
X211399404Y-81698866D02*
X211351785Y-81889342D01*
X211351785Y-81889342D02*
X211304166Y-81984580D01*
X211304166Y-81984580D02*
X211256547Y-82032200D01*
X211256547Y-82032200D02*
X211161309Y-82079819D01*
X211161309Y-82079819D02*
X211066071Y-82079819D01*
X211066071Y-82079819D02*
X210970833Y-82032200D01*
X210970833Y-82032200D02*
X210923214Y-81984580D01*
X210923214Y-81984580D02*
X210875595Y-81889342D01*
X210875595Y-81889342D02*
X210827976Y-81698866D01*
X210827976Y-81698866D02*
X210827976Y-81460771D01*
X210827976Y-81460771D02*
X210875595Y-81270295D01*
X210875595Y-81270295D02*
X210923214Y-81175057D01*
X210923214Y-81175057D02*
X210970833Y-81127438D01*
X210970833Y-81127438D02*
X211066071Y-81079819D01*
X229543053Y-49234580D02*
X229495434Y-49282200D01*
X229495434Y-49282200D02*
X229352577Y-49329819D01*
X229352577Y-49329819D02*
X229257339Y-49329819D01*
X229257339Y-49329819D02*
X229114482Y-49282200D01*
X229114482Y-49282200D02*
X229019244Y-49186961D01*
X229019244Y-49186961D02*
X228971625Y-49091723D01*
X228971625Y-49091723D02*
X228924006Y-48901247D01*
X228924006Y-48901247D02*
X228924006Y-48758390D01*
X228924006Y-48758390D02*
X228971625Y-48567914D01*
X228971625Y-48567914D02*
X229019244Y-48472676D01*
X229019244Y-48472676D02*
X229114482Y-48377438D01*
X229114482Y-48377438D02*
X229257339Y-48329819D01*
X229257339Y-48329819D02*
X229352577Y-48329819D01*
X229352577Y-48329819D02*
X229495434Y-48377438D01*
X229495434Y-48377438D02*
X229543053Y-48425057D01*
X229876387Y-48329819D02*
X230543053Y-48329819D01*
X230543053Y-48329819D02*
X230114482Y-49329819D01*
X209570833Y-72279819D02*
X209237500Y-71803628D01*
X208999405Y-72279819D02*
X208999405Y-71279819D01*
X208999405Y-71279819D02*
X209380357Y-71279819D01*
X209380357Y-71279819D02*
X209475595Y-71327438D01*
X209475595Y-71327438D02*
X209523214Y-71375057D01*
X209523214Y-71375057D02*
X209570833Y-71470295D01*
X209570833Y-71470295D02*
X209570833Y-71613152D01*
X209570833Y-71613152D02*
X209523214Y-71708390D01*
X209523214Y-71708390D02*
X209475595Y-71756009D01*
X209475595Y-71756009D02*
X209380357Y-71803628D01*
X209380357Y-71803628D02*
X208999405Y-71803628D01*
X210047024Y-72279819D02*
X210237500Y-72279819D01*
X210237500Y-72279819D02*
X210332738Y-72232200D01*
X210332738Y-72232200D02*
X210380357Y-72184580D01*
X210380357Y-72184580D02*
X210475595Y-72041723D01*
X210475595Y-72041723D02*
X210523214Y-71851247D01*
X210523214Y-71851247D02*
X210523214Y-71470295D01*
X210523214Y-71470295D02*
X210475595Y-71375057D01*
X210475595Y-71375057D02*
X210427976Y-71327438D01*
X210427976Y-71327438D02*
X210332738Y-71279819D01*
X210332738Y-71279819D02*
X210142262Y-71279819D01*
X210142262Y-71279819D02*
X210047024Y-71327438D01*
X210047024Y-71327438D02*
X209999405Y-71375057D01*
X209999405Y-71375057D02*
X209951786Y-71470295D01*
X209951786Y-71470295D02*
X209951786Y-71708390D01*
X209951786Y-71708390D02*
X209999405Y-71803628D01*
X209999405Y-71803628D02*
X210047024Y-71851247D01*
X210047024Y-71851247D02*
X210142262Y-71898866D01*
X210142262Y-71898866D02*
X210332738Y-71898866D01*
X210332738Y-71898866D02*
X210427976Y-71851247D01*
X210427976Y-71851247D02*
X210475595Y-71803628D01*
X210475595Y-71803628D02*
X210523214Y-71708390D01*
X215379719Y-124220238D02*
X214903528Y-124553571D01*
X215379719Y-124791666D02*
X214379719Y-124791666D01*
X214379719Y-124791666D02*
X214379719Y-124410714D01*
X214379719Y-124410714D02*
X214427338Y-124315476D01*
X214427338Y-124315476D02*
X214474957Y-124267857D01*
X214474957Y-124267857D02*
X214570195Y-124220238D01*
X214570195Y-124220238D02*
X214713052Y-124220238D01*
X214713052Y-124220238D02*
X214808290Y-124267857D01*
X214808290Y-124267857D02*
X214855909Y-124315476D01*
X214855909Y-124315476D02*
X214903528Y-124410714D01*
X214903528Y-124410714D02*
X214903528Y-124791666D01*
X214379719Y-123934523D02*
X215379719Y-123601190D01*
X215379719Y-123601190D02*
X214379719Y-123267857D01*
X214713052Y-122505952D02*
X215379719Y-122505952D01*
X214332100Y-122744047D02*
X215046385Y-122982142D01*
X215046385Y-122982142D02*
X215046385Y-122363095D01*
X237600595Y-32710499D02*
X238172023Y-32710499D01*
X237886309Y-33710499D02*
X237886309Y-32710499D01*
X238505357Y-33710499D02*
X238505357Y-32710499D01*
X238505357Y-32710499D02*
X238886309Y-32710499D01*
X238886309Y-32710499D02*
X238981547Y-32758118D01*
X238981547Y-32758118D02*
X239029166Y-32805737D01*
X239029166Y-32805737D02*
X239076785Y-32900975D01*
X239076785Y-32900975D02*
X239076785Y-33043832D01*
X239076785Y-33043832D02*
X239029166Y-33139070D01*
X239029166Y-33139070D02*
X238981547Y-33186689D01*
X238981547Y-33186689D02*
X238886309Y-33234308D01*
X238886309Y-33234308D02*
X238505357Y-33234308D01*
X239410119Y-32710499D02*
X240076785Y-32710499D01*
X240076785Y-32710499D02*
X239648214Y-33710499D01*
X228119405Y-37579819D02*
X228119405Y-36579819D01*
X228119405Y-36579819D02*
X228357500Y-36579819D01*
X228357500Y-36579819D02*
X228500357Y-36627438D01*
X228500357Y-36627438D02*
X228595595Y-36722676D01*
X228595595Y-36722676D02*
X228643214Y-36817914D01*
X228643214Y-36817914D02*
X228690833Y-37008390D01*
X228690833Y-37008390D02*
X228690833Y-37151247D01*
X228690833Y-37151247D02*
X228643214Y-37341723D01*
X228643214Y-37341723D02*
X228595595Y-37436961D01*
X228595595Y-37436961D02*
X228500357Y-37532200D01*
X228500357Y-37532200D02*
X228357500Y-37579819D01*
X228357500Y-37579819D02*
X228119405Y-37579819D01*
X229071786Y-36675057D02*
X229119405Y-36627438D01*
X229119405Y-36627438D02*
X229214643Y-36579819D01*
X229214643Y-36579819D02*
X229452738Y-36579819D01*
X229452738Y-36579819D02*
X229547976Y-36627438D01*
X229547976Y-36627438D02*
X229595595Y-36675057D01*
X229595595Y-36675057D02*
X229643214Y-36770295D01*
X229643214Y-36770295D02*
X229643214Y-36865533D01*
X229643214Y-36865533D02*
X229595595Y-37008390D01*
X229595595Y-37008390D02*
X229024167Y-37579819D01*
X229024167Y-37579819D02*
X229643214Y-37579819D01*
X181695833Y-117463260D02*
X181648214Y-117510880D01*
X181648214Y-117510880D02*
X181505357Y-117558499D01*
X181505357Y-117558499D02*
X181410119Y-117558499D01*
X181410119Y-117558499D02*
X181267262Y-117510880D01*
X181267262Y-117510880D02*
X181172024Y-117415641D01*
X181172024Y-117415641D02*
X181124405Y-117320403D01*
X181124405Y-117320403D02*
X181076786Y-117129927D01*
X181076786Y-117129927D02*
X181076786Y-116987070D01*
X181076786Y-116987070D02*
X181124405Y-116796594D01*
X181124405Y-116796594D02*
X181172024Y-116701356D01*
X181172024Y-116701356D02*
X181267262Y-116606118D01*
X181267262Y-116606118D02*
X181410119Y-116558499D01*
X181410119Y-116558499D02*
X181505357Y-116558499D01*
X181505357Y-116558499D02*
X181648214Y-116606118D01*
X181648214Y-116606118D02*
X181695833Y-116653737D01*
X182600595Y-116558499D02*
X182124405Y-116558499D01*
X182124405Y-116558499D02*
X182076786Y-117034689D01*
X182076786Y-117034689D02*
X182124405Y-116987070D01*
X182124405Y-116987070D02*
X182219643Y-116939451D01*
X182219643Y-116939451D02*
X182457738Y-116939451D01*
X182457738Y-116939451D02*
X182552976Y-116987070D01*
X182552976Y-116987070D02*
X182600595Y-117034689D01*
X182600595Y-117034689D02*
X182648214Y-117129927D01*
X182648214Y-117129927D02*
X182648214Y-117368022D01*
X182648214Y-117368022D02*
X182600595Y-117463260D01*
X182600595Y-117463260D02*
X182552976Y-117510880D01*
X182552976Y-117510880D02*
X182457738Y-117558499D01*
X182457738Y-117558499D02*
X182219643Y-117558499D01*
X182219643Y-117558499D02*
X182124405Y-117510880D01*
X182124405Y-117510880D02*
X182076786Y-117463260D01*
X173400595Y-43510499D02*
X173972023Y-43510499D01*
X173686309Y-44510499D02*
X173686309Y-43510499D01*
X174305357Y-44510499D02*
X174305357Y-43510499D01*
X174305357Y-43510499D02*
X174686309Y-43510499D01*
X174686309Y-43510499D02*
X174781547Y-43558118D01*
X174781547Y-43558118D02*
X174829166Y-43605737D01*
X174829166Y-43605737D02*
X174876785Y-43700975D01*
X174876785Y-43700975D02*
X174876785Y-43843832D01*
X174876785Y-43843832D02*
X174829166Y-43939070D01*
X174829166Y-43939070D02*
X174781547Y-43986689D01*
X174781547Y-43986689D02*
X174686309Y-44034308D01*
X174686309Y-44034308D02*
X174305357Y-44034308D01*
X175352976Y-44510499D02*
X175543452Y-44510499D01*
X175543452Y-44510499D02*
X175638690Y-44462880D01*
X175638690Y-44462880D02*
X175686309Y-44415260D01*
X175686309Y-44415260D02*
X175781547Y-44272403D01*
X175781547Y-44272403D02*
X175829166Y-44081927D01*
X175829166Y-44081927D02*
X175829166Y-43700975D01*
X175829166Y-43700975D02*
X175781547Y-43605737D01*
X175781547Y-43605737D02*
X175733928Y-43558118D01*
X175733928Y-43558118D02*
X175638690Y-43510499D01*
X175638690Y-43510499D02*
X175448214Y-43510499D01*
X175448214Y-43510499D02*
X175352976Y-43558118D01*
X175352976Y-43558118D02*
X175305357Y-43605737D01*
X175305357Y-43605737D02*
X175257738Y-43700975D01*
X175257738Y-43700975D02*
X175257738Y-43939070D01*
X175257738Y-43939070D02*
X175305357Y-44034308D01*
X175305357Y-44034308D02*
X175352976Y-44081927D01*
X175352976Y-44081927D02*
X175448214Y-44129546D01*
X175448214Y-44129546D02*
X175638690Y-44129546D01*
X175638690Y-44129546D02*
X175733928Y-44081927D01*
X175733928Y-44081927D02*
X175781547Y-44034308D01*
X175781547Y-44034308D02*
X175829166Y-43939070D01*
X205770833Y-52584580D02*
X205723214Y-52632200D01*
X205723214Y-52632200D02*
X205580357Y-52679819D01*
X205580357Y-52679819D02*
X205485119Y-52679819D01*
X205485119Y-52679819D02*
X205342262Y-52632200D01*
X205342262Y-52632200D02*
X205247024Y-52536961D01*
X205247024Y-52536961D02*
X205199405Y-52441723D01*
X205199405Y-52441723D02*
X205151786Y-52251247D01*
X205151786Y-52251247D02*
X205151786Y-52108390D01*
X205151786Y-52108390D02*
X205199405Y-51917914D01*
X205199405Y-51917914D02*
X205247024Y-51822676D01*
X205247024Y-51822676D02*
X205342262Y-51727438D01*
X205342262Y-51727438D02*
X205485119Y-51679819D01*
X205485119Y-51679819D02*
X205580357Y-51679819D01*
X205580357Y-51679819D02*
X205723214Y-51727438D01*
X205723214Y-51727438D02*
X205770833Y-51775057D01*
X206151786Y-51775057D02*
X206199405Y-51727438D01*
X206199405Y-51727438D02*
X206294643Y-51679819D01*
X206294643Y-51679819D02*
X206532738Y-51679819D01*
X206532738Y-51679819D02*
X206627976Y-51727438D01*
X206627976Y-51727438D02*
X206675595Y-51775057D01*
X206675595Y-51775057D02*
X206723214Y-51870295D01*
X206723214Y-51870295D02*
X206723214Y-51965533D01*
X206723214Y-51965533D02*
X206675595Y-52108390D01*
X206675595Y-52108390D02*
X206104167Y-52679819D01*
X206104167Y-52679819D02*
X206723214Y-52679819D01*
X158405719Y-124220238D02*
X157929528Y-124553571D01*
X158405719Y-124791666D02*
X157405719Y-124791666D01*
X157405719Y-124791666D02*
X157405719Y-124410714D01*
X157405719Y-124410714D02*
X157453338Y-124315476D01*
X157453338Y-124315476D02*
X157500957Y-124267857D01*
X157500957Y-124267857D02*
X157596195Y-124220238D01*
X157596195Y-124220238D02*
X157739052Y-124220238D01*
X157739052Y-124220238D02*
X157834290Y-124267857D01*
X157834290Y-124267857D02*
X157881909Y-124315476D01*
X157881909Y-124315476D02*
X157929528Y-124410714D01*
X157929528Y-124410714D02*
X157929528Y-124791666D01*
X157405719Y-123934523D02*
X158405719Y-123601190D01*
X158405719Y-123601190D02*
X157405719Y-123267857D01*
X157500957Y-122982142D02*
X157453338Y-122934523D01*
X157453338Y-122934523D02*
X157405719Y-122839285D01*
X157405719Y-122839285D02*
X157405719Y-122601190D01*
X157405719Y-122601190D02*
X157453338Y-122505952D01*
X157453338Y-122505952D02*
X157500957Y-122458333D01*
X157500957Y-122458333D02*
X157596195Y-122410714D01*
X157596195Y-122410714D02*
X157691433Y-122410714D01*
X157691433Y-122410714D02*
X157834290Y-122458333D01*
X157834290Y-122458333D02*
X158405719Y-123029761D01*
X158405719Y-123029761D02*
X158405719Y-122410714D01*
X185170833Y-71849819D02*
X184837500Y-71373628D01*
X184599405Y-71849819D02*
X184599405Y-70849819D01*
X184599405Y-70849819D02*
X184980357Y-70849819D01*
X184980357Y-70849819D02*
X185075595Y-70897438D01*
X185075595Y-70897438D02*
X185123214Y-70945057D01*
X185123214Y-70945057D02*
X185170833Y-71040295D01*
X185170833Y-71040295D02*
X185170833Y-71183152D01*
X185170833Y-71183152D02*
X185123214Y-71278390D01*
X185123214Y-71278390D02*
X185075595Y-71326009D01*
X185075595Y-71326009D02*
X184980357Y-71373628D01*
X184980357Y-71373628D02*
X184599405Y-71373628D01*
X185504167Y-70849819D02*
X186170833Y-70849819D01*
X186170833Y-70849819D02*
X185742262Y-71849819D01*
X128275595Y-93231819D02*
X128847023Y-93231819D01*
X128561309Y-94231819D02*
X128561309Y-93231819D01*
X129180357Y-94231819D02*
X129180357Y-93231819D01*
X129180357Y-93231819D02*
X129561309Y-93231819D01*
X129561309Y-93231819D02*
X129656547Y-93279438D01*
X129656547Y-93279438D02*
X129704166Y-93327057D01*
X129704166Y-93327057D02*
X129751785Y-93422295D01*
X129751785Y-93422295D02*
X129751785Y-93565152D01*
X129751785Y-93565152D02*
X129704166Y-93660390D01*
X129704166Y-93660390D02*
X129656547Y-93708009D01*
X129656547Y-93708009D02*
X129561309Y-93755628D01*
X129561309Y-93755628D02*
X129180357Y-93755628D01*
X130608928Y-93565152D02*
X130608928Y-94231819D01*
X130370833Y-93184200D02*
X130132738Y-93898485D01*
X130132738Y-93898485D02*
X130751785Y-93898485D01*
X198570833Y-71849819D02*
X198237500Y-71373628D01*
X197999405Y-71849819D02*
X197999405Y-70849819D01*
X197999405Y-70849819D02*
X198380357Y-70849819D01*
X198380357Y-70849819D02*
X198475595Y-70897438D01*
X198475595Y-70897438D02*
X198523214Y-70945057D01*
X198523214Y-70945057D02*
X198570833Y-71040295D01*
X198570833Y-71040295D02*
X198570833Y-71183152D01*
X198570833Y-71183152D02*
X198523214Y-71278390D01*
X198523214Y-71278390D02*
X198475595Y-71326009D01*
X198475595Y-71326009D02*
X198380357Y-71373628D01*
X198380357Y-71373628D02*
X197999405Y-71373628D01*
X199142262Y-71278390D02*
X199047024Y-71230771D01*
X199047024Y-71230771D02*
X198999405Y-71183152D01*
X198999405Y-71183152D02*
X198951786Y-71087914D01*
X198951786Y-71087914D02*
X198951786Y-71040295D01*
X198951786Y-71040295D02*
X198999405Y-70945057D01*
X198999405Y-70945057D02*
X199047024Y-70897438D01*
X199047024Y-70897438D02*
X199142262Y-70849819D01*
X199142262Y-70849819D02*
X199332738Y-70849819D01*
X199332738Y-70849819D02*
X199427976Y-70897438D01*
X199427976Y-70897438D02*
X199475595Y-70945057D01*
X199475595Y-70945057D02*
X199523214Y-71040295D01*
X199523214Y-71040295D02*
X199523214Y-71087914D01*
X199523214Y-71087914D02*
X199475595Y-71183152D01*
X199475595Y-71183152D02*
X199427976Y-71230771D01*
X199427976Y-71230771D02*
X199332738Y-71278390D01*
X199332738Y-71278390D02*
X199142262Y-71278390D01*
X199142262Y-71278390D02*
X199047024Y-71326009D01*
X199047024Y-71326009D02*
X198999405Y-71373628D01*
X198999405Y-71373628D02*
X198951786Y-71468866D01*
X198951786Y-71468866D02*
X198951786Y-71659342D01*
X198951786Y-71659342D02*
X198999405Y-71754580D01*
X198999405Y-71754580D02*
X199047024Y-71802200D01*
X199047024Y-71802200D02*
X199142262Y-71849819D01*
X199142262Y-71849819D02*
X199332738Y-71849819D01*
X199332738Y-71849819D02*
X199427976Y-71802200D01*
X199427976Y-71802200D02*
X199475595Y-71754580D01*
X199475595Y-71754580D02*
X199523214Y-71659342D01*
X199523214Y-71659342D02*
X199523214Y-71468866D01*
X199523214Y-71468866D02*
X199475595Y-71373628D01*
X199475595Y-71373628D02*
X199427976Y-71326009D01*
X199427976Y-71326009D02*
X199332738Y-71278390D01*
X172800595Y-119510499D02*
X173372023Y-119510499D01*
X173086309Y-120510499D02*
X173086309Y-119510499D01*
X173705357Y-120510499D02*
X173705357Y-119510499D01*
X173705357Y-119510499D02*
X174086309Y-119510499D01*
X174086309Y-119510499D02*
X174181547Y-119558118D01*
X174181547Y-119558118D02*
X174229166Y-119605737D01*
X174229166Y-119605737D02*
X174276785Y-119700975D01*
X174276785Y-119700975D02*
X174276785Y-119843832D01*
X174276785Y-119843832D02*
X174229166Y-119939070D01*
X174229166Y-119939070D02*
X174181547Y-119986689D01*
X174181547Y-119986689D02*
X174086309Y-120034308D01*
X174086309Y-120034308D02*
X173705357Y-120034308D01*
X174610119Y-119510499D02*
X175229166Y-119510499D01*
X175229166Y-119510499D02*
X174895833Y-119891451D01*
X174895833Y-119891451D02*
X175038690Y-119891451D01*
X175038690Y-119891451D02*
X175133928Y-119939070D01*
X175133928Y-119939070D02*
X175181547Y-119986689D01*
X175181547Y-119986689D02*
X175229166Y-120081927D01*
X175229166Y-120081927D02*
X175229166Y-120320022D01*
X175229166Y-120320022D02*
X175181547Y-120415260D01*
X175181547Y-120415260D02*
X175133928Y-120462880D01*
X175133928Y-120462880D02*
X175038690Y-120510499D01*
X175038690Y-120510499D02*
X174752976Y-120510499D01*
X174752976Y-120510499D02*
X174657738Y-120462880D01*
X174657738Y-120462880D02*
X174610119Y-120415260D01*
X205097080Y-57591666D02*
X205144700Y-57639285D01*
X205144700Y-57639285D02*
X205192319Y-57782142D01*
X205192319Y-57782142D02*
X205192319Y-57877380D01*
X205192319Y-57877380D02*
X205144700Y-58020237D01*
X205144700Y-58020237D02*
X205049461Y-58115475D01*
X205049461Y-58115475D02*
X204954223Y-58163094D01*
X204954223Y-58163094D02*
X204763747Y-58210713D01*
X204763747Y-58210713D02*
X204620890Y-58210713D01*
X204620890Y-58210713D02*
X204430414Y-58163094D01*
X204430414Y-58163094D02*
X204335176Y-58115475D01*
X204335176Y-58115475D02*
X204239938Y-58020237D01*
X204239938Y-58020237D02*
X204192319Y-57877380D01*
X204192319Y-57877380D02*
X204192319Y-57782142D01*
X204192319Y-57782142D02*
X204239938Y-57639285D01*
X204239938Y-57639285D02*
X204287557Y-57591666D01*
X204525652Y-56734523D02*
X205192319Y-56734523D01*
X204144700Y-56972618D02*
X204858985Y-57210713D01*
X204858985Y-57210713D02*
X204858985Y-56591666D01*
X175022319Y-60191666D02*
X174546128Y-60524999D01*
X175022319Y-60763094D02*
X174022319Y-60763094D01*
X174022319Y-60763094D02*
X174022319Y-60382142D01*
X174022319Y-60382142D02*
X174069938Y-60286904D01*
X174069938Y-60286904D02*
X174117557Y-60239285D01*
X174117557Y-60239285D02*
X174212795Y-60191666D01*
X174212795Y-60191666D02*
X174355652Y-60191666D01*
X174355652Y-60191666D02*
X174450890Y-60239285D01*
X174450890Y-60239285D02*
X174498509Y-60286904D01*
X174498509Y-60286904D02*
X174546128Y-60382142D01*
X174546128Y-60382142D02*
X174546128Y-60763094D01*
X174022319Y-59334523D02*
X174022319Y-59524999D01*
X174022319Y-59524999D02*
X174069938Y-59620237D01*
X174069938Y-59620237D02*
X174117557Y-59667856D01*
X174117557Y-59667856D02*
X174260414Y-59763094D01*
X174260414Y-59763094D02*
X174450890Y-59810713D01*
X174450890Y-59810713D02*
X174831842Y-59810713D01*
X174831842Y-59810713D02*
X174927080Y-59763094D01*
X174927080Y-59763094D02*
X174974700Y-59715475D01*
X174974700Y-59715475D02*
X175022319Y-59620237D01*
X175022319Y-59620237D02*
X175022319Y-59429761D01*
X175022319Y-59429761D02*
X174974700Y-59334523D01*
X174974700Y-59334523D02*
X174927080Y-59286904D01*
X174927080Y-59286904D02*
X174831842Y-59239285D01*
X174831842Y-59239285D02*
X174593747Y-59239285D01*
X174593747Y-59239285D02*
X174498509Y-59286904D01*
X174498509Y-59286904D02*
X174450890Y-59334523D01*
X174450890Y-59334523D02*
X174403271Y-59429761D01*
X174403271Y-59429761D02*
X174403271Y-59620237D01*
X174403271Y-59620237D02*
X174450890Y-59715475D01*
X174450890Y-59715475D02*
X174498509Y-59763094D01*
X174498509Y-59763094D02*
X174593747Y-59810713D01*
X209494642Y-77279819D02*
X209161309Y-76803628D01*
X208923214Y-77279819D02*
X208923214Y-76279819D01*
X208923214Y-76279819D02*
X209304166Y-76279819D01*
X209304166Y-76279819D02*
X209399404Y-76327438D01*
X209399404Y-76327438D02*
X209447023Y-76375057D01*
X209447023Y-76375057D02*
X209494642Y-76470295D01*
X209494642Y-76470295D02*
X209494642Y-76613152D01*
X209494642Y-76613152D02*
X209447023Y-76708390D01*
X209447023Y-76708390D02*
X209399404Y-76756009D01*
X209399404Y-76756009D02*
X209304166Y-76803628D01*
X209304166Y-76803628D02*
X208923214Y-76803628D01*
X210447023Y-77279819D02*
X209875595Y-77279819D01*
X210161309Y-77279819D02*
X210161309Y-76279819D01*
X210161309Y-76279819D02*
X210066071Y-76422676D01*
X210066071Y-76422676D02*
X209970833Y-76517914D01*
X209970833Y-76517914D02*
X209875595Y-76565533D01*
X210780357Y-76279819D02*
X211399404Y-76279819D01*
X211399404Y-76279819D02*
X211066071Y-76660771D01*
X211066071Y-76660771D02*
X211208928Y-76660771D01*
X211208928Y-76660771D02*
X211304166Y-76708390D01*
X211304166Y-76708390D02*
X211351785Y-76756009D01*
X211351785Y-76756009D02*
X211399404Y-76851247D01*
X211399404Y-76851247D02*
X211399404Y-77089342D01*
X211399404Y-77089342D02*
X211351785Y-77184580D01*
X211351785Y-77184580D02*
X211304166Y-77232200D01*
X211304166Y-77232200D02*
X211208928Y-77279819D01*
X211208928Y-77279819D02*
X210923214Y-77279819D01*
X210923214Y-77279819D02*
X210827976Y-77232200D01*
X210827976Y-77232200D02*
X210780357Y-77184580D01*
X169992319Y-59991666D02*
X169516128Y-60324999D01*
X169992319Y-60563094D02*
X168992319Y-60563094D01*
X168992319Y-60563094D02*
X168992319Y-60182142D01*
X168992319Y-60182142D02*
X169039938Y-60086904D01*
X169039938Y-60086904D02*
X169087557Y-60039285D01*
X169087557Y-60039285D02*
X169182795Y-59991666D01*
X169182795Y-59991666D02*
X169325652Y-59991666D01*
X169325652Y-59991666D02*
X169420890Y-60039285D01*
X169420890Y-60039285D02*
X169468509Y-60086904D01*
X169468509Y-60086904D02*
X169516128Y-60182142D01*
X169516128Y-60182142D02*
X169516128Y-60563094D01*
X168992319Y-59086904D02*
X168992319Y-59563094D01*
X168992319Y-59563094D02*
X169468509Y-59610713D01*
X169468509Y-59610713D02*
X169420890Y-59563094D01*
X169420890Y-59563094D02*
X169373271Y-59467856D01*
X169373271Y-59467856D02*
X169373271Y-59229761D01*
X169373271Y-59229761D02*
X169420890Y-59134523D01*
X169420890Y-59134523D02*
X169468509Y-59086904D01*
X169468509Y-59086904D02*
X169563747Y-59039285D01*
X169563747Y-59039285D02*
X169801842Y-59039285D01*
X169801842Y-59039285D02*
X169897080Y-59086904D01*
X169897080Y-59086904D02*
X169944700Y-59134523D01*
X169944700Y-59134523D02*
X169992319Y-59229761D01*
X169992319Y-59229761D02*
X169992319Y-59467856D01*
X169992319Y-59467856D02*
X169944700Y-59563094D01*
X169944700Y-59563094D02*
X169897080Y-59610713D01*
D11*
X161624544Y-103329657D02*
X161624544Y-104653844D01*
X161624544Y-104653844D02*
X161702438Y-104809630D01*
X161702438Y-104809630D02*
X161780331Y-104887524D01*
X161780331Y-104887524D02*
X161936118Y-104965417D01*
X161936118Y-104965417D02*
X162247691Y-104965417D01*
X162247691Y-104965417D02*
X162403478Y-104887524D01*
X162403478Y-104887524D02*
X162481371Y-104809630D01*
X162481371Y-104809630D02*
X162559264Y-104653844D01*
X162559264Y-104653844D02*
X162559264Y-103329657D01*
X163182411Y-103329657D02*
X164195024Y-103329657D01*
X164195024Y-103329657D02*
X163649771Y-103952804D01*
X163649771Y-103952804D02*
X163883451Y-103952804D01*
X163883451Y-103952804D02*
X164039237Y-104030697D01*
X164039237Y-104030697D02*
X164117131Y-104108590D01*
X164117131Y-104108590D02*
X164195024Y-104264377D01*
X164195024Y-104264377D02*
X164195024Y-104653844D01*
X164195024Y-104653844D02*
X164117131Y-104809630D01*
X164117131Y-104809630D02*
X164039237Y-104887524D01*
X164039237Y-104887524D02*
X163883451Y-104965417D01*
X163883451Y-104965417D02*
X163416091Y-104965417D01*
X163416091Y-104965417D02*
X163260304Y-104887524D01*
X163260304Y-104887524D02*
X163182411Y-104809630D01*
D12*
X151215256Y-84298326D02*
X151994189Y-84298326D01*
X151994189Y-84298326D02*
X151493446Y-85466726D01*
X152995675Y-84298326D02*
X152439294Y-84298326D01*
X152439294Y-84298326D02*
X152383656Y-84854707D01*
X152383656Y-84854707D02*
X152439294Y-84799068D01*
X152439294Y-84799068D02*
X152550570Y-84743430D01*
X152550570Y-84743430D02*
X152828761Y-84743430D01*
X152828761Y-84743430D02*
X152940037Y-84799068D01*
X152940037Y-84799068D02*
X152995675Y-84854707D01*
X152995675Y-84854707D02*
X153051313Y-84965983D01*
X153051313Y-84965983D02*
X153051313Y-85244173D01*
X153051313Y-85244173D02*
X152995675Y-85355449D01*
X152995675Y-85355449D02*
X152940037Y-85411088D01*
X152940037Y-85411088D02*
X152828761Y-85466726D01*
X152828761Y-85466726D02*
X152550570Y-85466726D01*
X152550570Y-85466726D02*
X152439294Y-85411088D01*
X152439294Y-85411088D02*
X152383656Y-85355449D01*
X153607694Y-85466726D02*
X153830246Y-85466726D01*
X153830246Y-85466726D02*
X153941523Y-85411088D01*
X153941523Y-85411088D02*
X153997161Y-85355449D01*
X153997161Y-85355449D02*
X154108437Y-85188535D01*
X154108437Y-85188535D02*
X154164075Y-84965983D01*
X154164075Y-84965983D02*
X154164075Y-84520878D01*
X154164075Y-84520878D02*
X154108437Y-84409602D01*
X154108437Y-84409602D02*
X154052799Y-84353964D01*
X154052799Y-84353964D02*
X153941523Y-84298326D01*
X153941523Y-84298326D02*
X153718970Y-84298326D01*
X153718970Y-84298326D02*
X153607694Y-84353964D01*
X153607694Y-84353964D02*
X153552056Y-84409602D01*
X153552056Y-84409602D02*
X153496418Y-84520878D01*
X153496418Y-84520878D02*
X153496418Y-84799068D01*
X153496418Y-84799068D02*
X153552056Y-84910345D01*
X153552056Y-84910345D02*
X153607694Y-84965983D01*
X153607694Y-84965983D02*
X153718970Y-85021621D01*
X153718970Y-85021621D02*
X153941523Y-85021621D01*
X153941523Y-85021621D02*
X154052799Y-84965983D01*
X154052799Y-84965983D02*
X154108437Y-84910345D01*
X154108437Y-84910345D02*
X154164075Y-84799068D01*
X155276837Y-85466726D02*
X154609180Y-85466726D01*
X154943008Y-85466726D02*
X154943008Y-84298326D01*
X154943008Y-84298326D02*
X154831732Y-84465240D01*
X154831732Y-84465240D02*
X154720456Y-84576516D01*
X154720456Y-84576516D02*
X154609180Y-84632154D01*
X155721942Y-85411088D02*
X155833218Y-85466726D01*
X155833218Y-85466726D02*
X156055770Y-85466726D01*
X156055770Y-85466726D02*
X156167047Y-85411088D01*
X156167047Y-85411088D02*
X156222685Y-85299811D01*
X156222685Y-85299811D02*
X156222685Y-85244173D01*
X156222685Y-85244173D02*
X156167047Y-85132897D01*
X156167047Y-85132897D02*
X156055770Y-85077259D01*
X156055770Y-85077259D02*
X155888856Y-85077259D01*
X155888856Y-85077259D02*
X155777580Y-85021621D01*
X155777580Y-85021621D02*
X155721942Y-84910345D01*
X155721942Y-84910345D02*
X155721942Y-84854707D01*
X155721942Y-84854707D02*
X155777580Y-84743430D01*
X155777580Y-84743430D02*
X155888856Y-84687792D01*
X155888856Y-84687792D02*
X156055770Y-84687792D01*
X156055770Y-84687792D02*
X156167047Y-84743430D01*
D11*
X155232284Y-81582010D02*
X155232284Y-82672517D01*
X154842818Y-80958864D02*
X154453351Y-82127264D01*
X154453351Y-82127264D02*
X155465964Y-82127264D01*
X160022358Y-83952457D02*
X161034971Y-83952457D01*
X161034971Y-83952457D02*
X160489718Y-84575604D01*
X160489718Y-84575604D02*
X160723398Y-84575604D01*
X160723398Y-84575604D02*
X160879184Y-84653497D01*
X160879184Y-84653497D02*
X160957078Y-84731390D01*
X160957078Y-84731390D02*
X161034971Y-84887177D01*
X161034971Y-84887177D02*
X161034971Y-85276644D01*
X161034971Y-85276644D02*
X160957078Y-85432430D01*
X160957078Y-85432430D02*
X160879184Y-85510324D01*
X160879184Y-85510324D02*
X160723398Y-85588217D01*
X160723398Y-85588217D02*
X160256038Y-85588217D01*
X160256038Y-85588217D02*
X160100251Y-85510324D01*
X160100251Y-85510324D02*
X160022358Y-85432430D01*
X162065951Y-88544444D02*
X162143844Y-88466550D01*
X162143844Y-88466550D02*
X162299631Y-88388657D01*
X162299631Y-88388657D02*
X162689098Y-88388657D01*
X162689098Y-88388657D02*
X162844884Y-88466550D01*
X162844884Y-88466550D02*
X162922778Y-88544444D01*
X162922778Y-88544444D02*
X163000671Y-88700230D01*
X163000671Y-88700230D02*
X163000671Y-88856017D01*
X163000671Y-88856017D02*
X162922778Y-89089697D01*
X162922778Y-89089697D02*
X161988058Y-90024417D01*
X161988058Y-90024417D02*
X163000671Y-90024417D01*
X159992671Y-95615817D02*
X159057951Y-95615817D01*
X159525311Y-95615817D02*
X159525311Y-93980057D01*
X159525311Y-93980057D02*
X159369524Y-94213737D01*
X159369524Y-94213737D02*
X159213738Y-94369524D01*
X159213738Y-94369524D02*
X159057951Y-94447417D01*
X154687324Y-96518297D02*
X154531538Y-96440404D01*
X154531538Y-96440404D02*
X154453644Y-96362510D01*
X154453644Y-96362510D02*
X154375751Y-96206724D01*
X154375751Y-96206724D02*
X154375751Y-96128830D01*
X154375751Y-96128830D02*
X154453644Y-95973044D01*
X154453644Y-95973044D02*
X154531538Y-95895150D01*
X154531538Y-95895150D02*
X154687324Y-95817257D01*
X154687324Y-95817257D02*
X154998898Y-95817257D01*
X154998898Y-95817257D02*
X155154684Y-95895150D01*
X155154684Y-95895150D02*
X155232578Y-95973044D01*
X155232578Y-95973044D02*
X155310471Y-96128830D01*
X155310471Y-96128830D02*
X155310471Y-96206724D01*
X155310471Y-96206724D02*
X155232578Y-96362510D01*
X155232578Y-96362510D02*
X155154684Y-96440404D01*
X155154684Y-96440404D02*
X154998898Y-96518297D01*
X154998898Y-96518297D02*
X154687324Y-96518297D01*
X154687324Y-96518297D02*
X154531538Y-96596190D01*
X154531538Y-96596190D02*
X154453644Y-96674084D01*
X154453644Y-96674084D02*
X154375751Y-96829870D01*
X154375751Y-96829870D02*
X154375751Y-97141444D01*
X154375751Y-97141444D02*
X154453644Y-97297230D01*
X154453644Y-97297230D02*
X154531538Y-97375124D01*
X154531538Y-97375124D02*
X154687324Y-97453017D01*
X154687324Y-97453017D02*
X154998898Y-97453017D01*
X154998898Y-97453017D02*
X155154684Y-97375124D01*
X155154684Y-97375124D02*
X155232578Y-97297230D01*
X155232578Y-97297230D02*
X155310471Y-97141444D01*
X155310471Y-97141444D02*
X155310471Y-96829870D01*
X155310471Y-96829870D02*
X155232578Y-96674084D01*
X155232578Y-96674084D02*
X155154684Y-96596190D01*
X155154684Y-96596190D02*
X154998898Y-96518297D01*
X147468384Y-88166457D02*
X147156811Y-88166457D01*
X147156811Y-88166457D02*
X147001024Y-88244350D01*
X147001024Y-88244350D02*
X146923131Y-88322244D01*
X146923131Y-88322244D02*
X146767344Y-88555924D01*
X146767344Y-88555924D02*
X146689451Y-88867497D01*
X146689451Y-88867497D02*
X146689451Y-89490644D01*
X146689451Y-89490644D02*
X146767344Y-89646430D01*
X146767344Y-89646430D02*
X146845238Y-89724324D01*
X146845238Y-89724324D02*
X147001024Y-89802217D01*
X147001024Y-89802217D02*
X147312598Y-89802217D01*
X147312598Y-89802217D02*
X147468384Y-89724324D01*
X147468384Y-89724324D02*
X147546278Y-89646430D01*
X147546278Y-89646430D02*
X147624171Y-89490644D01*
X147624171Y-89490644D02*
X147624171Y-89101177D01*
X147624171Y-89101177D02*
X147546278Y-88945390D01*
X147546278Y-88945390D02*
X147468384Y-88867497D01*
X147468384Y-88867497D02*
X147312598Y-88789604D01*
X147312598Y-88789604D02*
X147001024Y-88789604D01*
X147001024Y-88789604D02*
X146845238Y-88867497D01*
X146845238Y-88867497D02*
X146767344Y-88945390D01*
X146767344Y-88945390D02*
X146689451Y-89101177D01*
X148768758Y-93604457D02*
X149859264Y-93604457D01*
X149859264Y-93604457D02*
X149158224Y-95240217D01*
X149777278Y-83462157D02*
X148998344Y-83462157D01*
X148998344Y-83462157D02*
X148920451Y-84241090D01*
X148920451Y-84241090D02*
X148998344Y-84163197D01*
X148998344Y-84163197D02*
X149154131Y-84085304D01*
X149154131Y-84085304D02*
X149543598Y-84085304D01*
X149543598Y-84085304D02*
X149699384Y-84163197D01*
X149699384Y-84163197D02*
X149777278Y-84241090D01*
X149777278Y-84241090D02*
X149855171Y-84396877D01*
X149855171Y-84396877D02*
X149855171Y-84786344D01*
X149855171Y-84786344D02*
X149777278Y-84942130D01*
X149777278Y-84942130D02*
X149699384Y-85020024D01*
X149699384Y-85020024D02*
X149543598Y-85097917D01*
X149543598Y-85097917D02*
X149154131Y-85097917D01*
X149154131Y-85097917D02*
X148998344Y-85020024D01*
X148998344Y-85020024D02*
X148920451Y-84942130D01*
D10*
X243199405Y-47549819D02*
X243199405Y-46549819D01*
X243199405Y-46549819D02*
X243437500Y-46549819D01*
X243437500Y-46549819D02*
X243580357Y-46597438D01*
X243580357Y-46597438D02*
X243675595Y-46692676D01*
X243675595Y-46692676D02*
X243723214Y-46787914D01*
X243723214Y-46787914D02*
X243770833Y-46978390D01*
X243770833Y-46978390D02*
X243770833Y-47121247D01*
X243770833Y-47121247D02*
X243723214Y-47311723D01*
X243723214Y-47311723D02*
X243675595Y-47406961D01*
X243675595Y-47406961D02*
X243580357Y-47502200D01*
X243580357Y-47502200D02*
X243437500Y-47549819D01*
X243437500Y-47549819D02*
X243199405Y-47549819D01*
X244627976Y-46883152D02*
X244627976Y-47549819D01*
X244389881Y-46502200D02*
X244151786Y-47216485D01*
X244151786Y-47216485D02*
X244770833Y-47216485D01*
X238400595Y-123310499D02*
X238972023Y-123310499D01*
X238686309Y-124310499D02*
X238686309Y-123310499D01*
X239305357Y-124310499D02*
X239305357Y-123310499D01*
X239305357Y-123310499D02*
X239686309Y-123310499D01*
X239686309Y-123310499D02*
X239781547Y-123358118D01*
X239781547Y-123358118D02*
X239829166Y-123405737D01*
X239829166Y-123405737D02*
X239876785Y-123500975D01*
X239876785Y-123500975D02*
X239876785Y-123643832D01*
X239876785Y-123643832D02*
X239829166Y-123739070D01*
X239829166Y-123739070D02*
X239781547Y-123786689D01*
X239781547Y-123786689D02*
X239686309Y-123834308D01*
X239686309Y-123834308D02*
X239305357Y-123834308D01*
X240781547Y-123310499D02*
X240305357Y-123310499D01*
X240305357Y-123310499D02*
X240257738Y-123786689D01*
X240257738Y-123786689D02*
X240305357Y-123739070D01*
X240305357Y-123739070D02*
X240400595Y-123691451D01*
X240400595Y-123691451D02*
X240638690Y-123691451D01*
X240638690Y-123691451D02*
X240733928Y-123739070D01*
X240733928Y-123739070D02*
X240781547Y-123786689D01*
X240781547Y-123786689D02*
X240829166Y-123881927D01*
X240829166Y-123881927D02*
X240829166Y-124120022D01*
X240829166Y-124120022D02*
X240781547Y-124215260D01*
X240781547Y-124215260D02*
X240733928Y-124262880D01*
X240733928Y-124262880D02*
X240638690Y-124310499D01*
X240638690Y-124310499D02*
X240400595Y-124310499D01*
X240400595Y-124310499D02*
X240305357Y-124262880D01*
X240305357Y-124262880D02*
X240257738Y-124215260D01*
X169770833Y-45234580D02*
X169723214Y-45282200D01*
X169723214Y-45282200D02*
X169580357Y-45329819D01*
X169580357Y-45329819D02*
X169485119Y-45329819D01*
X169485119Y-45329819D02*
X169342262Y-45282200D01*
X169342262Y-45282200D02*
X169247024Y-45186961D01*
X169247024Y-45186961D02*
X169199405Y-45091723D01*
X169199405Y-45091723D02*
X169151786Y-44901247D01*
X169151786Y-44901247D02*
X169151786Y-44758390D01*
X169151786Y-44758390D02*
X169199405Y-44567914D01*
X169199405Y-44567914D02*
X169247024Y-44472676D01*
X169247024Y-44472676D02*
X169342262Y-44377438D01*
X169342262Y-44377438D02*
X169485119Y-44329819D01*
X169485119Y-44329819D02*
X169580357Y-44329819D01*
X169580357Y-44329819D02*
X169723214Y-44377438D01*
X169723214Y-44377438D02*
X169770833Y-44425057D01*
X170723214Y-45329819D02*
X170151786Y-45329819D01*
X170437500Y-45329819D02*
X170437500Y-44329819D01*
X170437500Y-44329819D02*
X170342262Y-44472676D01*
X170342262Y-44472676D02*
X170247024Y-44567914D01*
X170247024Y-44567914D02*
X170151786Y-44615533D01*
X211800595Y-68110499D02*
X212372023Y-68110499D01*
X212086309Y-69110499D02*
X212086309Y-68110499D01*
X212705357Y-69110499D02*
X212705357Y-68110499D01*
X212705357Y-68110499D02*
X213086309Y-68110499D01*
X213086309Y-68110499D02*
X213181547Y-68158118D01*
X213181547Y-68158118D02*
X213229166Y-68205737D01*
X213229166Y-68205737D02*
X213276785Y-68300975D01*
X213276785Y-68300975D02*
X213276785Y-68443832D01*
X213276785Y-68443832D02*
X213229166Y-68539070D01*
X213229166Y-68539070D02*
X213181547Y-68586689D01*
X213181547Y-68586689D02*
X213086309Y-68634308D01*
X213086309Y-68634308D02*
X212705357Y-68634308D01*
X213657738Y-68205737D02*
X213705357Y-68158118D01*
X213705357Y-68158118D02*
X213800595Y-68110499D01*
X213800595Y-68110499D02*
X214038690Y-68110499D01*
X214038690Y-68110499D02*
X214133928Y-68158118D01*
X214133928Y-68158118D02*
X214181547Y-68205737D01*
X214181547Y-68205737D02*
X214229166Y-68300975D01*
X214229166Y-68300975D02*
X214229166Y-68396213D01*
X214229166Y-68396213D02*
X214181547Y-68539070D01*
X214181547Y-68539070D02*
X213610119Y-69110499D01*
X213610119Y-69110499D02*
X214229166Y-69110499D01*
X129799019Y-124220238D02*
X129322828Y-124553571D01*
X129799019Y-124791666D02*
X128799019Y-124791666D01*
X128799019Y-124791666D02*
X128799019Y-124410714D01*
X128799019Y-124410714D02*
X128846638Y-124315476D01*
X128846638Y-124315476D02*
X128894257Y-124267857D01*
X128894257Y-124267857D02*
X128989495Y-124220238D01*
X128989495Y-124220238D02*
X129132352Y-124220238D01*
X129132352Y-124220238D02*
X129227590Y-124267857D01*
X129227590Y-124267857D02*
X129275209Y-124315476D01*
X129275209Y-124315476D02*
X129322828Y-124410714D01*
X129322828Y-124410714D02*
X129322828Y-124791666D01*
X128799019Y-123934523D02*
X129799019Y-123601190D01*
X129799019Y-123601190D02*
X128799019Y-123267857D01*
X129799019Y-122410714D02*
X129799019Y-122982142D01*
X129799019Y-122696428D02*
X128799019Y-122696428D01*
X128799019Y-122696428D02*
X128941876Y-122791666D01*
X128941876Y-122791666D02*
X129037114Y-122886904D01*
X129037114Y-122886904D02*
X129084733Y-122982142D01*
X132792319Y-87867857D02*
X132316128Y-88201190D01*
X132792319Y-88439285D02*
X131792319Y-88439285D01*
X131792319Y-88439285D02*
X131792319Y-88058333D01*
X131792319Y-88058333D02*
X131839938Y-87963095D01*
X131839938Y-87963095D02*
X131887557Y-87915476D01*
X131887557Y-87915476D02*
X131982795Y-87867857D01*
X131982795Y-87867857D02*
X132125652Y-87867857D01*
X132125652Y-87867857D02*
X132220890Y-87915476D01*
X132220890Y-87915476D02*
X132268509Y-87963095D01*
X132268509Y-87963095D02*
X132316128Y-88058333D01*
X132316128Y-88058333D02*
X132316128Y-88439285D01*
X132792319Y-86915476D02*
X132792319Y-87486904D01*
X132792319Y-87201190D02*
X131792319Y-87201190D01*
X131792319Y-87201190D02*
X131935176Y-87296428D01*
X131935176Y-87296428D02*
X132030414Y-87391666D01*
X132030414Y-87391666D02*
X132078033Y-87486904D01*
X131792319Y-86058333D02*
X131792319Y-86248809D01*
X131792319Y-86248809D02*
X131839938Y-86344047D01*
X131839938Y-86344047D02*
X131887557Y-86391666D01*
X131887557Y-86391666D02*
X132030414Y-86486904D01*
X132030414Y-86486904D02*
X132220890Y-86534523D01*
X132220890Y-86534523D02*
X132601842Y-86534523D01*
X132601842Y-86534523D02*
X132697080Y-86486904D01*
X132697080Y-86486904D02*
X132744700Y-86439285D01*
X132744700Y-86439285D02*
X132792319Y-86344047D01*
X132792319Y-86344047D02*
X132792319Y-86153571D01*
X132792319Y-86153571D02*
X132744700Y-86058333D01*
X132744700Y-86058333D02*
X132697080Y-86010714D01*
X132697080Y-86010714D02*
X132601842Y-85963095D01*
X132601842Y-85963095D02*
X132363747Y-85963095D01*
X132363747Y-85963095D02*
X132268509Y-86010714D01*
X132268509Y-86010714D02*
X132220890Y-86058333D01*
X132220890Y-86058333D02*
X132173271Y-86153571D01*
X132173271Y-86153571D02*
X132173271Y-86344047D01*
X132173271Y-86344047D02*
X132220890Y-86439285D01*
X132220890Y-86439285D02*
X132268509Y-86486904D01*
X132268509Y-86486904D02*
X132363747Y-86534523D01*
X162019642Y-112158499D02*
X161686309Y-111682308D01*
X161448214Y-112158499D02*
X161448214Y-111158499D01*
X161448214Y-111158499D02*
X161829166Y-111158499D01*
X161829166Y-111158499D02*
X161924404Y-111206118D01*
X161924404Y-111206118D02*
X161972023Y-111253737D01*
X161972023Y-111253737D02*
X162019642Y-111348975D01*
X162019642Y-111348975D02*
X162019642Y-111491832D01*
X162019642Y-111491832D02*
X161972023Y-111587070D01*
X161972023Y-111587070D02*
X161924404Y-111634689D01*
X161924404Y-111634689D02*
X161829166Y-111682308D01*
X161829166Y-111682308D02*
X161448214Y-111682308D01*
X162972023Y-112158499D02*
X162400595Y-112158499D01*
X162686309Y-112158499D02*
X162686309Y-111158499D01*
X162686309Y-111158499D02*
X162591071Y-111301356D01*
X162591071Y-111301356D02*
X162495833Y-111396594D01*
X162495833Y-111396594D02*
X162400595Y-111444213D01*
X163924404Y-112158499D02*
X163352976Y-112158499D01*
X163638690Y-112158499D02*
X163638690Y-111158499D01*
X163638690Y-111158499D02*
X163543452Y-111301356D01*
X163543452Y-111301356D02*
X163448214Y-111396594D01*
X163448214Y-111396594D02*
X163352976Y-111444213D01*
X254704166Y-129179819D02*
X254704166Y-129894104D01*
X254704166Y-129894104D02*
X254656547Y-130036961D01*
X254656547Y-130036961D02*
X254561309Y-130132200D01*
X254561309Y-130132200D02*
X254418452Y-130179819D01*
X254418452Y-130179819D02*
X254323214Y-130179819D01*
X255704166Y-130179819D02*
X255132738Y-130179819D01*
X255418452Y-130179819D02*
X255418452Y-129179819D01*
X255418452Y-129179819D02*
X255323214Y-129322676D01*
X255323214Y-129322676D02*
X255227976Y-129417914D01*
X255227976Y-129417914D02*
X255132738Y-129465533D01*
X190175595Y-54479819D02*
X190175595Y-55289342D01*
X190175595Y-55289342D02*
X190223214Y-55384580D01*
X190223214Y-55384580D02*
X190270833Y-55432200D01*
X190270833Y-55432200D02*
X190366071Y-55479819D01*
X190366071Y-55479819D02*
X190556547Y-55479819D01*
X190556547Y-55479819D02*
X190651785Y-55432200D01*
X190651785Y-55432200D02*
X190699404Y-55384580D01*
X190699404Y-55384580D02*
X190747023Y-55289342D01*
X190747023Y-55289342D02*
X190747023Y-54479819D01*
X191175595Y-54575057D02*
X191223214Y-54527438D01*
X191223214Y-54527438D02*
X191318452Y-54479819D01*
X191318452Y-54479819D02*
X191556547Y-54479819D01*
X191556547Y-54479819D02*
X191651785Y-54527438D01*
X191651785Y-54527438D02*
X191699404Y-54575057D01*
X191699404Y-54575057D02*
X191747023Y-54670295D01*
X191747023Y-54670295D02*
X191747023Y-54765533D01*
X191747023Y-54765533D02*
X191699404Y-54908390D01*
X191699404Y-54908390D02*
X191127976Y-55479819D01*
X191127976Y-55479819D02*
X191747023Y-55479819D01*
X195697080Y-76991666D02*
X195744700Y-77039285D01*
X195744700Y-77039285D02*
X195792319Y-77182142D01*
X195792319Y-77182142D02*
X195792319Y-77277380D01*
X195792319Y-77277380D02*
X195744700Y-77420237D01*
X195744700Y-77420237D02*
X195649461Y-77515475D01*
X195649461Y-77515475D02*
X195554223Y-77563094D01*
X195554223Y-77563094D02*
X195363747Y-77610713D01*
X195363747Y-77610713D02*
X195220890Y-77610713D01*
X195220890Y-77610713D02*
X195030414Y-77563094D01*
X195030414Y-77563094D02*
X194935176Y-77515475D01*
X194935176Y-77515475D02*
X194839938Y-77420237D01*
X194839938Y-77420237D02*
X194792319Y-77277380D01*
X194792319Y-77277380D02*
X194792319Y-77182142D01*
X194792319Y-77182142D02*
X194839938Y-77039285D01*
X194839938Y-77039285D02*
X194887557Y-76991666D01*
X194792319Y-76134523D02*
X194792319Y-76324999D01*
X194792319Y-76324999D02*
X194839938Y-76420237D01*
X194839938Y-76420237D02*
X194887557Y-76467856D01*
X194887557Y-76467856D02*
X195030414Y-76563094D01*
X195030414Y-76563094D02*
X195220890Y-76610713D01*
X195220890Y-76610713D02*
X195601842Y-76610713D01*
X195601842Y-76610713D02*
X195697080Y-76563094D01*
X195697080Y-76563094D02*
X195744700Y-76515475D01*
X195744700Y-76515475D02*
X195792319Y-76420237D01*
X195792319Y-76420237D02*
X195792319Y-76229761D01*
X195792319Y-76229761D02*
X195744700Y-76134523D01*
X195744700Y-76134523D02*
X195697080Y-76086904D01*
X195697080Y-76086904D02*
X195601842Y-76039285D01*
X195601842Y-76039285D02*
X195363747Y-76039285D01*
X195363747Y-76039285D02*
X195268509Y-76086904D01*
X195268509Y-76086904D02*
X195220890Y-76134523D01*
X195220890Y-76134523D02*
X195173271Y-76229761D01*
X195173271Y-76229761D02*
X195173271Y-76420237D01*
X195173271Y-76420237D02*
X195220890Y-76515475D01*
X195220890Y-76515475D02*
X195268509Y-76563094D01*
X195268509Y-76563094D02*
X195363747Y-76610713D01*
X164170833Y-71879819D02*
X163837500Y-71403628D01*
X163599405Y-71879819D02*
X163599405Y-70879819D01*
X163599405Y-70879819D02*
X163980357Y-70879819D01*
X163980357Y-70879819D02*
X164075595Y-70927438D01*
X164075595Y-70927438D02*
X164123214Y-70975057D01*
X164123214Y-70975057D02*
X164170833Y-71070295D01*
X164170833Y-71070295D02*
X164170833Y-71213152D01*
X164170833Y-71213152D02*
X164123214Y-71308390D01*
X164123214Y-71308390D02*
X164075595Y-71356009D01*
X164075595Y-71356009D02*
X163980357Y-71403628D01*
X163980357Y-71403628D02*
X163599405Y-71403628D01*
X165123214Y-71879819D02*
X164551786Y-71879819D01*
X164837500Y-71879819D02*
X164837500Y-70879819D01*
X164837500Y-70879819D02*
X164742262Y-71022676D01*
X164742262Y-71022676D02*
X164647024Y-71117914D01*
X164647024Y-71117914D02*
X164551786Y-71165533D01*
X151370833Y-71649819D02*
X151037500Y-71173628D01*
X150799405Y-71649819D02*
X150799405Y-70649819D01*
X150799405Y-70649819D02*
X151180357Y-70649819D01*
X151180357Y-70649819D02*
X151275595Y-70697438D01*
X151275595Y-70697438D02*
X151323214Y-70745057D01*
X151323214Y-70745057D02*
X151370833Y-70840295D01*
X151370833Y-70840295D02*
X151370833Y-70983152D01*
X151370833Y-70983152D02*
X151323214Y-71078390D01*
X151323214Y-71078390D02*
X151275595Y-71126009D01*
X151275595Y-71126009D02*
X151180357Y-71173628D01*
X151180357Y-71173628D02*
X150799405Y-71173628D01*
X151704167Y-70649819D02*
X152323214Y-70649819D01*
X152323214Y-70649819D02*
X151989881Y-71030771D01*
X151989881Y-71030771D02*
X152132738Y-71030771D01*
X152132738Y-71030771D02*
X152227976Y-71078390D01*
X152227976Y-71078390D02*
X152275595Y-71126009D01*
X152275595Y-71126009D02*
X152323214Y-71221247D01*
X152323214Y-71221247D02*
X152323214Y-71459342D01*
X152323214Y-71459342D02*
X152275595Y-71554580D01*
X152275595Y-71554580D02*
X152227976Y-71602200D01*
X152227976Y-71602200D02*
X152132738Y-71649819D01*
X152132738Y-71649819D02*
X151847024Y-71649819D01*
X151847024Y-71649819D02*
X151751786Y-71602200D01*
X151751786Y-71602200D02*
X151704167Y-71554580D01*
X137792319Y-61191666D02*
X137316128Y-61524999D01*
X137792319Y-61763094D02*
X136792319Y-61763094D01*
X136792319Y-61763094D02*
X136792319Y-61382142D01*
X136792319Y-61382142D02*
X136839938Y-61286904D01*
X136839938Y-61286904D02*
X136887557Y-61239285D01*
X136887557Y-61239285D02*
X136982795Y-61191666D01*
X136982795Y-61191666D02*
X137125652Y-61191666D01*
X137125652Y-61191666D02*
X137220890Y-61239285D01*
X137220890Y-61239285D02*
X137268509Y-61286904D01*
X137268509Y-61286904D02*
X137316128Y-61382142D01*
X137316128Y-61382142D02*
X137316128Y-61763094D01*
X137125652Y-60334523D02*
X137792319Y-60334523D01*
X136744700Y-60572618D02*
X137458985Y-60810713D01*
X137458985Y-60810713D02*
X137458985Y-60191666D01*
X214592319Y-113867857D02*
X214116128Y-114201190D01*
X214592319Y-114439285D02*
X213592319Y-114439285D01*
X213592319Y-114439285D02*
X213592319Y-114058333D01*
X213592319Y-114058333D02*
X213639938Y-113963095D01*
X213639938Y-113963095D02*
X213687557Y-113915476D01*
X213687557Y-113915476D02*
X213782795Y-113867857D01*
X213782795Y-113867857D02*
X213925652Y-113867857D01*
X213925652Y-113867857D02*
X214020890Y-113915476D01*
X214020890Y-113915476D02*
X214068509Y-113963095D01*
X214068509Y-113963095D02*
X214116128Y-114058333D01*
X214116128Y-114058333D02*
X214116128Y-114439285D01*
X214592319Y-112915476D02*
X214592319Y-113486904D01*
X214592319Y-113201190D02*
X213592319Y-113201190D01*
X213592319Y-113201190D02*
X213735176Y-113296428D01*
X213735176Y-113296428D02*
X213830414Y-113391666D01*
X213830414Y-113391666D02*
X213878033Y-113486904D01*
X213687557Y-112534523D02*
X213639938Y-112486904D01*
X213639938Y-112486904D02*
X213592319Y-112391666D01*
X213592319Y-112391666D02*
X213592319Y-112153571D01*
X213592319Y-112153571D02*
X213639938Y-112058333D01*
X213639938Y-112058333D02*
X213687557Y-112010714D01*
X213687557Y-112010714D02*
X213782795Y-111963095D01*
X213782795Y-111963095D02*
X213878033Y-111963095D01*
X213878033Y-111963095D02*
X214020890Y-112010714D01*
X214020890Y-112010714D02*
X214592319Y-112582142D01*
X214592319Y-112582142D02*
X214592319Y-111963095D01*
X153775595Y-54479819D02*
X153775595Y-55289342D01*
X153775595Y-55289342D02*
X153823214Y-55384580D01*
X153823214Y-55384580D02*
X153870833Y-55432200D01*
X153870833Y-55432200D02*
X153966071Y-55479819D01*
X153966071Y-55479819D02*
X154156547Y-55479819D01*
X154156547Y-55479819D02*
X154251785Y-55432200D01*
X154251785Y-55432200D02*
X154299404Y-55384580D01*
X154299404Y-55384580D02*
X154347023Y-55289342D01*
X154347023Y-55289342D02*
X154347023Y-54479819D01*
X155347023Y-55479819D02*
X154775595Y-55479819D01*
X155061309Y-55479819D02*
X155061309Y-54479819D01*
X155061309Y-54479819D02*
X154966071Y-54622676D01*
X154966071Y-54622676D02*
X154870833Y-54717914D01*
X154870833Y-54717914D02*
X154775595Y-54765533D01*
X256604166Y-46214819D02*
X256604166Y-46929104D01*
X256604166Y-46929104D02*
X256556547Y-47071961D01*
X256556547Y-47071961D02*
X256461309Y-47167200D01*
X256461309Y-47167200D02*
X256318452Y-47214819D01*
X256318452Y-47214819D02*
X256223214Y-47214819D01*
X256985119Y-46214819D02*
X257604166Y-46214819D01*
X257604166Y-46214819D02*
X257270833Y-46595771D01*
X257270833Y-46595771D02*
X257413690Y-46595771D01*
X257413690Y-46595771D02*
X257508928Y-46643390D01*
X257508928Y-46643390D02*
X257556547Y-46691009D01*
X257556547Y-46691009D02*
X257604166Y-46786247D01*
X257604166Y-46786247D02*
X257604166Y-47024342D01*
X257604166Y-47024342D02*
X257556547Y-47119580D01*
X257556547Y-47119580D02*
X257508928Y-47167200D01*
X257508928Y-47167200D02*
X257413690Y-47214819D01*
X257413690Y-47214819D02*
X257127976Y-47214819D01*
X257127976Y-47214819D02*
X257032738Y-47167200D01*
X257032738Y-47167200D02*
X256985119Y-47119580D01*
X127607680Y-54080746D02*
X126893395Y-54080746D01*
X126893395Y-54080746D02*
X126750538Y-54033127D01*
X126750538Y-54033127D02*
X126655300Y-53937889D01*
X126655300Y-53937889D02*
X126607680Y-53795032D01*
X126607680Y-53795032D02*
X126607680Y-53699794D01*
X127512442Y-54509318D02*
X127560061Y-54556937D01*
X127560061Y-54556937D02*
X127607680Y-54652175D01*
X127607680Y-54652175D02*
X127607680Y-54890270D01*
X127607680Y-54890270D02*
X127560061Y-54985508D01*
X127560061Y-54985508D02*
X127512442Y-55033127D01*
X127512442Y-55033127D02*
X127417204Y-55080746D01*
X127417204Y-55080746D02*
X127321966Y-55080746D01*
X127321966Y-55080746D02*
X127179109Y-55033127D01*
X127179109Y-55033127D02*
X126607680Y-54461699D01*
X126607680Y-54461699D02*
X126607680Y-55080746D01*
D13*
%TO.C,Q1*%
X220451100Y-71525500D02*
X220451100Y-119404500D01*
X220451100Y-119404500D02*
X260379900Y-119404500D01*
X260379900Y-71525500D02*
X220451100Y-71525500D01*
X260379900Y-119404500D02*
X260379900Y-71525500D01*
D14*
%TO.C,RV3*%
X187437900Y-125005000D02*
X187437900Y-123625000D01*
X188817900Y-125005000D02*
X187437900Y-125005000D01*
X190087900Y-122245000D02*
X195277900Y-122245000D01*
X190087900Y-125005000D02*
X190087900Y-122245000D01*
X190087900Y-125005000D02*
X195277900Y-125005000D01*
X195277900Y-125005000D02*
X195277900Y-122245000D01*
%TO.C,TP8*%
X175612500Y-38103680D02*
G75*
G02*
X173712500Y-38103680I-950000J0D01*
G01*
X173712500Y-38103680D02*
G75*
G02*
X175612500Y-38103680I950000J0D01*
G01*
%TO.C,D1*%
X240197500Y-39625000D02*
X241217500Y-39625000D01*
X241997500Y-38155000D02*
X241997500Y-41095000D01*
X242117500Y-38155000D02*
X242117500Y-41095000D01*
X242237500Y-38155000D02*
X242237500Y-41095000D01*
X247677500Y-39625000D02*
X246657500Y-39625000D01*
X241217500Y-38155000D02*
X246657500Y-38155000D01*
X246657500Y-41095000D01*
X241217500Y-41095000D01*
X241217500Y-38155000D01*
%TO.C,TP1*%
X139687500Y-51225000D02*
G75*
G02*
X137787500Y-51225000I-950000J0D01*
G01*
X137787500Y-51225000D02*
G75*
G02*
X139687500Y-51225000I950000J0D01*
G01*
%TO.C,R2*%
X134737500Y-57185000D02*
X134737500Y-57955000D01*
X134737500Y-65265000D02*
X134737500Y-64495000D01*
X136107500Y-57955000D02*
X133367500Y-57955000D01*
X133367500Y-64495000D01*
X136107500Y-64495000D01*
X136107500Y-57955000D01*
%TO.C,C8*%
X242428060Y-54010000D02*
X244228060Y-54010000D01*
X243328060Y-53110000D02*
X243328060Y-54910000D01*
X252187500Y-50045000D02*
X252187500Y-68205000D01*
X252227500Y-50045000D02*
X252227500Y-68205000D01*
X252267500Y-50045000D02*
X252267500Y-68205000D01*
X252307500Y-50046000D02*
X252307500Y-68204000D01*
X252347500Y-50046000D02*
X252347500Y-68204000D01*
X252387500Y-50047000D02*
X252387500Y-68203000D01*
X252427500Y-50048000D02*
X252427500Y-68202000D01*
X252467500Y-50049000D02*
X252467500Y-68201000D01*
X252507500Y-50051000D02*
X252507500Y-68199000D01*
X252547500Y-50052000D02*
X252547500Y-68198000D01*
X252587500Y-50054000D02*
X252587500Y-68196000D01*
X252627500Y-50056000D02*
X252627500Y-68194000D01*
X252667500Y-50058000D02*
X252667500Y-68192000D01*
X252707500Y-50060000D02*
X252707500Y-68190000D01*
X252747500Y-50062000D02*
X252747500Y-68188000D01*
X252787500Y-50065000D02*
X252787500Y-68185000D01*
X252827500Y-50067000D02*
X252827500Y-68183000D01*
X252867500Y-50070000D02*
X252867500Y-68180000D01*
X252907500Y-50073000D02*
X252907500Y-68177000D01*
X252947500Y-50077000D02*
X252947500Y-68173000D01*
X252987500Y-50080000D02*
X252987500Y-68170000D01*
X253027500Y-50084000D02*
X253027500Y-68166000D01*
X253067500Y-50088000D02*
X253067500Y-68162000D01*
X253107500Y-50092000D02*
X253107500Y-68158000D01*
X253147500Y-50096000D02*
X253147500Y-68154000D01*
X253187500Y-50100000D02*
X253187500Y-68150000D01*
X253227500Y-50104000D02*
X253227500Y-68146000D01*
X253267500Y-50109000D02*
X253267500Y-68141000D01*
X253307500Y-50114000D02*
X253307500Y-68136000D01*
X253347500Y-50119000D02*
X253347500Y-68131000D01*
X253387500Y-50124000D02*
X253387500Y-68126000D01*
X253427500Y-50130000D02*
X253427500Y-68120000D01*
X253467500Y-50135000D02*
X253467500Y-68115000D01*
X253507500Y-50141000D02*
X253507500Y-68109000D01*
X253547500Y-50147000D02*
X253547500Y-68103000D01*
X253587500Y-50153000D02*
X253587500Y-68097000D01*
X253627500Y-50159000D02*
X253627500Y-68091000D01*
X253667500Y-50166000D02*
X253667500Y-68084000D01*
X253707500Y-50173000D02*
X253707500Y-68077000D01*
X253747500Y-50179000D02*
X253747500Y-68071000D01*
X253787500Y-50186000D02*
X253787500Y-68064000D01*
X253827500Y-50194000D02*
X253827500Y-68056000D01*
X253867500Y-50201000D02*
X253867500Y-68049000D01*
X253907500Y-50209000D02*
X253907500Y-68041000D01*
X253947500Y-50216000D02*
X253947500Y-68034000D01*
X253987500Y-50224000D02*
X253987500Y-68026000D01*
X254027500Y-50233000D02*
X254027500Y-68017000D01*
X254067500Y-50241000D02*
X254067500Y-68009000D01*
X254107500Y-50249000D02*
X254107500Y-68001000D01*
X254147500Y-50258000D02*
X254147500Y-67992000D01*
X254187500Y-50267000D02*
X254187500Y-67983000D01*
X254227500Y-50276000D02*
X254227500Y-67974000D01*
X254267500Y-50285000D02*
X254267500Y-67965000D01*
X254307500Y-50295000D02*
X254307500Y-67955000D01*
X254347500Y-50304000D02*
X254347500Y-67946000D01*
X254387500Y-50314000D02*
X254387500Y-67936000D01*
X254427500Y-50324000D02*
X254427500Y-67926000D01*
X254467500Y-50335000D02*
X254467500Y-67915000D01*
X254507500Y-50345000D02*
X254507500Y-57685000D01*
X254507500Y-60565000D02*
X254507500Y-67905000D01*
X254547500Y-50356000D02*
X254547500Y-57685000D01*
X254547500Y-60565000D02*
X254547500Y-67894000D01*
X254587500Y-50366000D02*
X254587500Y-57685000D01*
X254587500Y-60565000D02*
X254587500Y-67884000D01*
X254627500Y-50377000D02*
X254627500Y-57685000D01*
X254627500Y-60565000D02*
X254627500Y-67873000D01*
X254667500Y-50389000D02*
X254667500Y-57685000D01*
X254667500Y-60565000D02*
X254667500Y-67861000D01*
X254707500Y-50400000D02*
X254707500Y-57685000D01*
X254707500Y-60565000D02*
X254707500Y-67850000D01*
X254747500Y-50412000D02*
X254747500Y-57685000D01*
X254747500Y-60565000D02*
X254747500Y-67838000D01*
X254787500Y-50423000D02*
X254787500Y-57685000D01*
X254787500Y-60565000D02*
X254787500Y-67827000D01*
X254827500Y-50435000D02*
X254827500Y-57685000D01*
X254827500Y-60565000D02*
X254827500Y-67815000D01*
X254867500Y-50448000D02*
X254867500Y-57685000D01*
X254867500Y-60565000D02*
X254867500Y-67802000D01*
X254907500Y-50460000D02*
X254907500Y-57685000D01*
X254907500Y-60565000D02*
X254907500Y-67790000D01*
X254947500Y-50473000D02*
X254947500Y-57685000D01*
X254947500Y-60565000D02*
X254947500Y-67777000D01*
X254987500Y-50485000D02*
X254987500Y-57685000D01*
X254987500Y-60565000D02*
X254987500Y-67765000D01*
X255027500Y-50498000D02*
X255027500Y-57685000D01*
X255027500Y-60565000D02*
X255027500Y-67752000D01*
X255067500Y-50512000D02*
X255067500Y-57685000D01*
X255067500Y-60565000D02*
X255067500Y-67738000D01*
X255107500Y-50525000D02*
X255107500Y-57685000D01*
X255107500Y-60565000D02*
X255107500Y-67725000D01*
X255147500Y-50539000D02*
X255147500Y-57685000D01*
X255147500Y-60565000D02*
X255147500Y-67711000D01*
X255187500Y-50553000D02*
X255187500Y-57685000D01*
X255187500Y-60565000D02*
X255187500Y-67697000D01*
X255227500Y-50567000D02*
X255227500Y-57685000D01*
X255227500Y-60565000D02*
X255227500Y-67683000D01*
X255267500Y-50581000D02*
X255267500Y-57685000D01*
X255267500Y-60565000D02*
X255267500Y-67669000D01*
X255307500Y-50595000D02*
X255307500Y-57685000D01*
X255307500Y-60565000D02*
X255307500Y-67655000D01*
X255347500Y-50610000D02*
X255347500Y-57685000D01*
X255347500Y-60565000D02*
X255347500Y-67640000D01*
X255387500Y-50625000D02*
X255387500Y-57685000D01*
X255387500Y-60565000D02*
X255387500Y-67625000D01*
X255427500Y-50640000D02*
X255427500Y-57685000D01*
X255427500Y-60565000D02*
X255427500Y-67610000D01*
X255467500Y-50655000D02*
X255467500Y-57685000D01*
X255467500Y-60565000D02*
X255467500Y-67595000D01*
X255507500Y-50671000D02*
X255507500Y-57685000D01*
X255507500Y-60565000D02*
X255507500Y-67579000D01*
X255547500Y-50687000D02*
X255547500Y-57685000D01*
X255547500Y-60565000D02*
X255547500Y-67563000D01*
X255587500Y-50702000D02*
X255587500Y-57685000D01*
X255587500Y-60565000D02*
X255587500Y-67548000D01*
X255627500Y-50719000D02*
X255627500Y-57685000D01*
X255627500Y-60565000D02*
X255627500Y-67531000D01*
X255667500Y-50735000D02*
X255667500Y-57685000D01*
X255667500Y-60565000D02*
X255667500Y-67515000D01*
X255707500Y-50752000D02*
X255707500Y-57685000D01*
X255707500Y-60565000D02*
X255707500Y-67498000D01*
X255747500Y-50769000D02*
X255747500Y-57685000D01*
X255747500Y-60565000D02*
X255747500Y-67481000D01*
X255787500Y-50786000D02*
X255787500Y-57685000D01*
X255787500Y-60565000D02*
X255787500Y-67464000D01*
X255827500Y-50803000D02*
X255827500Y-57685000D01*
X255827500Y-60565000D02*
X255827500Y-67447000D01*
X255867500Y-50820000D02*
X255867500Y-57685000D01*
X255867500Y-60565000D02*
X255867500Y-67430000D01*
X255907500Y-50838000D02*
X255907500Y-57685000D01*
X255907500Y-60565000D02*
X255907500Y-67412000D01*
X255947500Y-50856000D02*
X255947500Y-57685000D01*
X255947500Y-60565000D02*
X255947500Y-67394000D01*
X255987500Y-50874000D02*
X255987500Y-57685000D01*
X255987500Y-60565000D02*
X255987500Y-67376000D01*
X256027500Y-50893000D02*
X256027500Y-57685000D01*
X256027500Y-60565000D02*
X256027500Y-67357000D01*
X256067500Y-50912000D02*
X256067500Y-57685000D01*
X256067500Y-60565000D02*
X256067500Y-67338000D01*
X256107500Y-50930000D02*
X256107500Y-57685000D01*
X256107500Y-60565000D02*
X256107500Y-67320000D01*
X256147500Y-50950000D02*
X256147500Y-57685000D01*
X256147500Y-60565000D02*
X256147500Y-67300000D01*
X256187500Y-50969000D02*
X256187500Y-57685000D01*
X256187500Y-60565000D02*
X256187500Y-67281000D01*
X256227500Y-50989000D02*
X256227500Y-57685000D01*
X256227500Y-60565000D02*
X256227500Y-67261000D01*
X256267500Y-51009000D02*
X256267500Y-57685000D01*
X256267500Y-60565000D02*
X256267500Y-67241000D01*
X256307500Y-51029000D02*
X256307500Y-57685000D01*
X256307500Y-60565000D02*
X256307500Y-67221000D01*
X256347500Y-51049000D02*
X256347500Y-57685000D01*
X256347500Y-60565000D02*
X256347500Y-67201000D01*
X256387500Y-51070000D02*
X256387500Y-57685000D01*
X256387500Y-60565000D02*
X256387500Y-67180000D01*
X256427500Y-51091000D02*
X256427500Y-57685000D01*
X256427500Y-60565000D02*
X256427500Y-67159000D01*
X256467500Y-51112000D02*
X256467500Y-57685000D01*
X256467500Y-60565000D02*
X256467500Y-67138000D01*
X256507500Y-51133000D02*
X256507500Y-57685000D01*
X256507500Y-60565000D02*
X256507500Y-67117000D01*
X256547500Y-51155000D02*
X256547500Y-57685000D01*
X256547500Y-60565000D02*
X256547500Y-67095000D01*
X256587500Y-51177000D02*
X256587500Y-57685000D01*
X256587500Y-60565000D02*
X256587500Y-67073000D01*
X256627500Y-51199000D02*
X256627500Y-57685000D01*
X256627500Y-60565000D02*
X256627500Y-67051000D01*
X256667500Y-51221000D02*
X256667500Y-57685000D01*
X256667500Y-60565000D02*
X256667500Y-67029000D01*
X256707500Y-51244000D02*
X256707500Y-57685000D01*
X256707500Y-60565000D02*
X256707500Y-67006000D01*
X256747500Y-51267000D02*
X256747500Y-57685000D01*
X256747500Y-60565000D02*
X256747500Y-66983000D01*
X256787500Y-51290000D02*
X256787500Y-57685000D01*
X256787500Y-60565000D02*
X256787500Y-66960000D01*
X256827500Y-51314000D02*
X256827500Y-57685000D01*
X256827500Y-60565000D02*
X256827500Y-66936000D01*
X256867500Y-51337000D02*
X256867500Y-57685000D01*
X256867500Y-60565000D02*
X256867500Y-66913000D01*
X256907500Y-51361000D02*
X256907500Y-57685000D01*
X256907500Y-60565000D02*
X256907500Y-66889000D01*
X256947500Y-51386000D02*
X256947500Y-57685000D01*
X256947500Y-60565000D02*
X256947500Y-66864000D01*
X256987500Y-51410000D02*
X256987500Y-57685000D01*
X256987500Y-60565000D02*
X256987500Y-66840000D01*
X257027500Y-51435000D02*
X257027500Y-57685000D01*
X257027500Y-60565000D02*
X257027500Y-66815000D01*
X257067500Y-51460000D02*
X257067500Y-57685000D01*
X257067500Y-60565000D02*
X257067500Y-66790000D01*
X257107500Y-51486000D02*
X257107500Y-57685000D01*
X257107500Y-60565000D02*
X257107500Y-66764000D01*
X257147500Y-51512000D02*
X257147500Y-57685000D01*
X257147500Y-60565000D02*
X257147500Y-66738000D01*
X257187500Y-51538000D02*
X257187500Y-57685000D01*
X257187500Y-60565000D02*
X257187500Y-66712000D01*
X257227500Y-51564000D02*
X257227500Y-57685000D01*
X257227500Y-60565000D02*
X257227500Y-66686000D01*
X257267500Y-51591000D02*
X257267500Y-57685000D01*
X257267500Y-60565000D02*
X257267500Y-66659000D01*
X257307500Y-51618000D02*
X257307500Y-57685000D01*
X257307500Y-60565000D02*
X257307500Y-66632000D01*
X257347500Y-51645000D02*
X257347500Y-57685000D01*
X257347500Y-60565000D02*
X257347500Y-66605000D01*
X257387500Y-51673000D02*
X257387500Y-66577000D01*
X257427500Y-51701000D02*
X257427500Y-66549000D01*
X257467500Y-51729000D02*
X257467500Y-66521000D01*
X257507500Y-51757000D02*
X257507500Y-66493000D01*
X257547500Y-51786000D02*
X257547500Y-66464000D01*
X257587500Y-51816000D02*
X257587500Y-66434000D01*
X257627500Y-51845000D02*
X257627500Y-66405000D01*
X257667500Y-51875000D02*
X257667500Y-66375000D01*
X257707500Y-51905000D02*
X257707500Y-66345000D01*
X257747500Y-51936000D02*
X257747500Y-66314000D01*
X257787500Y-51967000D02*
X257787500Y-66283000D01*
X257827500Y-51998000D02*
X257827500Y-66252000D01*
X257867500Y-52030000D02*
X257867500Y-66220000D01*
X257907500Y-52062000D02*
X257907500Y-66188000D01*
X257947500Y-52094000D02*
X257947500Y-66156000D01*
X257987500Y-52127000D02*
X257987500Y-66123000D01*
X258027500Y-52160000D02*
X258027500Y-66090000D01*
X258067500Y-52194000D02*
X258067500Y-66056000D01*
X258107500Y-52228000D02*
X258107500Y-66022000D01*
X258147500Y-52262000D02*
X258147500Y-65988000D01*
X258187500Y-52297000D02*
X258187500Y-65953000D01*
X258227500Y-52332000D02*
X258227500Y-65918000D01*
X258267500Y-52367000D02*
X258267500Y-65883000D01*
X258307500Y-52403000D02*
X258307500Y-65847000D01*
X258347500Y-52440000D02*
X258347500Y-65810000D01*
X258387500Y-52477000D02*
X258387500Y-65773000D01*
X258427500Y-52514000D02*
X258427500Y-65736000D01*
X258467500Y-52552000D02*
X258467500Y-65698000D01*
X258507500Y-52590000D02*
X258507500Y-65660000D01*
X258547500Y-52629000D02*
X258547500Y-65621000D01*
X258587500Y-52668000D02*
X258587500Y-65582000D01*
X258627500Y-52707000D02*
X258627500Y-65543000D01*
X258667500Y-52748000D02*
X258667500Y-65502000D01*
X258707500Y-52788000D02*
X258707500Y-65462000D01*
X258747500Y-52829000D02*
X258747500Y-65421000D01*
X258787500Y-52871000D02*
X258787500Y-65379000D01*
X258827500Y-52913000D02*
X258827500Y-65337000D01*
X258867500Y-52956000D02*
X258867500Y-65294000D01*
X258907500Y-52999000D02*
X258907500Y-65251000D01*
X258947500Y-53043000D02*
X258947500Y-65207000D01*
X258987500Y-53088000D02*
X258987500Y-65162000D01*
X259027500Y-53133000D02*
X259027500Y-65117000D01*
X259067500Y-53178000D02*
X259067500Y-65072000D01*
X259107500Y-53225000D02*
X259107500Y-65025000D01*
X259147500Y-53272000D02*
X259147500Y-64978000D01*
X259187500Y-53319000D02*
X259187500Y-64931000D01*
X259227500Y-53367000D02*
X259227500Y-64883000D01*
X259267500Y-53416000D02*
X259267500Y-64834000D01*
X259307500Y-53466000D02*
X259307500Y-64784000D01*
X259347500Y-53516000D02*
X259347500Y-64734000D01*
X259387500Y-53567000D02*
X259387500Y-64683000D01*
X259427500Y-53619000D02*
X259427500Y-64631000D01*
X259467500Y-53672000D02*
X259467500Y-64578000D01*
X259507500Y-53725000D02*
X259507500Y-64525000D01*
X259547500Y-53779000D02*
X259547500Y-64471000D01*
X259587500Y-53834000D02*
X259587500Y-64416000D01*
X259627500Y-53890000D02*
X259627500Y-64360000D01*
X259667500Y-53947000D02*
X259667500Y-64303000D01*
X259707500Y-54005000D02*
X259707500Y-64245000D01*
X259747500Y-54064000D02*
X259747500Y-64186000D01*
X259787500Y-54124000D02*
X259787500Y-64126000D01*
X259827500Y-54185000D02*
X259827500Y-64065000D01*
X259867500Y-54246000D02*
X259867500Y-64004000D01*
X259907500Y-54309000D02*
X259907500Y-63941000D01*
X259947500Y-54374000D02*
X259947500Y-63876000D01*
X259987500Y-54439000D02*
X259987500Y-63811000D01*
X260027500Y-54506000D02*
X260027500Y-63744000D01*
X260067500Y-54574000D02*
X260067500Y-63676000D01*
X260107500Y-54643000D02*
X260107500Y-63607000D01*
X260147500Y-54714000D02*
X260147500Y-63536000D01*
X260187500Y-54786000D02*
X260187500Y-63464000D01*
X260227500Y-54860000D02*
X260227500Y-63390000D01*
X260267500Y-54936000D02*
X260267500Y-63314000D01*
X260307500Y-55013000D02*
X260307500Y-63237000D01*
X260347500Y-55092000D02*
X260347500Y-63158000D01*
X260387500Y-55173000D02*
X260387500Y-63077000D01*
X260427500Y-55256000D02*
X260427500Y-62994000D01*
X260467500Y-55342000D02*
X260467500Y-62908000D01*
X260507500Y-55430000D02*
X260507500Y-62820000D01*
X260547500Y-55520000D02*
X260547500Y-62730000D01*
X260587500Y-55613000D02*
X260587500Y-62637000D01*
X260627500Y-55709000D02*
X260627500Y-62541000D01*
X260667500Y-55809000D02*
X260667500Y-62441000D01*
X260707500Y-55912000D02*
X260707500Y-62338000D01*
X260747500Y-56018000D02*
X260747500Y-62232000D01*
X260787500Y-56129000D02*
X260787500Y-62121000D01*
X260827500Y-56245000D02*
X260827500Y-62005000D01*
X260867500Y-56366000D02*
X260867500Y-61884000D01*
X260907500Y-56494000D02*
X260907500Y-61756000D01*
X260947500Y-56628000D02*
X260947500Y-61622000D01*
X260987500Y-56770000D02*
X260987500Y-61480000D01*
X261027500Y-56923000D02*
X261027500Y-61327000D01*
X261067500Y-57087000D02*
X261067500Y-61163000D01*
X261107500Y-57266000D02*
X261107500Y-60984000D01*
X261147500Y-57464000D02*
X261147500Y-60786000D01*
X261187500Y-57690000D02*
X261187500Y-60560000D01*
X261227500Y-57960000D02*
X261227500Y-60290000D01*
X261267500Y-58312000D02*
X261267500Y-59938000D01*
X261307500Y-59165000D02*
X261307500Y-59085000D01*
X261307500Y-59125000D02*
G75*
G02*
X243067500Y-59125000I-9120000J0D01*
G01*
X243067500Y-59125000D02*
G75*
G02*
X261307500Y-59125000I9120000J0D01*
G01*
%TO.C,R15*%
X129537500Y-82185000D02*
X129537500Y-82955000D01*
X129537500Y-90265000D02*
X129537500Y-89495000D01*
X128167500Y-89495000D02*
X130907500Y-89495000D01*
X130907500Y-82955000D01*
X128167500Y-82955000D01*
X128167500Y-89495000D01*
%TO.C,C3*%
X211297500Y-48469888D02*
X209757500Y-48469888D01*
X211297500Y-48509888D02*
X209757500Y-48509888D01*
X211297500Y-48549888D02*
X209758500Y-48549888D01*
X211297500Y-48589888D02*
X209760500Y-48589888D01*
X211297500Y-48629888D02*
X209762500Y-48629888D01*
X211297500Y-48669888D02*
X209765500Y-48669888D01*
X211297500Y-48709888D02*
X209768500Y-48709888D01*
X211297500Y-48749888D02*
X209772500Y-48749888D01*
X211297500Y-48789888D02*
X209777500Y-48789888D01*
X211297500Y-48829888D02*
X209782500Y-48829888D01*
X211297500Y-48869888D02*
X209788500Y-48869888D01*
X211297500Y-48909888D02*
X209794500Y-48909888D01*
X211297500Y-48949888D02*
X209801500Y-48949888D01*
X211297500Y-48989888D02*
X209809500Y-48989888D01*
X211297500Y-49029888D02*
X209818500Y-49029888D01*
X211297500Y-49069888D02*
X209827500Y-49069888D01*
X211297500Y-49109888D02*
X209836500Y-49109888D01*
X211297500Y-49149888D02*
X209847500Y-49149888D01*
X211297500Y-49189888D02*
X209858500Y-49189888D01*
X211297500Y-49229888D02*
X209870500Y-49229888D01*
X211297500Y-49269888D02*
X209882500Y-49269888D01*
X211297500Y-49309888D02*
X209895500Y-49309888D01*
X211297500Y-49349888D02*
X209909500Y-49349888D01*
X211297500Y-49389888D02*
X209924500Y-49389888D01*
X211297500Y-49429888D02*
X209939500Y-49429888D01*
X211297500Y-49469888D02*
X209955500Y-49469888D01*
X211297500Y-49509888D02*
X209972500Y-49509888D01*
X211297500Y-49549888D02*
X209990500Y-49549888D01*
X211297500Y-49589888D02*
X210008500Y-49589888D01*
X211297500Y-49629888D02*
X210028500Y-49629888D01*
X211297500Y-49669888D02*
X210048500Y-49669888D01*
X211297500Y-49709888D02*
X210069500Y-49709888D01*
X211297500Y-49749888D02*
X210091500Y-49749888D01*
X211297500Y-49789888D02*
X210114500Y-49789888D01*
X211297500Y-49829888D02*
X210138500Y-49829888D01*
X211297500Y-49869888D02*
X210162500Y-49869888D01*
X211297500Y-49909888D02*
X210188500Y-49909888D01*
X211297500Y-49949888D02*
X210215500Y-49949888D01*
X211297500Y-49989888D02*
X210243500Y-49989888D01*
X211297500Y-50029888D02*
X210272500Y-50029888D01*
X211297500Y-50069888D02*
X210302500Y-50069888D01*
X211297500Y-50109888D02*
X210334500Y-50109888D01*
X211297500Y-50149888D02*
X210367500Y-50149888D01*
X211297500Y-50189888D02*
X210401500Y-50189888D01*
X211297500Y-50229888D02*
X210436500Y-50229888D01*
X211297500Y-50269888D02*
X210473500Y-50269888D01*
X211297500Y-50309888D02*
X210512500Y-50309888D01*
X211297500Y-50349888D02*
X210552500Y-50349888D01*
X211297500Y-50389888D02*
X210594500Y-50389888D01*
X211297500Y-50429888D02*
X210638500Y-50429888D01*
X211297500Y-50469888D02*
X210685500Y-50469888D01*
X212620500Y-51069888D02*
X212054500Y-51069888D01*
X212854500Y-51029888D02*
X211820500Y-51029888D01*
X213014500Y-50989888D02*
X211660500Y-50989888D01*
X213142500Y-50949888D02*
X211532500Y-50949888D01*
X213251500Y-50909888D02*
X211423500Y-50909888D01*
X213348500Y-50869888D02*
X211326500Y-50869888D01*
X213435500Y-50829888D02*
X211239500Y-50829888D01*
X213514500Y-50789888D02*
X211160500Y-50789888D01*
X213588500Y-50749888D02*
X211086500Y-50749888D01*
X213656500Y-50709888D02*
X211018500Y-50709888D01*
X213720500Y-50669888D02*
X210954500Y-50669888D01*
X213780500Y-50629888D02*
X210894500Y-50629888D01*
X213812500Y-45665113D02*
X213812500Y-46165113D01*
X213836500Y-50589888D02*
X210838500Y-50589888D01*
X213890500Y-50549888D02*
X210784500Y-50549888D01*
X213941500Y-50509888D02*
X210733500Y-50509888D01*
X213989500Y-50469888D02*
X213377500Y-50469888D01*
X214036500Y-50429888D02*
X213377500Y-50429888D01*
X214062500Y-45915113D02*
X213562500Y-45915113D01*
X214080500Y-50389888D02*
X213377500Y-50389888D01*
X214122500Y-50349888D02*
X213377500Y-50349888D01*
X214162500Y-50309888D02*
X213377500Y-50309888D01*
X214201500Y-50269888D02*
X213377500Y-50269888D01*
X214238500Y-50229888D02*
X213377500Y-50229888D01*
X214273500Y-50189888D02*
X213377500Y-50189888D01*
X214307500Y-50149888D02*
X213377500Y-50149888D01*
X214340500Y-50109888D02*
X213377500Y-50109888D01*
X214372500Y-50069888D02*
X213377500Y-50069888D01*
X214402500Y-50029888D02*
X213377500Y-50029888D01*
X214431500Y-49989888D02*
X213377500Y-49989888D01*
X214459500Y-49949888D02*
X213377500Y-49949888D01*
X214486500Y-49909888D02*
X213377500Y-49909888D01*
X214512500Y-49869888D02*
X213377500Y-49869888D01*
X214536500Y-49829888D02*
X213377500Y-49829888D01*
X214560500Y-49789888D02*
X213377500Y-49789888D01*
X214583500Y-49749888D02*
X213377500Y-49749888D01*
X214605500Y-49709888D02*
X213377500Y-49709888D01*
X214626500Y-49669888D02*
X213377500Y-49669888D01*
X214646500Y-49629888D02*
X213377500Y-49629888D01*
X214666500Y-49589888D02*
X213377500Y-49589888D01*
X214684500Y-49549888D02*
X213377500Y-49549888D01*
X214702500Y-49509888D02*
X213377500Y-49509888D01*
X214719500Y-49469888D02*
X213377500Y-49469888D01*
X214735500Y-49429888D02*
X213377500Y-49429888D01*
X214750500Y-49389888D02*
X213377500Y-49389888D01*
X214765500Y-49349888D02*
X213377500Y-49349888D01*
X214779500Y-49309888D02*
X213377500Y-49309888D01*
X214792500Y-49269888D02*
X213377500Y-49269888D01*
X214804500Y-49229888D02*
X213377500Y-49229888D01*
X214816500Y-49189888D02*
X213377500Y-49189888D01*
X214827500Y-49149888D02*
X213377500Y-49149888D01*
X214838500Y-49109888D02*
X213377500Y-49109888D01*
X214847500Y-49069888D02*
X213377500Y-49069888D01*
X214856500Y-49029888D02*
X213377500Y-49029888D01*
X214865500Y-48989888D02*
X213377500Y-48989888D01*
X214873500Y-48949888D02*
X213377500Y-48949888D01*
X214880500Y-48909888D02*
X213377500Y-48909888D01*
X214886500Y-48869888D02*
X213377500Y-48869888D01*
X214892500Y-48829888D02*
X213377500Y-48829888D01*
X214897500Y-48789888D02*
X213377500Y-48789888D01*
X214902500Y-48749888D02*
X213377500Y-48749888D01*
X214906500Y-48709888D02*
X213377500Y-48709888D01*
X214909500Y-48669888D02*
X213377500Y-48669888D01*
X214912500Y-48629888D02*
X213377500Y-48629888D01*
X214914500Y-48589888D02*
X213377500Y-48589888D01*
X214916500Y-48549888D02*
X213377500Y-48549888D01*
X214917500Y-48469888D02*
X213377500Y-48469888D01*
X214917500Y-48509888D02*
X213377500Y-48509888D01*
X214957500Y-48469888D02*
G75*
G02*
X209717500Y-48469888I-2620000J0D01*
G01*
X209717500Y-48469888D02*
G75*
G02*
X214957500Y-48469888I2620000J0D01*
G01*
%TO.C,TP6*%
X244812500Y-125503680D02*
G75*
G02*
X242912500Y-125503680I-950000J0D01*
G01*
X242912500Y-125503680D02*
G75*
G02*
X244812500Y-125503680I950000J0D01*
G01*
%TO.C,R14*%
X206097500Y-88425000D02*
X206867500Y-88425000D01*
X214177500Y-88425000D02*
X213407500Y-88425000D01*
X206867500Y-87055000D02*
X213407500Y-87055000D01*
X213407500Y-89795000D01*
X206867500Y-89795000D01*
X206867500Y-87055000D01*
%TO.C,D3*%
X225117500Y-44625000D02*
X226137500Y-44625000D01*
X230557500Y-46095000D02*
X230557500Y-43155000D01*
X230677500Y-46095000D02*
X230677500Y-43155000D01*
X230797500Y-46095000D02*
X230797500Y-43155000D01*
X232597500Y-44625000D02*
X231577500Y-44625000D01*
X231577500Y-46095000D02*
X226137500Y-46095000D01*
X226137500Y-43155000D01*
X231577500Y-43155000D01*
X231577500Y-46095000D01*
%TO.C,R10*%
X206097500Y-83825000D02*
X206867500Y-83825000D01*
X214177500Y-83825000D02*
X213407500Y-83825000D01*
X206867500Y-82455000D02*
X213407500Y-82455000D01*
X213407500Y-85195000D01*
X206867500Y-85195000D01*
X206867500Y-82455000D01*
%TO.C,C7*%
X219950280Y-54010000D02*
X221750280Y-54010000D01*
X220850280Y-53110000D02*
X220850280Y-54910000D01*
X229709720Y-50045000D02*
X229709720Y-68205000D01*
X229749720Y-50045000D02*
X229749720Y-68205000D01*
X229789720Y-50045000D02*
X229789720Y-68205000D01*
X229829720Y-50046000D02*
X229829720Y-68204000D01*
X229869720Y-50046000D02*
X229869720Y-68204000D01*
X229909720Y-50047000D02*
X229909720Y-68203000D01*
X229949720Y-50048000D02*
X229949720Y-68202000D01*
X229989720Y-50049000D02*
X229989720Y-68201000D01*
X230029720Y-50051000D02*
X230029720Y-68199000D01*
X230069720Y-50052000D02*
X230069720Y-68198000D01*
X230109720Y-50054000D02*
X230109720Y-68196000D01*
X230149720Y-50056000D02*
X230149720Y-68194000D01*
X230189720Y-50058000D02*
X230189720Y-68192000D01*
X230229720Y-50060000D02*
X230229720Y-68190000D01*
X230269720Y-50062000D02*
X230269720Y-68188000D01*
X230309720Y-50065000D02*
X230309720Y-68185000D01*
X230349720Y-50067000D02*
X230349720Y-68183000D01*
X230389720Y-50070000D02*
X230389720Y-68180000D01*
X230429720Y-50073000D02*
X230429720Y-68177000D01*
X230469720Y-50077000D02*
X230469720Y-68173000D01*
X230509720Y-50080000D02*
X230509720Y-68170000D01*
X230549720Y-50084000D02*
X230549720Y-68166000D01*
X230589720Y-50088000D02*
X230589720Y-68162000D01*
X230629720Y-50092000D02*
X230629720Y-68158000D01*
X230669720Y-50096000D02*
X230669720Y-68154000D01*
X230709720Y-50100000D02*
X230709720Y-68150000D01*
X230749720Y-50104000D02*
X230749720Y-68146000D01*
X230789720Y-50109000D02*
X230789720Y-68141000D01*
X230829720Y-50114000D02*
X230829720Y-68136000D01*
X230869720Y-50119000D02*
X230869720Y-68131000D01*
X230909720Y-50124000D02*
X230909720Y-68126000D01*
X230949720Y-50130000D02*
X230949720Y-68120000D01*
X230989720Y-50135000D02*
X230989720Y-68115000D01*
X231029720Y-50141000D02*
X231029720Y-68109000D01*
X231069720Y-50147000D02*
X231069720Y-68103000D01*
X231109720Y-50153000D02*
X231109720Y-68097000D01*
X231149720Y-50159000D02*
X231149720Y-68091000D01*
X231189720Y-50166000D02*
X231189720Y-68084000D01*
X231229720Y-50173000D02*
X231229720Y-68077000D01*
X231269720Y-50179000D02*
X231269720Y-68071000D01*
X231309720Y-50186000D02*
X231309720Y-68064000D01*
X231349720Y-50194000D02*
X231349720Y-68056000D01*
X231389720Y-50201000D02*
X231389720Y-68049000D01*
X231429720Y-50209000D02*
X231429720Y-68041000D01*
X231469720Y-50216000D02*
X231469720Y-68034000D01*
X231509720Y-50224000D02*
X231509720Y-68026000D01*
X231549720Y-50233000D02*
X231549720Y-68017000D01*
X231589720Y-50241000D02*
X231589720Y-68009000D01*
X231629720Y-50249000D02*
X231629720Y-68001000D01*
X231669720Y-50258000D02*
X231669720Y-67992000D01*
X231709720Y-50267000D02*
X231709720Y-67983000D01*
X231749720Y-50276000D02*
X231749720Y-67974000D01*
X231789720Y-50285000D02*
X231789720Y-67965000D01*
X231829720Y-50295000D02*
X231829720Y-67955000D01*
X231869720Y-50304000D02*
X231869720Y-67946000D01*
X231909720Y-50314000D02*
X231909720Y-67936000D01*
X231949720Y-50324000D02*
X231949720Y-67926000D01*
X231989720Y-50335000D02*
X231989720Y-67915000D01*
X232029720Y-50345000D02*
X232029720Y-57685000D01*
X232029720Y-60565000D02*
X232029720Y-67905000D01*
X232069720Y-50356000D02*
X232069720Y-57685000D01*
X232069720Y-60565000D02*
X232069720Y-67894000D01*
X232109720Y-50366000D02*
X232109720Y-57685000D01*
X232109720Y-60565000D02*
X232109720Y-67884000D01*
X232149720Y-50377000D02*
X232149720Y-57685000D01*
X232149720Y-60565000D02*
X232149720Y-67873000D01*
X232189720Y-50389000D02*
X232189720Y-57685000D01*
X232189720Y-60565000D02*
X232189720Y-67861000D01*
X232229720Y-50400000D02*
X232229720Y-57685000D01*
X232229720Y-60565000D02*
X232229720Y-67850000D01*
X232269720Y-50412000D02*
X232269720Y-57685000D01*
X232269720Y-60565000D02*
X232269720Y-67838000D01*
X232309720Y-50423000D02*
X232309720Y-57685000D01*
X232309720Y-60565000D02*
X232309720Y-67827000D01*
X232349720Y-50435000D02*
X232349720Y-57685000D01*
X232349720Y-60565000D02*
X232349720Y-67815000D01*
X232389720Y-50448000D02*
X232389720Y-57685000D01*
X232389720Y-60565000D02*
X232389720Y-67802000D01*
X232429720Y-50460000D02*
X232429720Y-57685000D01*
X232429720Y-60565000D02*
X232429720Y-67790000D01*
X232469720Y-50473000D02*
X232469720Y-57685000D01*
X232469720Y-60565000D02*
X232469720Y-67777000D01*
X232509720Y-50485000D02*
X232509720Y-57685000D01*
X232509720Y-60565000D02*
X232509720Y-67765000D01*
X232549720Y-50498000D02*
X232549720Y-57685000D01*
X232549720Y-60565000D02*
X232549720Y-67752000D01*
X232589720Y-50512000D02*
X232589720Y-57685000D01*
X232589720Y-60565000D02*
X232589720Y-67738000D01*
X232629720Y-50525000D02*
X232629720Y-57685000D01*
X232629720Y-60565000D02*
X232629720Y-67725000D01*
X232669720Y-50539000D02*
X232669720Y-57685000D01*
X232669720Y-60565000D02*
X232669720Y-67711000D01*
X232709720Y-50553000D02*
X232709720Y-57685000D01*
X232709720Y-60565000D02*
X232709720Y-67697000D01*
X232749720Y-50567000D02*
X232749720Y-57685000D01*
X232749720Y-60565000D02*
X232749720Y-67683000D01*
X232789720Y-50581000D02*
X232789720Y-57685000D01*
X232789720Y-60565000D02*
X232789720Y-67669000D01*
X232829720Y-50595000D02*
X232829720Y-57685000D01*
X232829720Y-60565000D02*
X232829720Y-67655000D01*
X232869720Y-50610000D02*
X232869720Y-57685000D01*
X232869720Y-60565000D02*
X232869720Y-67640000D01*
X232909720Y-50625000D02*
X232909720Y-57685000D01*
X232909720Y-60565000D02*
X232909720Y-67625000D01*
X232949720Y-50640000D02*
X232949720Y-57685000D01*
X232949720Y-60565000D02*
X232949720Y-67610000D01*
X232989720Y-50655000D02*
X232989720Y-57685000D01*
X232989720Y-60565000D02*
X232989720Y-67595000D01*
X233029720Y-50671000D02*
X233029720Y-57685000D01*
X233029720Y-60565000D02*
X233029720Y-67579000D01*
X233069720Y-50687000D02*
X233069720Y-57685000D01*
X233069720Y-60565000D02*
X233069720Y-67563000D01*
X233109720Y-50702000D02*
X233109720Y-57685000D01*
X233109720Y-60565000D02*
X233109720Y-67548000D01*
X233149720Y-50719000D02*
X233149720Y-57685000D01*
X233149720Y-60565000D02*
X233149720Y-67531000D01*
X233189720Y-50735000D02*
X233189720Y-57685000D01*
X233189720Y-60565000D02*
X233189720Y-67515000D01*
X233229720Y-50752000D02*
X233229720Y-57685000D01*
X233229720Y-60565000D02*
X233229720Y-67498000D01*
X233269720Y-50769000D02*
X233269720Y-57685000D01*
X233269720Y-60565000D02*
X233269720Y-67481000D01*
X233309720Y-50786000D02*
X233309720Y-57685000D01*
X233309720Y-60565000D02*
X233309720Y-67464000D01*
X233349720Y-50803000D02*
X233349720Y-57685000D01*
X233349720Y-60565000D02*
X233349720Y-67447000D01*
X233389720Y-50820000D02*
X233389720Y-57685000D01*
X233389720Y-60565000D02*
X233389720Y-67430000D01*
X233429720Y-50838000D02*
X233429720Y-57685000D01*
X233429720Y-60565000D02*
X233429720Y-67412000D01*
X233469720Y-50856000D02*
X233469720Y-57685000D01*
X233469720Y-60565000D02*
X233469720Y-67394000D01*
X233509720Y-50874000D02*
X233509720Y-57685000D01*
X233509720Y-60565000D02*
X233509720Y-67376000D01*
X233549720Y-50893000D02*
X233549720Y-57685000D01*
X233549720Y-60565000D02*
X233549720Y-67357000D01*
X233589720Y-50912000D02*
X233589720Y-57685000D01*
X233589720Y-60565000D02*
X233589720Y-67338000D01*
X233629720Y-50930000D02*
X233629720Y-57685000D01*
X233629720Y-60565000D02*
X233629720Y-67320000D01*
X233669720Y-50950000D02*
X233669720Y-57685000D01*
X233669720Y-60565000D02*
X233669720Y-67300000D01*
X233709720Y-50969000D02*
X233709720Y-57685000D01*
X233709720Y-60565000D02*
X233709720Y-67281000D01*
X233749720Y-50989000D02*
X233749720Y-57685000D01*
X233749720Y-60565000D02*
X233749720Y-67261000D01*
X233789720Y-51009000D02*
X233789720Y-57685000D01*
X233789720Y-60565000D02*
X233789720Y-67241000D01*
X233829720Y-51029000D02*
X233829720Y-57685000D01*
X233829720Y-60565000D02*
X233829720Y-67221000D01*
X233869720Y-51049000D02*
X233869720Y-57685000D01*
X233869720Y-60565000D02*
X233869720Y-67201000D01*
X233909720Y-51070000D02*
X233909720Y-57685000D01*
X233909720Y-60565000D02*
X233909720Y-67180000D01*
X233949720Y-51091000D02*
X233949720Y-57685000D01*
X233949720Y-60565000D02*
X233949720Y-67159000D01*
X233989720Y-51112000D02*
X233989720Y-57685000D01*
X233989720Y-60565000D02*
X233989720Y-67138000D01*
X234029720Y-51133000D02*
X234029720Y-57685000D01*
X234029720Y-60565000D02*
X234029720Y-67117000D01*
X234069720Y-51155000D02*
X234069720Y-57685000D01*
X234069720Y-60565000D02*
X234069720Y-67095000D01*
X234109720Y-51177000D02*
X234109720Y-57685000D01*
X234109720Y-60565000D02*
X234109720Y-67073000D01*
X234149720Y-51199000D02*
X234149720Y-57685000D01*
X234149720Y-60565000D02*
X234149720Y-67051000D01*
X234189720Y-51221000D02*
X234189720Y-57685000D01*
X234189720Y-60565000D02*
X234189720Y-67029000D01*
X234229720Y-51244000D02*
X234229720Y-57685000D01*
X234229720Y-60565000D02*
X234229720Y-67006000D01*
X234269720Y-51267000D02*
X234269720Y-57685000D01*
X234269720Y-60565000D02*
X234269720Y-66983000D01*
X234309720Y-51290000D02*
X234309720Y-57685000D01*
X234309720Y-60565000D02*
X234309720Y-66960000D01*
X234349720Y-51314000D02*
X234349720Y-57685000D01*
X234349720Y-60565000D02*
X234349720Y-66936000D01*
X234389720Y-51337000D02*
X234389720Y-57685000D01*
X234389720Y-60565000D02*
X234389720Y-66913000D01*
X234429720Y-51361000D02*
X234429720Y-57685000D01*
X234429720Y-60565000D02*
X234429720Y-66889000D01*
X234469720Y-51386000D02*
X234469720Y-57685000D01*
X234469720Y-60565000D02*
X234469720Y-66864000D01*
X234509720Y-51410000D02*
X234509720Y-57685000D01*
X234509720Y-60565000D02*
X234509720Y-66840000D01*
X234549720Y-51435000D02*
X234549720Y-57685000D01*
X234549720Y-60565000D02*
X234549720Y-66815000D01*
X234589720Y-51460000D02*
X234589720Y-57685000D01*
X234589720Y-60565000D02*
X234589720Y-66790000D01*
X234629720Y-51486000D02*
X234629720Y-57685000D01*
X234629720Y-60565000D02*
X234629720Y-66764000D01*
X234669720Y-51512000D02*
X234669720Y-57685000D01*
X234669720Y-60565000D02*
X234669720Y-66738000D01*
X234709720Y-51538000D02*
X234709720Y-57685000D01*
X234709720Y-60565000D02*
X234709720Y-66712000D01*
X234749720Y-51564000D02*
X234749720Y-57685000D01*
X234749720Y-60565000D02*
X234749720Y-66686000D01*
X234789720Y-51591000D02*
X234789720Y-57685000D01*
X234789720Y-60565000D02*
X234789720Y-66659000D01*
X234829720Y-51618000D02*
X234829720Y-57685000D01*
X234829720Y-60565000D02*
X234829720Y-66632000D01*
X234869720Y-51645000D02*
X234869720Y-57685000D01*
X234869720Y-60565000D02*
X234869720Y-66605000D01*
X234909720Y-51673000D02*
X234909720Y-66577000D01*
X234949720Y-51701000D02*
X234949720Y-66549000D01*
X234989720Y-51729000D02*
X234989720Y-66521000D01*
X235029720Y-51757000D02*
X235029720Y-66493000D01*
X235069720Y-51786000D02*
X235069720Y-66464000D01*
X235109720Y-51816000D02*
X235109720Y-66434000D01*
X235149720Y-51845000D02*
X235149720Y-66405000D01*
X235189720Y-51875000D02*
X235189720Y-66375000D01*
X235229720Y-51905000D02*
X235229720Y-66345000D01*
X235269720Y-51936000D02*
X235269720Y-66314000D01*
X235309720Y-51967000D02*
X235309720Y-66283000D01*
X235349720Y-51998000D02*
X235349720Y-66252000D01*
X235389720Y-52030000D02*
X235389720Y-66220000D01*
X235429720Y-52062000D02*
X235429720Y-66188000D01*
X235469720Y-52094000D02*
X235469720Y-66156000D01*
X235509720Y-52127000D02*
X235509720Y-66123000D01*
X235549720Y-52160000D02*
X235549720Y-66090000D01*
X235589720Y-52194000D02*
X235589720Y-66056000D01*
X235629720Y-52228000D02*
X235629720Y-66022000D01*
X235669720Y-52262000D02*
X235669720Y-65988000D01*
X235709720Y-52297000D02*
X235709720Y-65953000D01*
X235749720Y-52332000D02*
X235749720Y-65918000D01*
X235789720Y-52367000D02*
X235789720Y-65883000D01*
X235829720Y-52403000D02*
X235829720Y-65847000D01*
X235869720Y-52440000D02*
X235869720Y-65810000D01*
X235909720Y-52477000D02*
X235909720Y-65773000D01*
X235949720Y-52514000D02*
X235949720Y-65736000D01*
X235989720Y-52552000D02*
X235989720Y-65698000D01*
X236029720Y-52590000D02*
X236029720Y-65660000D01*
X236069720Y-52629000D02*
X236069720Y-65621000D01*
X236109720Y-52668000D02*
X236109720Y-65582000D01*
X236149720Y-52707000D02*
X236149720Y-65543000D01*
X236189720Y-52748000D02*
X236189720Y-65502000D01*
X236229720Y-52788000D02*
X236229720Y-65462000D01*
X236269720Y-52829000D02*
X236269720Y-65421000D01*
X236309720Y-52871000D02*
X236309720Y-65379000D01*
X236349720Y-52913000D02*
X236349720Y-65337000D01*
X236389720Y-52956000D02*
X236389720Y-65294000D01*
X236429720Y-52999000D02*
X236429720Y-65251000D01*
X236469720Y-53043000D02*
X236469720Y-65207000D01*
X236509720Y-53088000D02*
X236509720Y-65162000D01*
X236549720Y-53133000D02*
X236549720Y-65117000D01*
X236589720Y-53178000D02*
X236589720Y-65072000D01*
X236629720Y-53225000D02*
X236629720Y-65025000D01*
X236669720Y-53272000D02*
X236669720Y-64978000D01*
X236709720Y-53319000D02*
X236709720Y-64931000D01*
X236749720Y-53367000D02*
X236749720Y-64883000D01*
X236789720Y-53416000D02*
X236789720Y-64834000D01*
X236829720Y-53466000D02*
X236829720Y-64784000D01*
X236869720Y-53516000D02*
X236869720Y-64734000D01*
X236909720Y-53567000D02*
X236909720Y-64683000D01*
X236949720Y-53619000D02*
X236949720Y-64631000D01*
X236989720Y-53672000D02*
X236989720Y-64578000D01*
X237029720Y-53725000D02*
X237029720Y-64525000D01*
X237069720Y-53779000D02*
X237069720Y-64471000D01*
X237109720Y-53834000D02*
X237109720Y-64416000D01*
X237149720Y-53890000D02*
X237149720Y-64360000D01*
X237189720Y-53947000D02*
X237189720Y-64303000D01*
X237229720Y-54005000D02*
X237229720Y-64245000D01*
X237269720Y-54064000D02*
X237269720Y-64186000D01*
X237309720Y-54124000D02*
X237309720Y-64126000D01*
X237349720Y-54185000D02*
X237349720Y-64065000D01*
X237389720Y-54246000D02*
X237389720Y-64004000D01*
X237429720Y-54309000D02*
X237429720Y-63941000D01*
X237469720Y-54374000D02*
X237469720Y-63876000D01*
X237509720Y-54439000D02*
X237509720Y-63811000D01*
X237549720Y-54506000D02*
X237549720Y-63744000D01*
X237589720Y-54574000D02*
X237589720Y-63676000D01*
X237629720Y-54643000D02*
X237629720Y-63607000D01*
X237669720Y-54714000D02*
X237669720Y-63536000D01*
X237709720Y-54786000D02*
X237709720Y-63464000D01*
X237749720Y-54860000D02*
X237749720Y-63390000D01*
X237789720Y-54936000D02*
X237789720Y-63314000D01*
X237829720Y-55013000D02*
X237829720Y-63237000D01*
X237869720Y-55092000D02*
X237869720Y-63158000D01*
X237909720Y-55173000D02*
X237909720Y-63077000D01*
X237949720Y-55256000D02*
X237949720Y-62994000D01*
X237989720Y-55342000D02*
X237989720Y-62908000D01*
X238029720Y-55430000D02*
X238029720Y-62820000D01*
X238069720Y-55520000D02*
X238069720Y-62730000D01*
X238109720Y-55613000D02*
X238109720Y-62637000D01*
X238149720Y-55709000D02*
X238149720Y-62541000D01*
X238189720Y-55809000D02*
X238189720Y-62441000D01*
X238229720Y-55912000D02*
X238229720Y-62338000D01*
X238269720Y-56018000D02*
X238269720Y-62232000D01*
X238309720Y-56129000D02*
X238309720Y-62121000D01*
X238349720Y-56245000D02*
X238349720Y-62005000D01*
X238389720Y-56366000D02*
X238389720Y-61884000D01*
X238429720Y-56494000D02*
X238429720Y-61756000D01*
X238469720Y-56628000D02*
X238469720Y-61622000D01*
X238509720Y-56770000D02*
X238509720Y-61480000D01*
X238549720Y-56923000D02*
X238549720Y-61327000D01*
X238589720Y-57087000D02*
X238589720Y-61163000D01*
X238629720Y-57266000D02*
X238629720Y-60984000D01*
X238669720Y-57464000D02*
X238669720Y-60786000D01*
X238709720Y-57690000D02*
X238709720Y-60560000D01*
X238749720Y-57960000D02*
X238749720Y-60290000D01*
X238789720Y-58312000D02*
X238789720Y-59938000D01*
X238829720Y-59165000D02*
X238829720Y-59085000D01*
X238829720Y-59125000D02*
G75*
G02*
X220589720Y-59125000I-9120000J0D01*
G01*
X220589720Y-59125000D02*
G75*
G02*
X238829720Y-59125000I9120000J0D01*
G01*
%TO.C,R9*%
X206097500Y-74425000D02*
X206867500Y-74425000D01*
X214177500Y-74425000D02*
X213407500Y-74425000D01*
X213407500Y-75795000D02*
X206867500Y-75795000D01*
X206867500Y-73055000D01*
X213407500Y-73055000D01*
X213407500Y-75795000D01*
%TO.C,RV4*%
X215924900Y-125005000D02*
X215924900Y-123625000D01*
X217304900Y-125005000D02*
X215924900Y-125005000D01*
X218574900Y-122245000D02*
X223764900Y-122245000D01*
X218574900Y-125005000D02*
X218574900Y-122245000D01*
X218574900Y-125005000D02*
X223764900Y-125005000D01*
X223764900Y-125005000D02*
X223764900Y-122245000D01*
%TO.C,TP7*%
X239812500Y-34903680D02*
G75*
G02*
X237912500Y-34903680I-950000J0D01*
G01*
X237912500Y-34903680D02*
G75*
G02*
X239812500Y-34903680I950000J0D01*
G01*
%TO.C,D2*%
X225117500Y-39625000D02*
X226137500Y-39625000D01*
X230557500Y-41095000D02*
X230557500Y-38155000D01*
X230677500Y-41095000D02*
X230677500Y-38155000D01*
X230797500Y-41095000D02*
X230797500Y-38155000D01*
X232597500Y-39625000D02*
X231577500Y-39625000D01*
X231577500Y-41095000D02*
X226137500Y-41095000D01*
X226137500Y-38155000D01*
X231577500Y-38155000D01*
X231577500Y-41095000D01*
%TO.C,C5*%
X176342500Y-118033680D02*
X183782500Y-118033680D01*
X176342500Y-123773680D02*
X176342500Y-118033680D01*
X183782500Y-118033680D02*
X183782500Y-123773680D01*
X183782500Y-123773680D02*
X176342500Y-123773680D01*
%TO.C,TP9*%
X175612500Y-45703680D02*
G75*
G02*
X173712500Y-45703680I-950000J0D01*
G01*
X173712500Y-45703680D02*
G75*
G02*
X175612500Y-45703680I950000J0D01*
G01*
%TO.C,C2*%
X205097500Y-48669888D02*
X203557500Y-48669888D01*
X205097500Y-48709888D02*
X203557500Y-48709888D01*
X205097500Y-48749888D02*
X203558500Y-48749888D01*
X205097500Y-48789888D02*
X203560500Y-48789888D01*
X205097500Y-48829888D02*
X203562500Y-48829888D01*
X205097500Y-48869888D02*
X203565500Y-48869888D01*
X205097500Y-48909888D02*
X203568500Y-48909888D01*
X205097500Y-48949888D02*
X203572500Y-48949888D01*
X205097500Y-48989888D02*
X203577500Y-48989888D01*
X205097500Y-49029888D02*
X203582500Y-49029888D01*
X205097500Y-49069888D02*
X203588500Y-49069888D01*
X205097500Y-49109888D02*
X203594500Y-49109888D01*
X205097500Y-49149888D02*
X203601500Y-49149888D01*
X205097500Y-49189888D02*
X203609500Y-49189888D01*
X205097500Y-49229888D02*
X203618500Y-49229888D01*
X205097500Y-49269888D02*
X203627500Y-49269888D01*
X205097500Y-49309888D02*
X203636500Y-49309888D01*
X205097500Y-49349888D02*
X203647500Y-49349888D01*
X205097500Y-49389888D02*
X203658500Y-49389888D01*
X205097500Y-49429888D02*
X203670500Y-49429888D01*
X205097500Y-49469888D02*
X203682500Y-49469888D01*
X205097500Y-49509888D02*
X203695500Y-49509888D01*
X205097500Y-49549888D02*
X203709500Y-49549888D01*
X205097500Y-49589888D02*
X203724500Y-49589888D01*
X205097500Y-49629888D02*
X203739500Y-49629888D01*
X205097500Y-49669888D02*
X203755500Y-49669888D01*
X205097500Y-49709888D02*
X203772500Y-49709888D01*
X205097500Y-49749888D02*
X203790500Y-49749888D01*
X205097500Y-49789888D02*
X203808500Y-49789888D01*
X205097500Y-49829888D02*
X203828500Y-49829888D01*
X205097500Y-49869888D02*
X203848500Y-49869888D01*
X205097500Y-49909888D02*
X203869500Y-49909888D01*
X205097500Y-49949888D02*
X203891500Y-49949888D01*
X205097500Y-49989888D02*
X203914500Y-49989888D01*
X205097500Y-50029888D02*
X203938500Y-50029888D01*
X205097500Y-50069888D02*
X203962500Y-50069888D01*
X205097500Y-50109888D02*
X203988500Y-50109888D01*
X205097500Y-50149888D02*
X204015500Y-50149888D01*
X205097500Y-50189888D02*
X204043500Y-50189888D01*
X205097500Y-50229888D02*
X204072500Y-50229888D01*
X205097500Y-50269888D02*
X204102500Y-50269888D01*
X205097500Y-50309888D02*
X204134500Y-50309888D01*
X205097500Y-50349888D02*
X204167500Y-50349888D01*
X205097500Y-50389888D02*
X204201500Y-50389888D01*
X205097500Y-50429888D02*
X204236500Y-50429888D01*
X205097500Y-50469888D02*
X204273500Y-50469888D01*
X205097500Y-50509888D02*
X204312500Y-50509888D01*
X205097500Y-50549888D02*
X204352500Y-50549888D01*
X205097500Y-50589888D02*
X204394500Y-50589888D01*
X205097500Y-50629888D02*
X204438500Y-50629888D01*
X205097500Y-50669888D02*
X204485500Y-50669888D01*
X206420500Y-51269888D02*
X205854500Y-51269888D01*
X206654500Y-51229888D02*
X205620500Y-51229888D01*
X206814500Y-51189888D02*
X205460500Y-51189888D01*
X206942500Y-51149888D02*
X205332500Y-51149888D01*
X207051500Y-51109888D02*
X205223500Y-51109888D01*
X207148500Y-51069888D02*
X205126500Y-51069888D01*
X207235500Y-51029888D02*
X205039500Y-51029888D01*
X207314500Y-50989888D02*
X204960500Y-50989888D01*
X207388500Y-50949888D02*
X204886500Y-50949888D01*
X207456500Y-50909888D02*
X204818500Y-50909888D01*
X207520500Y-50869888D02*
X204754500Y-50869888D01*
X207580500Y-50829888D02*
X204694500Y-50829888D01*
X207612500Y-45865113D02*
X207612500Y-46365113D01*
X207636500Y-50789888D02*
X204638500Y-50789888D01*
X207690500Y-50749888D02*
X204584500Y-50749888D01*
X207741500Y-50709888D02*
X204533500Y-50709888D01*
X207789500Y-50669888D02*
X207177500Y-50669888D01*
X207836500Y-50629888D02*
X207177500Y-50629888D01*
X207862500Y-46115113D02*
X207362500Y-46115113D01*
X207880500Y-50589888D02*
X207177500Y-50589888D01*
X207922500Y-50549888D02*
X207177500Y-50549888D01*
X207962500Y-50509888D02*
X207177500Y-50509888D01*
X208001500Y-50469888D02*
X207177500Y-50469888D01*
X208038500Y-50429888D02*
X207177500Y-50429888D01*
X208073500Y-50389888D02*
X207177500Y-50389888D01*
X208107500Y-50349888D02*
X207177500Y-50349888D01*
X208140500Y-50309888D02*
X207177500Y-50309888D01*
X208172500Y-50269888D02*
X207177500Y-50269888D01*
X208202500Y-50229888D02*
X207177500Y-50229888D01*
X208231500Y-50189888D02*
X207177500Y-50189888D01*
X208259500Y-50149888D02*
X207177500Y-50149888D01*
X208286500Y-50109888D02*
X207177500Y-50109888D01*
X208312500Y-50069888D02*
X207177500Y-50069888D01*
X208336500Y-50029888D02*
X207177500Y-50029888D01*
X208360500Y-49989888D02*
X207177500Y-49989888D01*
X208383500Y-49949888D02*
X207177500Y-49949888D01*
X208405500Y-49909888D02*
X207177500Y-49909888D01*
X208426500Y-49869888D02*
X207177500Y-49869888D01*
X208446500Y-49829888D02*
X207177500Y-49829888D01*
X208466500Y-49789888D02*
X207177500Y-49789888D01*
X208484500Y-49749888D02*
X207177500Y-49749888D01*
X208502500Y-49709888D02*
X207177500Y-49709888D01*
X208519500Y-49669888D02*
X207177500Y-49669888D01*
X208535500Y-49629888D02*
X207177500Y-49629888D01*
X208550500Y-49589888D02*
X207177500Y-49589888D01*
X208565500Y-49549888D02*
X207177500Y-49549888D01*
X208579500Y-49509888D02*
X207177500Y-49509888D01*
X208592500Y-49469888D02*
X207177500Y-49469888D01*
X208604500Y-49429888D02*
X207177500Y-49429888D01*
X208616500Y-49389888D02*
X207177500Y-49389888D01*
X208627500Y-49349888D02*
X207177500Y-49349888D01*
X208638500Y-49309888D02*
X207177500Y-49309888D01*
X208647500Y-49269888D02*
X207177500Y-49269888D01*
X208656500Y-49229888D02*
X207177500Y-49229888D01*
X208665500Y-49189888D02*
X207177500Y-49189888D01*
X208673500Y-49149888D02*
X207177500Y-49149888D01*
X208680500Y-49109888D02*
X207177500Y-49109888D01*
X208686500Y-49069888D02*
X207177500Y-49069888D01*
X208692500Y-49029888D02*
X207177500Y-49029888D01*
X208697500Y-48989888D02*
X207177500Y-48989888D01*
X208702500Y-48949888D02*
X207177500Y-48949888D01*
X208706500Y-48909888D02*
X207177500Y-48909888D01*
X208709500Y-48869888D02*
X207177500Y-48869888D01*
X208712500Y-48829888D02*
X207177500Y-48829888D01*
X208714500Y-48789888D02*
X207177500Y-48789888D01*
X208716500Y-48749888D02*
X207177500Y-48749888D01*
X208717500Y-48669888D02*
X207177500Y-48669888D01*
X208717500Y-48709888D02*
X207177500Y-48709888D01*
X208757500Y-48669888D02*
G75*
G02*
X203517500Y-48669888I-2620000J0D01*
G01*
X203517500Y-48669888D02*
G75*
G02*
X208757500Y-48669888I2620000J0D01*
G01*
%TO.C,RV2*%
X158950900Y-125005000D02*
X158950900Y-123625000D01*
X160330900Y-125005000D02*
X158950900Y-125005000D01*
X161600900Y-122245000D02*
X166790900Y-122245000D01*
X161600900Y-125005000D02*
X161600900Y-122245000D01*
X161600900Y-125005000D02*
X166790900Y-125005000D01*
X166790900Y-125005000D02*
X166790900Y-122245000D01*
%TO.C,R7*%
X181297500Y-69025000D02*
X182067500Y-69025000D01*
X189377500Y-69025000D02*
X188607500Y-69025000D01*
X188607500Y-70395000D02*
X182067500Y-70395000D01*
X182067500Y-67655000D01*
X188607500Y-67655000D01*
X188607500Y-70395000D01*
%TO.C,TP4*%
X130487500Y-95425000D02*
G75*
G02*
X128587500Y-95425000I-950000J0D01*
G01*
X128587500Y-95425000D02*
G75*
G02*
X130487500Y-95425000I950000J0D01*
G01*
%TO.C,R8*%
X194697500Y-69025000D02*
X195467500Y-69025000D01*
X202777500Y-69025000D02*
X202007500Y-69025000D01*
X202007500Y-70395000D02*
X195467500Y-70395000D01*
X195467500Y-67655000D01*
X202007500Y-67655000D01*
X202007500Y-70395000D01*
%TO.C,TP3*%
X175012500Y-121703680D02*
G75*
G02*
X173112500Y-121703680I-950000J0D01*
G01*
X173112500Y-121703680D02*
G75*
G02*
X175012500Y-121703680I950000J0D01*
G01*
%TO.C,C4*%
X205667500Y-53705000D02*
X211407500Y-53705000D01*
X205667500Y-61145000D02*
X205667500Y-53705000D01*
X211407500Y-53705000D02*
X211407500Y-61145000D01*
X211407500Y-61145000D02*
X205667500Y-61145000D01*
%TO.C,R6*%
X176937500Y-55985000D02*
X176937500Y-56755000D01*
X176937500Y-64065000D02*
X176937500Y-63295000D01*
X175567500Y-63295000D02*
X178307500Y-63295000D01*
X178307500Y-56755000D01*
X175567500Y-56755000D01*
X175567500Y-63295000D01*
%TO.C,R13*%
X206097500Y-79225000D02*
X206867500Y-79225000D01*
X214177500Y-79225000D02*
X213407500Y-79225000D01*
X213407500Y-80595000D02*
X206867500Y-80595000D01*
X206867500Y-77855000D01*
X213407500Y-77855000D01*
X213407500Y-80595000D01*
%TO.C,R5*%
X171937500Y-55985000D02*
X171937500Y-56755000D01*
X171937500Y-64065000D02*
X171937500Y-63295000D01*
X173307500Y-56755000D02*
X170567500Y-56755000D01*
X170567500Y-63295000D01*
X173307500Y-63295000D01*
X173307500Y-56755000D01*
D15*
%TO.C,U3*%
X155522900Y-91918500D02*
X155879400Y-92735600D01*
D16*
X157077500Y-89425000D02*
G75*
G02*
X151997500Y-89425000I-2540000J0D01*
G01*
X151997500Y-89425000D02*
G75*
G02*
X157077500Y-89425000I2540000J0D01*
G01*
X164697500Y-89425000D02*
G75*
G02*
X144377500Y-89425000I-10160000J0D01*
G01*
X144377500Y-89425000D02*
G75*
G02*
X164697500Y-89425000I10160000J0D01*
G01*
D14*
%TO.C,D4*%
X240197500Y-44625000D02*
X241217500Y-44625000D01*
X245637500Y-46095000D02*
X245637500Y-43155000D01*
X245757500Y-46095000D02*
X245757500Y-43155000D01*
X245877500Y-46095000D02*
X245877500Y-43155000D01*
X247677500Y-44625000D02*
X246657500Y-44625000D01*
X246657500Y-46095000D02*
X241217500Y-46095000D01*
X241217500Y-43155000D01*
X246657500Y-43155000D01*
X246657500Y-46095000D01*
%TO.C,TP5*%
X240612500Y-125503680D02*
G75*
G02*
X238712500Y-125503680I-950000J0D01*
G01*
X238712500Y-125503680D02*
G75*
G02*
X240612500Y-125503680I950000J0D01*
G01*
%TO.C,C1*%
X167132725Y-47150000D02*
X167632725Y-47150000D01*
X167382725Y-46900000D02*
X167382725Y-47400000D01*
X169937500Y-46045000D02*
X169937500Y-47585000D01*
X169937500Y-49665000D02*
X169937500Y-51205000D01*
X169977500Y-46045000D02*
X169977500Y-47585000D01*
X169977500Y-49665000D02*
X169977500Y-51205000D01*
X170017500Y-46046000D02*
X170017500Y-47585000D01*
X170017500Y-49665000D02*
X170017500Y-51204000D01*
X170057500Y-46048000D02*
X170057500Y-47585000D01*
X170057500Y-49665000D02*
X170057500Y-51202000D01*
X170097500Y-46050000D02*
X170097500Y-47585000D01*
X170097500Y-49665000D02*
X170097500Y-51200000D01*
X170137500Y-46053000D02*
X170137500Y-47585000D01*
X170137500Y-49665000D02*
X170137500Y-51197000D01*
X170177500Y-46056000D02*
X170177500Y-47585000D01*
X170177500Y-49665000D02*
X170177500Y-51194000D01*
X170217500Y-46060000D02*
X170217500Y-47585000D01*
X170217500Y-49665000D02*
X170217500Y-51190000D01*
X170257500Y-46065000D02*
X170257500Y-47585000D01*
X170257500Y-49665000D02*
X170257500Y-51185000D01*
X170297500Y-46070000D02*
X170297500Y-47585000D01*
X170297500Y-49665000D02*
X170297500Y-51180000D01*
X170337500Y-46076000D02*
X170337500Y-47585000D01*
X170337500Y-49665000D02*
X170337500Y-51174000D01*
X170377500Y-46082000D02*
X170377500Y-47585000D01*
X170377500Y-49665000D02*
X170377500Y-51168000D01*
X170417500Y-46089000D02*
X170417500Y-47585000D01*
X170417500Y-49665000D02*
X170417500Y-51161000D01*
X170457500Y-46097000D02*
X170457500Y-47585000D01*
X170457500Y-49665000D02*
X170457500Y-51153000D01*
X170497500Y-46106000D02*
X170497500Y-47585000D01*
X170497500Y-49665000D02*
X170497500Y-51144000D01*
X170537500Y-46115000D02*
X170537500Y-47585000D01*
X170537500Y-49665000D02*
X170537500Y-51135000D01*
X170577500Y-46124000D02*
X170577500Y-47585000D01*
X170577500Y-49665000D02*
X170577500Y-51126000D01*
X170617500Y-46135000D02*
X170617500Y-47585000D01*
X170617500Y-49665000D02*
X170617500Y-51115000D01*
X170657500Y-46146000D02*
X170657500Y-47585000D01*
X170657500Y-49665000D02*
X170657500Y-51104000D01*
X170697500Y-46158000D02*
X170697500Y-47585000D01*
X170697500Y-49665000D02*
X170697500Y-51092000D01*
X170737500Y-46170000D02*
X170737500Y-47585000D01*
X170737500Y-49665000D02*
X170737500Y-51080000D01*
X170777500Y-46183000D02*
X170777500Y-47585000D01*
X170777500Y-49665000D02*
X170777500Y-51067000D01*
X170817500Y-46197000D02*
X170817500Y-47585000D01*
X170817500Y-49665000D02*
X170817500Y-51053000D01*
X170857500Y-46212000D02*
X170857500Y-47585000D01*
X170857500Y-49665000D02*
X170857500Y-51038000D01*
X170897500Y-46227000D02*
X170897500Y-47585000D01*
X170897500Y-49665000D02*
X170897500Y-51023000D01*
X170937500Y-46243000D02*
X170937500Y-47585000D01*
X170937500Y-49665000D02*
X170937500Y-51007000D01*
X170977500Y-46260000D02*
X170977500Y-47585000D01*
X170977500Y-49665000D02*
X170977500Y-50990000D01*
X171017500Y-46278000D02*
X171017500Y-47585000D01*
X171017500Y-49665000D02*
X171017500Y-50972000D01*
X171057500Y-46296000D02*
X171057500Y-47585000D01*
X171057500Y-49665000D02*
X171057500Y-50954000D01*
X171097500Y-46316000D02*
X171097500Y-47585000D01*
X171097500Y-49665000D02*
X171097500Y-50934000D01*
X171137500Y-46336000D02*
X171137500Y-47585000D01*
X171137500Y-49665000D02*
X171137500Y-50914000D01*
X171177500Y-46357000D02*
X171177500Y-47585000D01*
X171177500Y-49665000D02*
X171177500Y-50893000D01*
X171217500Y-46379000D02*
X171217500Y-47585000D01*
X171217500Y-49665000D02*
X171217500Y-50871000D01*
X171257500Y-46402000D02*
X171257500Y-47585000D01*
X171257500Y-49665000D02*
X171257500Y-50848000D01*
X171297500Y-46426000D02*
X171297500Y-47585000D01*
X171297500Y-49665000D02*
X171297500Y-50824000D01*
X171337500Y-46450000D02*
X171337500Y-47585000D01*
X171337500Y-49665000D02*
X171337500Y-50800000D01*
X171377500Y-46476000D02*
X171377500Y-47585000D01*
X171377500Y-49665000D02*
X171377500Y-50774000D01*
X171417500Y-46503000D02*
X171417500Y-47585000D01*
X171417500Y-49665000D02*
X171417500Y-50747000D01*
X171457500Y-46531000D02*
X171457500Y-47585000D01*
X171457500Y-49665000D02*
X171457500Y-50719000D01*
X171497500Y-46560000D02*
X171497500Y-47585000D01*
X171497500Y-49665000D02*
X171497500Y-50690000D01*
X171537500Y-46590000D02*
X171537500Y-47585000D01*
X171537500Y-49665000D02*
X171537500Y-50660000D01*
X171577500Y-46622000D02*
X171577500Y-47585000D01*
X171577500Y-49665000D02*
X171577500Y-50628000D01*
X171617500Y-46655000D02*
X171617500Y-47585000D01*
X171617500Y-49665000D02*
X171617500Y-50595000D01*
X171657500Y-46689000D02*
X171657500Y-47585000D01*
X171657500Y-49665000D02*
X171657500Y-50561000D01*
X171697500Y-46724000D02*
X171697500Y-47585000D01*
X171697500Y-49665000D02*
X171697500Y-50526000D01*
X171737500Y-46761000D02*
X171737500Y-47585000D01*
X171737500Y-49665000D02*
X171737500Y-50489000D01*
X171777500Y-46800000D02*
X171777500Y-47585000D01*
X171777500Y-49665000D02*
X171777500Y-50450000D01*
X171817500Y-46840000D02*
X171817500Y-47585000D01*
X171817500Y-49665000D02*
X171817500Y-50410000D01*
X171857500Y-46882000D02*
X171857500Y-47585000D01*
X171857500Y-49665000D02*
X171857500Y-50368000D01*
X171897500Y-46926000D02*
X171897500Y-47585000D01*
X171897500Y-49665000D02*
X171897500Y-50324000D01*
X171937500Y-46973000D02*
X171937500Y-47585000D01*
X171937500Y-49665000D02*
X171937500Y-50277000D01*
X171977500Y-47021000D02*
X171977500Y-50229000D01*
X172017500Y-47072000D02*
X172017500Y-50178000D01*
X172057500Y-47126000D02*
X172057500Y-50124000D01*
X172097500Y-47182000D02*
X172097500Y-50068000D01*
X172137500Y-47242000D02*
X172137500Y-50008000D01*
X172177500Y-47306000D02*
X172177500Y-49944000D01*
X172217500Y-47374000D02*
X172217500Y-49876000D01*
X172257500Y-47448000D02*
X172257500Y-49802000D01*
X172297500Y-47527000D02*
X172297500Y-49723000D01*
X172337500Y-47614000D02*
X172337500Y-49636000D01*
X172377500Y-47711000D02*
X172377500Y-49539000D01*
X172417500Y-47820000D02*
X172417500Y-49430000D01*
X172457500Y-47948000D02*
X172457500Y-49302000D01*
X172497500Y-48108000D02*
X172497500Y-49142000D01*
X172537500Y-48342000D02*
X172537500Y-48908000D01*
X172557500Y-48625000D02*
G75*
G02*
X167317500Y-48625000I-2620000J0D01*
G01*
X167317500Y-48625000D02*
G75*
G02*
X172557500Y-48625000I2620000J0D01*
G01*
%TO.C,TP2*%
X214012500Y-70303680D02*
G75*
G02*
X212112500Y-70303680I-950000J0D01*
G01*
X212112500Y-70303680D02*
G75*
G02*
X214012500Y-70303680I950000J0D01*
G01*
%TO.C,RV1*%
X130344200Y-125005000D02*
X130344200Y-123625000D01*
X131724200Y-125005000D02*
X130344200Y-125005000D01*
X132994200Y-122245000D02*
X138184200Y-122245000D01*
X132994200Y-125005000D02*
X132994200Y-122245000D01*
X132994200Y-125005000D02*
X138184200Y-125005000D01*
X138184200Y-125005000D02*
X138184200Y-122245000D01*
%TO.C,R16*%
X135137500Y-82115000D02*
X135137500Y-82805000D01*
X135137500Y-92735000D02*
X135137500Y-92045000D01*
X136857500Y-82805000D02*
X133417500Y-82805000D01*
X133417500Y-92045000D01*
X136857500Y-92045000D01*
X136857500Y-82805000D01*
%TO.C,R11*%
X158622500Y-113903680D02*
X159392500Y-113903680D01*
X166702500Y-113903680D02*
X165932500Y-113903680D01*
X159392500Y-112533680D02*
X165932500Y-112533680D01*
X165932500Y-115273680D01*
X159392500Y-115273680D01*
X159392500Y-112533680D01*
D17*
%TO.C,J1*%
X250437500Y-120625000D02*
X260637500Y-120625000D01*
X250437500Y-128325000D02*
X250437500Y-120625000D01*
X260637500Y-120625000D02*
X260637500Y-128325000D01*
X260637500Y-128325000D02*
X250437500Y-128325000D01*
D18*
X252237500Y-122825000D02*
G75*
G02*
X252037500Y-122825000I-100000J0D01*
G01*
X252037500Y-122825000D02*
G75*
G02*
X252237500Y-122825000I100000J0D01*
G01*
D14*
%TO.C,U2*%
X202242919Y-55025000D02*
G75*
G02*
X179632081Y-55025000I-11305419J0D01*
G01*
X179632081Y-55025000D02*
G75*
G02*
X202242919Y-55025000I11305419J0D01*
G01*
%TO.C,C6*%
X196467500Y-73105000D02*
X202207500Y-73105000D01*
X196467500Y-80545000D02*
X196467500Y-73105000D01*
X202207500Y-73105000D02*
X202207500Y-80545000D01*
X202207500Y-80545000D02*
X196467500Y-80545000D01*
%TO.C,R1*%
X160297500Y-68825000D02*
X161067500Y-68825000D01*
X168377500Y-68825000D02*
X167607500Y-68825000D01*
X167607500Y-70195000D02*
X161067500Y-70195000D01*
X161067500Y-67455000D01*
X167607500Y-67455000D01*
X167607500Y-70195000D01*
%TO.C,R3*%
X147497500Y-68825000D02*
X148267500Y-68825000D01*
X155577500Y-68825000D02*
X154807500Y-68825000D01*
X154807500Y-70195000D02*
X148267500Y-70195000D01*
X148267500Y-67455000D01*
X154807500Y-67455000D01*
X154807500Y-70195000D01*
%TO.C,R4*%
X139537500Y-57185000D02*
X139537500Y-57955000D01*
X139537500Y-65265000D02*
X139537500Y-64495000D01*
X138167500Y-64495000D02*
X140907500Y-64495000D01*
X140907500Y-57955000D01*
X138167500Y-57955000D01*
X138167500Y-64495000D01*
%TO.C,R12*%
X216537500Y-109385000D02*
X216537500Y-110155000D01*
X216537500Y-117465000D02*
X216537500Y-116695000D01*
X215167500Y-116695000D02*
X217907500Y-116695000D01*
X217907500Y-110155000D01*
X215167500Y-110155000D01*
X215167500Y-116695000D01*
%TO.C,U1*%
X165842919Y-55025000D02*
G75*
G02*
X143232081Y-55025000I-11305419J0D01*
G01*
X143232081Y-55025000D02*
G75*
G02*
X165842919Y-55025000I11305419J0D01*
G01*
D17*
%TO.C,J3*%
X251837500Y-37525000D02*
X262037500Y-37525000D01*
X251837500Y-45225000D02*
X251837500Y-37525000D01*
X262037500Y-37525000D02*
X262037500Y-45225000D01*
X262037500Y-45225000D02*
X251837500Y-45225000D01*
D18*
X260437500Y-43025000D02*
G75*
G02*
X260237500Y-43025000I-100000J0D01*
G01*
X260237500Y-43025000D02*
G75*
G02*
X260437500Y-43025000I100000J0D01*
G01*
D13*
%TO.C,J2*%
X112509550Y-43238000D02*
X112509550Y-63812000D01*
X112509550Y-63812000D02*
X122034550Y-63812000D01*
X122034550Y-43238000D02*
X112509550Y-43238000D01*
X122034550Y-47276225D02*
X122034550Y-43238000D01*
X122034550Y-63812000D02*
X122034550Y-59773775D01*
D19*
X124768550Y-64701000D02*
G75*
G02*
X124006550Y-64701000I-381000J0D01*
G01*
X124006550Y-64701000D02*
G75*
G02*
X124768550Y-64701000I381000J0D01*
G01*
%TD*%
M02*
