%TF.GenerationSoftware,KiCad,Pcbnew,9.0.6*%
%TF.CreationDate,2026-02-02T16:31:34-05:00*%
%TF.ProjectId,auxModule,6175784d-6f64-4756-9c65-2e6b69636164,1*%
%TF.SameCoordinates,Original*%
%TF.FileFunction,Copper,L1,Top*%
%TF.FilePolarity,Positive*%
%FSLAX46Y46*%
G04 Gerber Fmt 4.6, Leading zero omitted, Abs format (unit mm)*
G04 Created by KiCad (PCBNEW 9.0.6) date 2026-02-02 16:31:34*
%MOMM*%
%LPD*%
G01*
G04 APERTURE LIST*
%TA.AperFunction,ComponentPad*%
%ADD10C,1.600000*%
%TD*%
%TA.AperFunction,ComponentPad*%
%ADD11O,2.006600X1.498600*%
%TD*%
%TA.AperFunction,ComponentPad*%
%ADD12C,1.530000*%
%TD*%
%TA.AperFunction,Conductor*%
%ADD13C,0.733882*%
%TD*%
%TA.AperFunction,Conductor*%
%ADD14C,0.200000*%
%TD*%
G04 APERTURE END LIST*
D10*
%TO.P,R1,1*%
%TO.N,Net-(J1-Pad2)*%
X134720000Y-82800000D03*
%TO.P,R1,2*%
%TO.N,Net-(J2-Pad10)*%
X144880000Y-82800000D03*
%TD*%
D11*
%TO.P,J1,1,1*%
%TO.N,GND*%
X85100000Y-74500124D03*
%TO.P,J1,2,2*%
%TO.N,Net-(J1-Pad2)*%
X90400002Y-75749941D03*
%TO.P,J1,3,3*%
%TO.N,Net-(J1-Pad3)*%
X90400002Y-70249942D03*
%TD*%
D10*
%TO.P,R2,1*%
%TO.N,Net-(J1-Pad3)*%
X134720000Y-78200000D03*
%TO.P,R2,2*%
%TO.N,Net-(J2-Pad10)*%
X144880000Y-78200000D03*
%TD*%
D12*
%TO.P,J2,1*%
%TO.N,VPP*%
X151990000Y-88070000D03*
%TO.P,J2,2*%
X149450000Y-88070000D03*
%TO.P,J2,3*%
%TO.N,GND*%
X151990000Y-85530000D03*
%TO.P,J2,4*%
X149450000Y-85530000D03*
%TO.P,J2,5*%
%TO.N,filament-*%
X151990000Y-82990000D03*
%TO.P,J2,6*%
X149450000Y-82990000D03*
%TO.P,J2,7*%
%TO.N,filament+*%
X151990000Y-80450000D03*
%TO.P,J2,8*%
X149450000Y-80450000D03*
%TO.P,J2,9*%
%TO.N,Net-(J2-Pad10)*%
X151990000Y-77910000D03*
%TO.P,J2,10*%
X149450000Y-77910000D03*
%TD*%
D13*
%TO.N,filament-*%
X149450000Y-82990000D02*
X151990000Y-82990000D01*
%TO.N,filament+*%
X149450000Y-80450000D02*
X151990000Y-80450000D01*
D14*
%TO.N,Net-(J2-Pad10)*%
X144880000Y-78200000D02*
X144880000Y-82800000D01*
X145170000Y-77910000D02*
X144880000Y-78200000D01*
X149140000Y-77600000D02*
X149450000Y-77910000D01*
X149450000Y-77910000D02*
X145170000Y-77910000D01*
X149450000Y-77910000D02*
X151990000Y-77910000D01*
%TO.N,VPP*%
X151990000Y-88070000D02*
X149450000Y-88070000D01*
%TO.N,Net-(J1-Pad2)*%
X134720000Y-82800000D02*
X127520000Y-75600000D01*
X90549943Y-75600000D02*
X90400002Y-75749941D01*
X127520000Y-75600000D02*
X90549943Y-75600000D01*
%TO.N,Net-(J1-Pad3)*%
X126720000Y-70200000D02*
X90449944Y-70200000D01*
X90449944Y-70200000D02*
X90400002Y-70249942D01*
X134720000Y-78200000D02*
X126720000Y-70200000D01*
%TD*%
M02*
