%TF.GenerationSoftware,KiCad,Pcbnew,9.0.6*%
%TF.CreationDate,2026-02-02T16:31:34-05:00*%
%TF.ProjectId,auxModule,6175784d-6f64-4756-9c65-2e6b69636164,1*%
%TF.SameCoordinates,Original*%
%TF.FileFunction,Copper,L2,Bot*%
%TF.FilePolarity,Positive*%
%FSLAX46Y46*%
G04 Gerber Fmt 4.6, Leading zero omitted, Abs format (unit mm)*
G04 Created by KiCad (PCBNEW 9.0.6) date 2026-02-02 16:31:34*
%MOMM*%
%LPD*%
G01*
G04 APERTURE LIST*
%TA.AperFunction,ComponentPad*%
%ADD10C,1.600000*%
%TD*%
%TA.AperFunction,ComponentPad*%
%ADD11O,2.006600X1.498600*%
%TD*%
%TA.AperFunction,ComponentPad*%
%ADD12C,1.530000*%
%TD*%
G04 APERTURE END LIST*
D10*
%TO.P,R1,1*%
%TO.N,Net-(J1-Pad2)*%
X134720000Y-82800000D03*
%TO.P,R1,2*%
%TO.N,Net-(J2-Pad10)*%
X144880000Y-82800000D03*
%TD*%
D11*
%TO.P,J1,1,1*%
%TO.N,GND*%
X85100000Y-74500124D03*
%TO.P,J1,2,2*%
%TO.N,Net-(J1-Pad2)*%
X90400002Y-75749941D03*
%TO.P,J1,3,3*%
%TO.N,Net-(J1-Pad3)*%
X90400002Y-70249942D03*
%TD*%
D10*
%TO.P,R2,1*%
%TO.N,Net-(J1-Pad3)*%
X134720000Y-78200000D03*
%TO.P,R2,2*%
%TO.N,Net-(J2-Pad10)*%
X144880000Y-78200000D03*
%TD*%
D12*
%TO.P,J2,1*%
%TO.N,VPP*%
X151990000Y-88070000D03*
%TO.P,J2,2*%
X149450000Y-88070000D03*
%TO.P,J2,3*%
%TO.N,GND*%
X151990000Y-85530000D03*
%TO.P,J2,4*%
X149450000Y-85530000D03*
%TO.P,J2,5*%
%TO.N,filament-*%
X151990000Y-82990000D03*
%TO.P,J2,6*%
X149450000Y-82990000D03*
%TO.P,J2,7*%
%TO.N,filament+*%
X151990000Y-80450000D03*
%TO.P,J2,8*%
X149450000Y-80450000D03*
%TO.P,J2,9*%
%TO.N,Net-(J2-Pad10)*%
X151990000Y-77910000D03*
%TO.P,J2,10*%
X149450000Y-77910000D03*
%TD*%
%TA.AperFunction,Conductor*%
%TO.N,GND*%
G36*
X151514755Y-85726853D02*
G01*
X151581898Y-85843147D01*
X151676853Y-85938102D01*
X151793147Y-86005245D01*
X151852425Y-86021128D01*
X151289134Y-86584417D01*
X151326994Y-86611924D01*
X151478722Y-86689234D01*
X151529518Y-86737209D01*
X151546313Y-86805030D01*
X151523776Y-86871165D01*
X151478723Y-86910203D01*
X151326735Y-86987645D01*
X151213997Y-87069555D01*
X151165582Y-87104731D01*
X151165580Y-87104733D01*
X151165579Y-87104733D01*
X151024733Y-87245579D01*
X151024733Y-87245580D01*
X151024731Y-87245582D01*
X150974447Y-87314790D01*
X150907647Y-87406733D01*
X150830485Y-87558172D01*
X150782510Y-87608968D01*
X150714689Y-87625763D01*
X150648554Y-87603225D01*
X150609515Y-87558172D01*
X150532352Y-87406733D01*
X150415269Y-87245582D01*
X150274418Y-87104731D01*
X150113266Y-86987647D01*
X150113262Y-86987645D01*
X149961277Y-86910204D01*
X149910481Y-86862229D01*
X149893686Y-86794408D01*
X149916224Y-86728273D01*
X149961277Y-86689234D01*
X150113005Y-86611924D01*
X150150863Y-86584418D01*
X150150863Y-86584417D01*
X149587574Y-86021128D01*
X149646853Y-86005245D01*
X149763147Y-85938102D01*
X149858102Y-85843147D01*
X149925245Y-85726853D01*
X149941128Y-85667574D01*
X150504417Y-86230863D01*
X150504418Y-86230863D01*
X150531924Y-86193005D01*
X150609515Y-86040727D01*
X150657490Y-85989931D01*
X150725311Y-85973136D01*
X150791446Y-85995674D01*
X150830485Y-86040727D01*
X150908077Y-86193008D01*
X150935580Y-86230863D01*
X150935581Y-86230864D01*
X151498871Y-85667574D01*
X151514755Y-85726853D01*
G37*
%TD.AperFunction*%
%TA.AperFunction,Conductor*%
G36*
X150806419Y-83914932D02*
G01*
X150820319Y-83930972D01*
X150846336Y-83966782D01*
X151013219Y-84133665D01*
X151013224Y-84133669D01*
X151204148Y-84272383D01*
X151204150Y-84272384D01*
X151204153Y-84272386D01*
X151238197Y-84289732D01*
X151288993Y-84337706D01*
X151305788Y-84405527D01*
X151291303Y-84448030D01*
X151289135Y-84475581D01*
X151852425Y-85038871D01*
X151793147Y-85054755D01*
X151676853Y-85121898D01*
X151581898Y-85216853D01*
X151514755Y-85333147D01*
X151498871Y-85392425D01*
X150935581Y-84829135D01*
X150935580Y-84829135D01*
X150908074Y-84866995D01*
X150908073Y-84866996D01*
X150830484Y-85019272D01*
X150782510Y-85070068D01*
X150714689Y-85086863D01*
X150648554Y-85064325D01*
X150609516Y-85019272D01*
X150531928Y-84866999D01*
X150504417Y-84829135D01*
X150504417Y-84829134D01*
X149941128Y-85392424D01*
X149925245Y-85333147D01*
X149858102Y-85216853D01*
X149763147Y-85121898D01*
X149646853Y-85054755D01*
X149587574Y-85038871D01*
X150150864Y-84475581D01*
X150149147Y-84453764D01*
X150142546Y-84445204D01*
X150136567Y-84375591D01*
X150169173Y-84313796D01*
X150201800Y-84289733D01*
X150235847Y-84272386D01*
X150426782Y-84133664D01*
X150593664Y-83966782D01*
X150619681Y-83930971D01*
X150675011Y-83888306D01*
X150744624Y-83882327D01*
X150806419Y-83914932D01*
G37*
%TD.AperFunction*%
%TA.AperFunction,Conductor*%
G36*
X159203736Y-56500726D02*
G01*
X159493796Y-56518271D01*
X159508659Y-56520076D01*
X159790798Y-56571780D01*
X159805335Y-56575363D01*
X160079172Y-56660695D01*
X160093163Y-56666000D01*
X160354743Y-56783727D01*
X160367989Y-56790680D01*
X160613465Y-56939075D01*
X160625776Y-56947573D01*
X160851573Y-57124473D01*
X160862781Y-57134403D01*
X161065596Y-57337218D01*
X161075526Y-57348426D01*
X161195481Y-57501538D01*
X161252422Y-57574217D01*
X161260928Y-57586540D01*
X161409316Y-57832004D01*
X161416275Y-57845263D01*
X161533997Y-58106831D01*
X161539306Y-58120832D01*
X161624635Y-58394663D01*
X161628219Y-58409201D01*
X161679923Y-58691340D01*
X161681728Y-58706205D01*
X161699274Y-58996263D01*
X161699500Y-59003750D01*
X161699500Y-106996249D01*
X161699274Y-107003736D01*
X161681728Y-107293794D01*
X161679923Y-107308659D01*
X161628219Y-107590798D01*
X161624635Y-107605336D01*
X161539306Y-107879167D01*
X161533997Y-107893168D01*
X161416275Y-108154736D01*
X161409316Y-108167995D01*
X161260928Y-108413459D01*
X161252422Y-108425782D01*
X161075526Y-108651573D01*
X161065596Y-108662781D01*
X160862781Y-108865596D01*
X160851573Y-108875526D01*
X160625782Y-109052422D01*
X160613459Y-109060928D01*
X160367995Y-109209316D01*
X160354736Y-109216275D01*
X160093168Y-109333997D01*
X160079167Y-109339306D01*
X159805336Y-109424635D01*
X159790798Y-109428219D01*
X159508659Y-109479923D01*
X159493794Y-109481728D01*
X159203736Y-109499274D01*
X159196249Y-109499500D01*
X79603751Y-109499500D01*
X79596264Y-109499274D01*
X79306205Y-109481728D01*
X79291340Y-109479923D01*
X79009201Y-109428219D01*
X78994663Y-109424635D01*
X78720832Y-109339306D01*
X78706831Y-109333997D01*
X78445263Y-109216275D01*
X78432004Y-109209316D01*
X78186540Y-109060928D01*
X78174217Y-109052422D01*
X77948426Y-108875526D01*
X77937218Y-108865596D01*
X77734403Y-108662781D01*
X77724473Y-108651573D01*
X77547573Y-108425776D01*
X77539075Y-108413465D01*
X77390680Y-108167989D01*
X77383727Y-108154743D01*
X77266000Y-107893163D01*
X77260693Y-107879167D01*
X77175364Y-107605336D01*
X77171780Y-107590798D01*
X77120076Y-107308659D01*
X77118271Y-107293794D01*
X77100726Y-107003736D01*
X77100500Y-106996249D01*
X77100500Y-82697648D01*
X133419500Y-82697648D01*
X133419500Y-82902351D01*
X133451522Y-83104534D01*
X133514781Y-83299223D01*
X133607715Y-83481613D01*
X133728028Y-83647213D01*
X133872786Y-83791971D01*
X134027749Y-83904556D01*
X134038390Y-83912287D01*
X134145342Y-83966782D01*
X134220776Y-84005218D01*
X134220778Y-84005218D01*
X134220781Y-84005220D01*
X134325137Y-84039127D01*
X134415465Y-84068477D01*
X134516557Y-84084488D01*
X134617648Y-84100500D01*
X134617649Y-84100500D01*
X134822351Y-84100500D01*
X134822352Y-84100500D01*
X135024534Y-84068477D01*
X135219219Y-84005220D01*
X135401610Y-83912287D01*
X135494590Y-83844732D01*
X135567213Y-83791971D01*
X135567215Y-83791968D01*
X135567219Y-83791966D01*
X135711966Y-83647219D01*
X135711968Y-83647215D01*
X135711971Y-83647213D01*
X135771292Y-83565563D01*
X135832287Y-83481610D01*
X135925220Y-83299219D01*
X135988477Y-83104534D01*
X136020500Y-82902352D01*
X136020500Y-82697648D01*
X143579500Y-82697648D01*
X143579500Y-82902351D01*
X143611522Y-83104534D01*
X143674781Y-83299223D01*
X143767715Y-83481613D01*
X143888028Y-83647213D01*
X144032786Y-83791971D01*
X144187749Y-83904556D01*
X144198390Y-83912287D01*
X144305342Y-83966782D01*
X144380776Y-84005218D01*
X144380778Y-84005218D01*
X144380781Y-84005220D01*
X144485137Y-84039127D01*
X144575465Y-84068477D01*
X144676557Y-84084488D01*
X144777648Y-84100500D01*
X144777649Y-84100500D01*
X144982351Y-84100500D01*
X144982352Y-84100500D01*
X145184534Y-84068477D01*
X145379219Y-84005220D01*
X145561610Y-83912287D01*
X145654590Y-83844732D01*
X145727213Y-83791971D01*
X145727215Y-83791968D01*
X145727219Y-83791966D01*
X145871966Y-83647219D01*
X145871968Y-83647215D01*
X145871971Y-83647213D01*
X145931292Y-83565563D01*
X145992287Y-83481610D01*
X146085220Y-83299219D01*
X146148477Y-83104534D01*
X146180500Y-82902352D01*
X146180500Y-82697648D01*
X146148477Y-82495466D01*
X146085220Y-82300781D01*
X146085218Y-82300778D01*
X146085218Y-82300776D01*
X146027299Y-82187105D01*
X145992287Y-82118390D01*
X145977235Y-82097673D01*
X145871971Y-81952786D01*
X145727213Y-81808028D01*
X145561613Y-81687715D01*
X145561612Y-81687714D01*
X145561610Y-81687713D01*
X145504653Y-81658691D01*
X145379223Y-81594781D01*
X145184534Y-81531522D01*
X145009995Y-81503878D01*
X144982352Y-81499500D01*
X144777648Y-81499500D01*
X144753329Y-81503351D01*
X144575465Y-81531522D01*
X144380776Y-81594781D01*
X144198386Y-81687715D01*
X144032786Y-81808028D01*
X143888028Y-81952786D01*
X143767715Y-82118386D01*
X143674781Y-82300776D01*
X143611522Y-82495465D01*
X143579500Y-82697648D01*
X136020500Y-82697648D01*
X135988477Y-82495466D01*
X135925220Y-82300781D01*
X135925218Y-82300778D01*
X135925218Y-82300776D01*
X135867299Y-82187105D01*
X135832287Y-82118390D01*
X135817235Y-82097673D01*
X135711971Y-81952786D01*
X135567213Y-81808028D01*
X135401613Y-81687715D01*
X135401612Y-81687714D01*
X135401610Y-81687713D01*
X135344653Y-81658691D01*
X135219223Y-81594781D01*
X135024534Y-81531522D01*
X134849995Y-81503878D01*
X134822352Y-81499500D01*
X134617648Y-81499500D01*
X134593329Y-81503351D01*
X134415465Y-81531522D01*
X134220776Y-81594781D01*
X134038386Y-81687715D01*
X133872786Y-81808028D01*
X133728028Y-81952786D01*
X133607715Y-82118386D01*
X133514781Y-82300776D01*
X133451522Y-82495465D01*
X133419500Y-82697648D01*
X77100500Y-82697648D01*
X77100500Y-80331996D01*
X147950618Y-80331996D01*
X147950618Y-80568003D01*
X147987537Y-80801102D01*
X148060470Y-81025565D01*
X148167616Y-81235850D01*
X148306330Y-81426775D01*
X148306334Y-81426780D01*
X148306336Y-81426782D01*
X148473218Y-81593664D01*
X148509029Y-81619682D01*
X148551694Y-81675013D01*
X148557673Y-81744626D01*
X148525067Y-81806421D01*
X148509030Y-81820317D01*
X148500007Y-81826872D01*
X148473216Y-81846337D01*
X148306334Y-82013219D01*
X148306330Y-82013224D01*
X148167616Y-82204149D01*
X148060470Y-82414434D01*
X147987537Y-82638897D01*
X147950618Y-82871996D01*
X147950618Y-83108003D01*
X147987537Y-83341102D01*
X148060470Y-83565565D01*
X148167616Y-83775850D01*
X148306330Y-83966775D01*
X148306334Y-83966780D01*
X148473219Y-84133665D01*
X148473224Y-84133669D01*
X148664148Y-84272383D01*
X148664150Y-84272384D01*
X148664153Y-84272386D01*
X148698197Y-84289732D01*
X148748993Y-84337706D01*
X148765788Y-84405527D01*
X148751303Y-84448030D01*
X148749135Y-84475581D01*
X149312425Y-85038871D01*
X149253147Y-85054755D01*
X149136853Y-85121898D01*
X149041898Y-85216853D01*
X148974755Y-85333147D01*
X148958871Y-85392425D01*
X148395581Y-84829135D01*
X148395580Y-84829135D01*
X148368077Y-84866990D01*
X148277679Y-85044405D01*
X148216147Y-85233777D01*
X148185000Y-85430436D01*
X148185000Y-85629563D01*
X148216147Y-85826222D01*
X148277679Y-86015594D01*
X148368077Y-86193008D01*
X148395580Y-86230863D01*
X148395581Y-86230864D01*
X148958871Y-85667574D01*
X148974755Y-85726853D01*
X149041898Y-85843147D01*
X149136853Y-85938102D01*
X149253147Y-86005245D01*
X149312425Y-86021128D01*
X148749134Y-86584417D01*
X148786994Y-86611924D01*
X148938722Y-86689234D01*
X148989518Y-86737209D01*
X149006313Y-86805030D01*
X148983776Y-86871165D01*
X148938723Y-86910203D01*
X148786735Y-86987645D01*
X148673997Y-87069555D01*
X148625582Y-87104731D01*
X148625580Y-87104733D01*
X148625579Y-87104733D01*
X148484733Y-87245579D01*
X148484733Y-87245580D01*
X148484731Y-87245582D01*
X148434447Y-87314790D01*
X148367647Y-87406733D01*
X148277213Y-87584219D01*
X148215661Y-87773656D01*
X148215661Y-87773659D01*
X148184500Y-87970403D01*
X148184500Y-88169596D01*
X148215661Y-88366340D01*
X148215661Y-88366343D01*
X148277213Y-88555780D01*
X148277215Y-88555783D01*
X148367647Y-88733266D01*
X148484731Y-88894418D01*
X148625582Y-89035269D01*
X148786734Y-89152353D01*
X148964217Y-89242785D01*
X148964219Y-89242786D01*
X149153657Y-89304338D01*
X149153658Y-89304338D01*
X149153661Y-89304339D01*
X149350403Y-89335500D01*
X149350404Y-89335500D01*
X149549596Y-89335500D01*
X149549597Y-89335500D01*
X149746339Y-89304339D01*
X149746342Y-89304338D01*
X149746343Y-89304338D01*
X149935780Y-89242786D01*
X149935780Y-89242785D01*
X149935783Y-89242785D01*
X150113266Y-89152353D01*
X150274418Y-89035269D01*
X150415269Y-88894418D01*
X150532353Y-88733266D01*
X150609515Y-88581827D01*
X150657490Y-88531031D01*
X150725311Y-88514236D01*
X150791446Y-88536773D01*
X150830485Y-88581827D01*
X150907647Y-88733266D01*
X151024731Y-88894418D01*
X151165582Y-89035269D01*
X151326734Y-89152353D01*
X151504217Y-89242785D01*
X151504219Y-89242786D01*
X151693657Y-89304338D01*
X151693658Y-89304338D01*
X151693661Y-89304339D01*
X151890403Y-89335500D01*
X151890404Y-89335500D01*
X152089596Y-89335500D01*
X152089597Y-89335500D01*
X152286339Y-89304339D01*
X152286342Y-89304338D01*
X152286343Y-89304338D01*
X152475780Y-89242786D01*
X152475780Y-89242785D01*
X152475783Y-89242785D01*
X152653266Y-89152353D01*
X152814418Y-89035269D01*
X152955269Y-88894418D01*
X153072353Y-88733266D01*
X153162785Y-88555783D01*
X153170827Y-88531031D01*
X153224338Y-88366343D01*
X153224338Y-88366342D01*
X153224339Y-88366339D01*
X153255500Y-88169597D01*
X153255500Y-87970403D01*
X153224339Y-87773661D01*
X153224338Y-87773657D01*
X153224338Y-87773656D01*
X153162786Y-87584219D01*
X153072352Y-87406733D01*
X152955269Y-87245582D01*
X152814418Y-87104731D01*
X152653266Y-86987647D01*
X152653262Y-86987645D01*
X152501277Y-86910204D01*
X152450481Y-86862229D01*
X152433686Y-86794408D01*
X152456224Y-86728273D01*
X152501277Y-86689234D01*
X152653005Y-86611924D01*
X152690863Y-86584418D01*
X152690863Y-86584417D01*
X152127574Y-86021128D01*
X152186853Y-86005245D01*
X152303147Y-85938102D01*
X152398102Y-85843147D01*
X152465245Y-85726853D01*
X152481128Y-85667574D01*
X153044417Y-86230863D01*
X153044418Y-86230863D01*
X153071924Y-86193005D01*
X153162320Y-86015594D01*
X153223852Y-85826222D01*
X153255000Y-85629563D01*
X153255000Y-85430436D01*
X153223852Y-85233777D01*
X153162320Y-85044405D01*
X153071924Y-84866994D01*
X153044417Y-84829135D01*
X153044417Y-84829134D01*
X152481128Y-85392424D01*
X152465245Y-85333147D01*
X152398102Y-85216853D01*
X152303147Y-85121898D01*
X152186853Y-85054755D01*
X152127574Y-85038871D01*
X152690864Y-84475581D01*
X152689147Y-84453764D01*
X152682546Y-84445204D01*
X152676567Y-84375591D01*
X152709173Y-84313796D01*
X152741800Y-84289733D01*
X152775847Y-84272386D01*
X152966782Y-84133664D01*
X153133664Y-83966782D01*
X153272386Y-83775847D01*
X153379531Y-83565563D01*
X153452462Y-83341106D01*
X153489382Y-83108004D01*
X153489382Y-82871996D01*
X153452462Y-82638894D01*
X153379531Y-82414437D01*
X153272386Y-82204153D01*
X153190680Y-82091694D01*
X153133669Y-82013224D01*
X153133665Y-82013219D01*
X152966782Y-81846336D01*
X152930972Y-81820319D01*
X152888306Y-81764989D01*
X152882327Y-81695376D01*
X152914932Y-81633581D01*
X152930972Y-81619681D01*
X152966782Y-81593664D01*
X153133664Y-81426782D01*
X153272386Y-81235847D01*
X153379531Y-81025563D01*
X153452462Y-80801106D01*
X153489382Y-80568004D01*
X153489382Y-80331996D01*
X153452462Y-80098894D01*
X153379531Y-79874437D01*
X153272386Y-79664153D01*
X153190680Y-79551694D01*
X153133669Y-79473224D01*
X153133665Y-79473219D01*
X152966780Y-79306334D01*
X152966775Y-79306330D01*
X152775848Y-79167614D01*
X152742300Y-79150520D01*
X152691504Y-79102545D01*
X152674710Y-79034724D01*
X152697248Y-78968589D01*
X152725709Y-78939719D01*
X152814418Y-78875269D01*
X152955269Y-78734418D01*
X153072353Y-78573266D01*
X153162785Y-78395783D01*
X153175140Y-78357758D01*
X153224338Y-78206343D01*
X153224338Y-78206342D01*
X153224339Y-78206339D01*
X153255500Y-78009597D01*
X153255500Y-77810403D01*
X153224339Y-77613661D01*
X153224338Y-77613657D01*
X153224338Y-77613656D01*
X153162786Y-77424219D01*
X153126389Y-77352786D01*
X153072353Y-77246734D01*
X152955269Y-77085582D01*
X152814418Y-76944731D01*
X152653266Y-76827647D01*
X152636030Y-76818865D01*
X152475780Y-76737213D01*
X152286342Y-76675661D01*
X152138782Y-76652290D01*
X152089597Y-76644500D01*
X151890403Y-76644500D01*
X151824822Y-76654887D01*
X151693659Y-76675661D01*
X151693656Y-76675661D01*
X151504219Y-76737213D01*
X151326733Y-76827647D01*
X151234790Y-76894447D01*
X151165582Y-76944731D01*
X151165580Y-76944733D01*
X151165579Y-76944733D01*
X151024733Y-77085579D01*
X151024733Y-77085580D01*
X151024731Y-77085582D01*
X150974447Y-77154790D01*
X150907647Y-77246733D01*
X150830485Y-77398172D01*
X150782510Y-77448968D01*
X150714689Y-77465763D01*
X150648554Y-77443225D01*
X150609515Y-77398172D01*
X150532352Y-77246733D01*
X150415269Y-77085582D01*
X150274418Y-76944731D01*
X150113266Y-76827647D01*
X150096030Y-76818865D01*
X149935780Y-76737213D01*
X149746342Y-76675661D01*
X149598782Y-76652290D01*
X149549597Y-76644500D01*
X149350403Y-76644500D01*
X149284822Y-76654887D01*
X149153659Y-76675661D01*
X149153656Y-76675661D01*
X148964219Y-76737213D01*
X148786733Y-76827647D01*
X148694790Y-76894447D01*
X148625582Y-76944731D01*
X148625580Y-76944733D01*
X148625579Y-76944733D01*
X148484733Y-77085579D01*
X148484733Y-77085580D01*
X148484731Y-77085582D01*
X148434447Y-77154790D01*
X148367647Y-77246733D01*
X148277213Y-77424219D01*
X148215661Y-77613656D01*
X148215661Y-77613659D01*
X148184500Y-77810403D01*
X148184500Y-78009596D01*
X148215661Y-78206340D01*
X148215661Y-78206343D01*
X148277213Y-78395780D01*
X148290485Y-78421827D01*
X148367647Y-78573266D01*
X148484731Y-78734418D01*
X148625582Y-78875269D01*
X148714289Y-78939719D01*
X148756954Y-78995048D01*
X148762933Y-79064661D01*
X148730327Y-79126456D01*
X148697700Y-79150519D01*
X148664155Y-79167611D01*
X148664153Y-79167613D01*
X148473224Y-79306330D01*
X148473219Y-79306334D01*
X148306334Y-79473219D01*
X148306330Y-79473224D01*
X148167616Y-79664149D01*
X148060470Y-79874434D01*
X147987537Y-80098897D01*
X147950618Y-80331996D01*
X77100500Y-80331996D01*
X77100500Y-78097648D01*
X133419500Y-78097648D01*
X133419500Y-78302351D01*
X133451522Y-78504534D01*
X133514781Y-78699223D01*
X133578691Y-78824653D01*
X133604483Y-78875271D01*
X133607715Y-78881613D01*
X133728028Y-79047213D01*
X133872786Y-79191971D01*
X134027749Y-79304556D01*
X134038390Y-79312287D01*
X134154607Y-79371503D01*
X134220776Y-79405218D01*
X134220778Y-79405218D01*
X134220781Y-79405220D01*
X134325137Y-79439127D01*
X134415465Y-79468477D01*
X134516557Y-79484488D01*
X134617648Y-79500500D01*
X134617649Y-79500500D01*
X134822351Y-79500500D01*
X134822352Y-79500500D01*
X135024534Y-79468477D01*
X135219219Y-79405220D01*
X135401610Y-79312287D01*
X135494590Y-79244732D01*
X135567213Y-79191971D01*
X135567215Y-79191968D01*
X135567219Y-79191966D01*
X135711966Y-79047219D01*
X135711968Y-79047215D01*
X135711971Y-79047213D01*
X135790069Y-78939718D01*
X135832287Y-78881610D01*
X135925220Y-78699219D01*
X135988477Y-78504534D01*
X136020500Y-78302352D01*
X136020500Y-78097648D01*
X143579500Y-78097648D01*
X143579500Y-78302351D01*
X143611522Y-78504534D01*
X143674781Y-78699223D01*
X143738691Y-78824653D01*
X143764483Y-78875271D01*
X143767715Y-78881613D01*
X143888028Y-79047213D01*
X144032786Y-79191971D01*
X144187749Y-79304556D01*
X144198390Y-79312287D01*
X144314607Y-79371503D01*
X144380776Y-79405218D01*
X144380778Y-79405218D01*
X144380781Y-79405220D01*
X144485137Y-79439127D01*
X144575465Y-79468477D01*
X144676557Y-79484488D01*
X144777648Y-79500500D01*
X144777649Y-79500500D01*
X144982351Y-79500500D01*
X144982352Y-79500500D01*
X145184534Y-79468477D01*
X145379219Y-79405220D01*
X145561610Y-79312287D01*
X145654590Y-79244732D01*
X145727213Y-79191971D01*
X145727215Y-79191968D01*
X145727219Y-79191966D01*
X145871966Y-79047219D01*
X145871968Y-79047215D01*
X145871971Y-79047213D01*
X145950069Y-78939718D01*
X145992287Y-78881610D01*
X146085220Y-78699219D01*
X146148477Y-78504534D01*
X146180500Y-78302352D01*
X146180500Y-78097648D01*
X146148477Y-77895466D01*
X146085220Y-77700781D01*
X146085218Y-77700778D01*
X146085218Y-77700776D01*
X146040829Y-77613659D01*
X145992287Y-77518390D01*
X145954052Y-77465763D01*
X145871971Y-77352786D01*
X145727213Y-77208028D01*
X145561613Y-77087715D01*
X145561612Y-77087714D01*
X145561610Y-77087713D01*
X145504653Y-77058691D01*
X145379223Y-76994781D01*
X145184534Y-76931522D01*
X145009995Y-76903878D01*
X144982352Y-76899500D01*
X144777648Y-76899500D01*
X144753329Y-76903351D01*
X144575465Y-76931522D01*
X144380776Y-76994781D01*
X144198386Y-77087715D01*
X144032786Y-77208028D01*
X143888028Y-77352786D01*
X143767715Y-77518386D01*
X143674781Y-77700776D01*
X143611522Y-77895465D01*
X143579500Y-78097648D01*
X136020500Y-78097648D01*
X135988477Y-77895466D01*
X135925220Y-77700781D01*
X135925218Y-77700778D01*
X135925218Y-77700776D01*
X135880829Y-77613659D01*
X135832287Y-77518390D01*
X135794052Y-77465763D01*
X135711971Y-77352786D01*
X135567213Y-77208028D01*
X135401613Y-77087715D01*
X135401612Y-77087714D01*
X135401610Y-77087713D01*
X135344653Y-77058691D01*
X135219223Y-76994781D01*
X135024534Y-76931522D01*
X134849995Y-76903878D01*
X134822352Y-76899500D01*
X134617648Y-76899500D01*
X134593329Y-76903351D01*
X134415465Y-76931522D01*
X134220776Y-76994781D01*
X134038386Y-77087715D01*
X133872786Y-77208028D01*
X133728028Y-77352786D01*
X133607715Y-77518386D01*
X133514781Y-77700776D01*
X133451522Y-77895465D01*
X133419500Y-78097648D01*
X77100500Y-78097648D01*
X77100500Y-74250124D01*
X83620725Y-74250124D01*
X84418414Y-74250124D01*
X84384454Y-74308945D01*
X84350700Y-74434917D01*
X84350700Y-74565331D01*
X84384454Y-74691303D01*
X84418414Y-74750124D01*
X83620725Y-74750124D01*
X83627464Y-74792676D01*
X83688226Y-74979686D01*
X83688227Y-74979689D01*
X83777503Y-75154900D01*
X83893089Y-75313990D01*
X84032133Y-75453034D01*
X84191223Y-75568620D01*
X84366434Y-75657896D01*
X84366437Y-75657897D01*
X84553453Y-75718661D01*
X84747679Y-75749424D01*
X84850000Y-75749424D01*
X84850000Y-74995424D01*
X85350000Y-74995424D01*
X85350000Y-75749424D01*
X85452321Y-75749424D01*
X85646546Y-75718661D01*
X85833562Y-75657897D01*
X85833565Y-75657896D01*
X85845972Y-75651574D01*
X88896202Y-75651574D01*
X88896202Y-75848307D01*
X88926975Y-76042603D01*
X88987768Y-76229702D01*
X89077077Y-76404979D01*
X89192708Y-76564131D01*
X89331812Y-76703235D01*
X89490964Y-76818866D01*
X89508198Y-76827647D01*
X89666240Y-76908174D01*
X89666242Y-76908174D01*
X89666245Y-76908176D01*
X89738100Y-76931523D01*
X89853339Y-76968967D01*
X90047636Y-76999741D01*
X90047641Y-76999741D01*
X90752368Y-76999741D01*
X90946664Y-76968967D01*
X91021248Y-76944733D01*
X91133759Y-76908176D01*
X91309040Y-76818866D01*
X91468192Y-76703235D01*
X91607296Y-76564131D01*
X91722927Y-76404979D01*
X91812237Y-76229698D01*
X91873028Y-76042603D01*
X91903802Y-75848307D01*
X91903802Y-75651574D01*
X91873028Y-75457278D01*
X91812235Y-75270179D01*
X91722926Y-75094902D01*
X91607296Y-74935751D01*
X91468192Y-74796647D01*
X91309040Y-74681016D01*
X91133763Y-74591707D01*
X90946664Y-74530914D01*
X90752368Y-74500141D01*
X90752363Y-74500141D01*
X90047641Y-74500141D01*
X90047636Y-74500141D01*
X89853339Y-74530914D01*
X89666240Y-74591707D01*
X89490963Y-74681016D01*
X89400161Y-74746988D01*
X89331812Y-74796647D01*
X89331810Y-74796649D01*
X89331809Y-74796649D01*
X89192710Y-74935748D01*
X89192710Y-74935749D01*
X89192708Y-74935751D01*
X89173877Y-74961670D01*
X89077077Y-75094902D01*
X88987768Y-75270179D01*
X88926975Y-75457278D01*
X88896202Y-75651574D01*
X85845972Y-75651574D01*
X86008776Y-75568620D01*
X86039374Y-75546390D01*
X86039375Y-75546389D01*
X86167860Y-75453039D01*
X86167866Y-75453034D01*
X86306910Y-75313990D01*
X86422496Y-75154900D01*
X86511772Y-74979689D01*
X86511773Y-74979686D01*
X86572535Y-74792676D01*
X86579275Y-74750124D01*
X85781586Y-74750124D01*
X85815546Y-74691303D01*
X85849300Y-74565331D01*
X85849300Y-74434917D01*
X85815546Y-74308945D01*
X85781586Y-74250124D01*
X86579275Y-74250124D01*
X86572535Y-74207571D01*
X86511773Y-74020561D01*
X86511772Y-74020558D01*
X86422496Y-73845347D01*
X86306910Y-73686257D01*
X86167866Y-73547213D01*
X86008776Y-73431627D01*
X85833565Y-73342351D01*
X85833562Y-73342350D01*
X85646546Y-73281586D01*
X85452321Y-73250824D01*
X85350000Y-73250824D01*
X85350000Y-74004824D01*
X84850000Y-74004824D01*
X84850000Y-73250824D01*
X84747679Y-73250824D01*
X84553453Y-73281586D01*
X84366437Y-73342350D01*
X84366434Y-73342351D01*
X84191223Y-73431627D01*
X84032133Y-73547213D01*
X83893089Y-73686257D01*
X83777503Y-73845347D01*
X83688227Y-74020558D01*
X83688226Y-74020561D01*
X83627464Y-74207571D01*
X83620725Y-74250124D01*
X77100500Y-74250124D01*
X77100500Y-72926540D01*
X80254200Y-72926540D01*
X80254200Y-73073459D01*
X80282858Y-73217534D01*
X80282861Y-73217544D01*
X80339078Y-73353266D01*
X80339083Y-73353275D01*
X80420698Y-73475419D01*
X80420701Y-73475423D01*
X80524576Y-73579298D01*
X80524580Y-73579301D01*
X80646724Y-73660916D01*
X80646730Y-73660919D01*
X80646731Y-73660920D01*
X80782458Y-73717140D01*
X80926540Y-73745799D01*
X80926544Y-73745800D01*
X80926545Y-73745800D01*
X81073456Y-73745800D01*
X81073457Y-73745799D01*
X81217542Y-73717140D01*
X81353269Y-73660920D01*
X81475420Y-73579301D01*
X81579301Y-73475420D01*
X81660920Y-73353269D01*
X81717140Y-73217542D01*
X81745800Y-73073455D01*
X81745800Y-72926545D01*
X81745799Y-72926540D01*
X87754200Y-72926540D01*
X87754200Y-73073459D01*
X87782858Y-73217534D01*
X87782861Y-73217544D01*
X87839078Y-73353266D01*
X87839083Y-73353275D01*
X87920698Y-73475419D01*
X87920701Y-73475423D01*
X88024576Y-73579298D01*
X88024580Y-73579301D01*
X88146724Y-73660916D01*
X88146730Y-73660919D01*
X88146731Y-73660920D01*
X88282458Y-73717140D01*
X88426540Y-73745799D01*
X88426544Y-73745800D01*
X88426545Y-73745800D01*
X88573456Y-73745800D01*
X88573457Y-73745799D01*
X88717542Y-73717140D01*
X88853269Y-73660920D01*
X88975420Y-73579301D01*
X89079301Y-73475420D01*
X89160920Y-73353269D01*
X89217140Y-73217542D01*
X89245800Y-73073455D01*
X89245800Y-72926545D01*
X89217140Y-72782458D01*
X89160920Y-72646731D01*
X89160919Y-72646730D01*
X89160916Y-72646724D01*
X89079301Y-72524580D01*
X89079298Y-72524576D01*
X88975423Y-72420701D01*
X88975419Y-72420698D01*
X88853275Y-72339083D01*
X88853266Y-72339078D01*
X88717544Y-72282861D01*
X88717545Y-72282861D01*
X88717542Y-72282860D01*
X88717538Y-72282859D01*
X88717534Y-72282858D01*
X88573459Y-72254200D01*
X88573455Y-72254200D01*
X88426545Y-72254200D01*
X88426540Y-72254200D01*
X88282465Y-72282858D01*
X88282455Y-72282861D01*
X88146733Y-72339078D01*
X88146724Y-72339083D01*
X88024580Y-72420698D01*
X88024576Y-72420701D01*
X87920701Y-72524576D01*
X87920698Y-72524580D01*
X87839083Y-72646724D01*
X87839078Y-72646733D01*
X87782861Y-72782455D01*
X87782858Y-72782465D01*
X87754200Y-72926540D01*
X81745799Y-72926540D01*
X81717140Y-72782458D01*
X81660920Y-72646731D01*
X81660919Y-72646730D01*
X81660916Y-72646724D01*
X81579301Y-72524580D01*
X81579298Y-72524576D01*
X81475423Y-72420701D01*
X81475419Y-72420698D01*
X81353275Y-72339083D01*
X81353266Y-72339078D01*
X81217544Y-72282861D01*
X81217545Y-72282861D01*
X81217542Y-72282860D01*
X81217538Y-72282859D01*
X81217534Y-72282858D01*
X81073459Y-72254200D01*
X81073455Y-72254200D01*
X80926545Y-72254200D01*
X80926540Y-72254200D01*
X80782465Y-72282858D01*
X80782455Y-72282861D01*
X80646733Y-72339078D01*
X80646724Y-72339083D01*
X80524580Y-72420698D01*
X80524576Y-72420701D01*
X80420701Y-72524576D01*
X80420698Y-72524580D01*
X80339083Y-72646724D01*
X80339078Y-72646733D01*
X80282861Y-72782455D01*
X80282858Y-72782465D01*
X80254200Y-72926540D01*
X77100500Y-72926540D01*
X77100500Y-70151575D01*
X88896202Y-70151575D01*
X88896202Y-70348308D01*
X88926975Y-70542604D01*
X88987768Y-70729703D01*
X89077077Y-70904980D01*
X89192708Y-71064132D01*
X89331812Y-71203236D01*
X89490964Y-71318867D01*
X89573776Y-71361062D01*
X89666240Y-71408175D01*
X89666242Y-71408175D01*
X89666245Y-71408177D01*
X89766532Y-71440762D01*
X89853339Y-71468968D01*
X90047636Y-71499742D01*
X90047641Y-71499742D01*
X90752368Y-71499742D01*
X90946664Y-71468968D01*
X91133759Y-71408177D01*
X91309040Y-71318867D01*
X91468192Y-71203236D01*
X91607296Y-71064132D01*
X91722927Y-70904980D01*
X91812237Y-70729699D01*
X91873028Y-70542604D01*
X91903802Y-70348308D01*
X91903802Y-70151575D01*
X91873028Y-69957279D01*
X91812235Y-69770180D01*
X91722926Y-69594903D01*
X91607296Y-69435752D01*
X91468192Y-69296648D01*
X91309040Y-69181017D01*
X91133763Y-69091708D01*
X90946664Y-69030915D01*
X90752368Y-69000142D01*
X90752363Y-69000142D01*
X90047641Y-69000142D01*
X90047636Y-69000142D01*
X89853339Y-69030915D01*
X89666240Y-69091708D01*
X89490963Y-69181017D01*
X89400161Y-69246989D01*
X89331812Y-69296648D01*
X89331810Y-69296650D01*
X89331809Y-69296650D01*
X89192710Y-69435749D01*
X89192710Y-69435750D01*
X89192708Y-69435752D01*
X89143049Y-69504101D01*
X89077077Y-69594903D01*
X88987768Y-69770180D01*
X88926975Y-69957279D01*
X88896202Y-70151575D01*
X77100500Y-70151575D01*
X77100500Y-59003750D01*
X77100726Y-58996263D01*
X77118271Y-58706205D01*
X77120076Y-58691340D01*
X77171780Y-58409201D01*
X77175364Y-58394663D01*
X77252096Y-58148422D01*
X77260696Y-58120822D01*
X77265998Y-58106841D01*
X77383731Y-57845249D01*
X77390676Y-57832016D01*
X77539080Y-57586526D01*
X77547567Y-57574230D01*
X77724480Y-57348417D01*
X77734395Y-57337226D01*
X77937226Y-57134395D01*
X77948417Y-57124480D01*
X78174230Y-56947567D01*
X78186526Y-56939080D01*
X78432016Y-56790676D01*
X78445249Y-56783731D01*
X78706841Y-56665998D01*
X78720822Y-56660696D01*
X78994668Y-56575362D01*
X79009197Y-56571780D01*
X79291344Y-56520075D01*
X79306201Y-56518271D01*
X79596264Y-56500726D01*
X79603751Y-56500500D01*
X79665892Y-56500500D01*
X159134108Y-56500500D01*
X159196249Y-56500500D01*
X159203736Y-56500726D01*
G37*
%TD.AperFunction*%
%TD*%
M02*
