%TF.GenerationSoftware,KiCad,Pcbnew,9.0.6*%
%TF.CreationDate,2026-02-02T16:31:34-05:00*%
%TF.ProjectId,auxModule,6175784d-6f64-4756-9c65-2e6b69636164,1*%
%TF.SameCoordinates,Original*%
%TF.FileFunction,Legend,Top*%
%TF.FilePolarity,Positive*%
%FSLAX46Y46*%
G04 Gerber Fmt 4.6, Leading zero omitted, Abs format (unit mm)*
G04 Created by KiCad (PCBNEW 9.0.6) date 2026-02-02 16:31:34*
%MOMM*%
%LPD*%
G01*
G04 APERTURE LIST*
%ADD10C,0.150000*%
%ADD11C,0.120000*%
%ADD12C,0.152400*%
%ADD13C,0.200000*%
G04 APERTURE END LIST*
D10*
X139633333Y-81054819D02*
X139300000Y-80578628D01*
X139061905Y-81054819D02*
X139061905Y-80054819D01*
X139061905Y-80054819D02*
X139442857Y-80054819D01*
X139442857Y-80054819D02*
X139538095Y-80102438D01*
X139538095Y-80102438D02*
X139585714Y-80150057D01*
X139585714Y-80150057D02*
X139633333Y-80245295D01*
X139633333Y-80245295D02*
X139633333Y-80388152D01*
X139633333Y-80388152D02*
X139585714Y-80483390D01*
X139585714Y-80483390D02*
X139538095Y-80531009D01*
X139538095Y-80531009D02*
X139442857Y-80578628D01*
X139442857Y-80578628D02*
X139061905Y-80578628D01*
X140585714Y-81054819D02*
X140014286Y-81054819D01*
X140300000Y-81054819D02*
X140300000Y-80054819D01*
X140300000Y-80054819D02*
X140204762Y-80197676D01*
X140204762Y-80197676D02*
X140109524Y-80292914D01*
X140109524Y-80292914D02*
X140014286Y-80340533D01*
X92454819Y-73533333D02*
X93169104Y-73533333D01*
X93169104Y-73533333D02*
X93311961Y-73580952D01*
X93311961Y-73580952D02*
X93407200Y-73676190D01*
X93407200Y-73676190D02*
X93454819Y-73819047D01*
X93454819Y-73819047D02*
X93454819Y-73914285D01*
X93454819Y-72533333D02*
X93454819Y-73104761D01*
X93454819Y-72819047D02*
X92454819Y-72819047D01*
X92454819Y-72819047D02*
X92597676Y-72914285D01*
X92597676Y-72914285D02*
X92692914Y-73009523D01*
X92692914Y-73009523D02*
X92740533Y-73104761D01*
X139633333Y-76284819D02*
X139300000Y-75808628D01*
X139061905Y-76284819D02*
X139061905Y-75284819D01*
X139061905Y-75284819D02*
X139442857Y-75284819D01*
X139442857Y-75284819D02*
X139538095Y-75332438D01*
X139538095Y-75332438D02*
X139585714Y-75380057D01*
X139585714Y-75380057D02*
X139633333Y-75475295D01*
X139633333Y-75475295D02*
X139633333Y-75618152D01*
X139633333Y-75618152D02*
X139585714Y-75713390D01*
X139585714Y-75713390D02*
X139538095Y-75761009D01*
X139538095Y-75761009D02*
X139442857Y-75808628D01*
X139442857Y-75808628D02*
X139061905Y-75808628D01*
X140014286Y-75380057D02*
X140061905Y-75332438D01*
X140061905Y-75332438D02*
X140157143Y-75284819D01*
X140157143Y-75284819D02*
X140395238Y-75284819D01*
X140395238Y-75284819D02*
X140490476Y-75332438D01*
X140490476Y-75332438D02*
X140538095Y-75380057D01*
X140538095Y-75380057D02*
X140585714Y-75475295D01*
X140585714Y-75475295D02*
X140585714Y-75570533D01*
X140585714Y-75570533D02*
X140538095Y-75713390D01*
X140538095Y-75713390D02*
X139966667Y-76284819D01*
X139966667Y-76284819D02*
X140585714Y-76284819D01*
X146747295Y-83456666D02*
X147318723Y-83456666D01*
X147318723Y-83456666D02*
X147433009Y-83494761D01*
X147433009Y-83494761D02*
X147509200Y-83570952D01*
X147509200Y-83570952D02*
X147547295Y-83685237D01*
X147547295Y-83685237D02*
X147547295Y-83761428D01*
X146823485Y-83113809D02*
X146785390Y-83075713D01*
X146785390Y-83075713D02*
X146747295Y-82999523D01*
X146747295Y-82999523D02*
X146747295Y-82809047D01*
X146747295Y-82809047D02*
X146785390Y-82732856D01*
X146785390Y-82732856D02*
X146823485Y-82694761D01*
X146823485Y-82694761D02*
X146899676Y-82656666D01*
X146899676Y-82656666D02*
X146975866Y-82656666D01*
X146975866Y-82656666D02*
X147090152Y-82694761D01*
X147090152Y-82694761D02*
X147547295Y-83151904D01*
X147547295Y-83151904D02*
X147547295Y-82656666D01*
D11*
%TO.C,R1*%
X135760000Y-82800000D02*
X136530000Y-82800000D01*
X143840000Y-82800000D02*
X143070000Y-82800000D01*
X136530000Y-81430000D02*
X143070000Y-81430000D01*
X143070000Y-84170000D01*
X136530000Y-84170000D01*
X136530000Y-81430000D01*
D12*
%TO.C,J1*%
X76873001Y-69278900D02*
X76873001Y-76721100D01*
X76873001Y-72873000D02*
X76873001Y-73127000D01*
X76873001Y-73127000D02*
X77127001Y-73127000D01*
X76873001Y-76721100D02*
X90053150Y-76721100D01*
X77127001Y-72873000D02*
X76873001Y-72873000D01*
X77127001Y-73127000D02*
X77127001Y-72873000D01*
X90052823Y-69278900D02*
X76873001Y-69278900D01*
X90746854Y-76721100D02*
X91122401Y-76721100D01*
X91122401Y-69278900D02*
X90747181Y-69278900D01*
X91122401Y-69514010D02*
X91122401Y-69278900D01*
X91122401Y-75014009D02*
X91122401Y-70985874D01*
X91122401Y-76721100D02*
X91122401Y-76485873D01*
D11*
%TO.C,R2*%
X135760000Y-78200000D02*
X136530000Y-78200000D01*
X143840000Y-78200000D02*
X143070000Y-78200000D01*
X136530000Y-76830000D02*
X143070000Y-76830000D01*
X143070000Y-79570000D01*
X136530000Y-79570000D01*
X136530000Y-76830000D01*
D13*
%TO.C,J2*%
X153250000Y-76290000D02*
X161950000Y-76290000D01*
X153250000Y-89690000D02*
X153250000Y-76290000D01*
X161950000Y-76290000D02*
X161950000Y-89690000D01*
X161950000Y-89690000D02*
X153250000Y-89690000D01*
X152920000Y-89200000D02*
G75*
G02*
X152720000Y-89200000I-100000J0D01*
G01*
X152720000Y-89200000D02*
G75*
G02*
X152920000Y-89200000I100000J0D01*
G01*
%TD*%
M02*
